<svg xmlns="http://www.w3.org/2000/svg" xmlns:svg="http://www.w3.org/2000/svg" xmlns:xlink="http://www.w3.org/1999/xlink" id="svg2" width="16" height="16" version="1.1"><defs id="defs4"><linearGradient id="linearGradient4883"><stop style="stop-color:#ebf9ff;stop-opacity:1" id="stop4885" offset="0"/><stop style="stop-color:#fcffff;stop-opacity:1" id="stop4887" offset="1"/></linearGradient><linearGradient id="linearGradient5062" x1="-12" x2="-15" y1="1047.362" y2="1047.362" gradientTransform="translate(22,12.999914)" gradientUnits="userSpaceOnUse" xlink:href="#linearGradient4910-4"/><linearGradient id="linearGradient4910-4"><stop style="stop-color:#fff;stop-opacity:0" id="stop4912-8" offset="0"/><stop style="stop-color:#c3e9ff;stop-opacity:1" id="stop4914-8" offset="1"/></linearGradient><linearGradient id="linearGradient4975-2" x1="-11" x2="-11" y1="1042.362" y2="1045.362" gradientTransform="translate(22,12.999914)" gradientUnits="userSpaceOnUse" xlink:href="#linearGradient4994-4"/><linearGradient id="linearGradient4994-4"><stop id="stop4996-5" offset="0" style="stop-color:#c3e9ff;stop-opacity:1"/><stop id="stop4998-5" offset="1" style="stop-color:#fff;stop-opacity:0"/></linearGradient><linearGradient id="linearGradient4889" x1="28" x2="28" y1="1039.362" y2="1049.362" gradientTransform="translate(-16,15.999951)" gradientUnits="userSpaceOnUse" xlink:href="#linearGradient4883"/></defs><metadata id="metadata7"/><g id="layer1" transform="translate(0,-1036.3622)" style="display:inline"><path style="fill:#00bdfe;fill-opacity:.94509804;stroke:#0ba0e5;stroke-width:1;stroke-linecap:butt;stroke-linejoin:miter;stroke-miterlimit:4;stroke-opacity:1;stroke-dasharray:none" id="path3123" d="m 3.617175,1039.6944 c -0.214122,0 -0.413775,0.022 -0.5625,0.1094 -0.61,0.3577 -1.952625,1.5517 -2.26562503,2.625 -0.4872,1.6705 -0.54185,3.953 -0.46875,5.5625 0.85520003,-1.587 1.81447503,-3.6281 3.60937503,-3.7969 0.9956,-0.094 2.627275,0.799 3.171875,1.25 0.5446201,0.4509 2.834063,2.6896 3.453125,3.0313 0.484893,0.2677 1.795679,0.7864 2.390625,0.4375 0.609934,-0.3577 1.952548,-1.5517 2.265625,-2.625 0.487182,-1.6705 0.541917,-3.953 0.46875,-5.5625 -0.855158,1.587 -1.814544,3.6281 -3.609375,3.7969 -0.995606,0.094 -2.627255,-0.799 -3.171875,-1.25 -0.5446,-0.4509 -2.834125,-2.6896 -3.453125,-3.0313 -0.363675,-0.2008 -1.1857595,-0.5356 -1.828125,-0.5469 z"/></g></svg>