<svg xmlns="http://www.w3.org/2000/svg" xmlns:svg="http://www.w3.org/2000/svg" xmlns:xlink="http://www.w3.org/1999/xlink" id="svg2" width="16" height="16" version="1.1"><defs id="defs4"><linearGradient id="linearGradient3861"><stop style="stop-color:#caf3f6;stop-opacity:1" id="stop3863" offset="0"/><stop style="stop-color:#fff;stop-opacity:1" id="stop3865" offset="1"/></linearGradient><linearGradient id="linearGradient3867" x1="-11" x2="-11" y1="1054.362" y2="1029.362" gradientTransform="matrix(0.5,0,0,0.5,11.03125,522.18034)" gradientUnits="userSpaceOnUse" xlink:href="#linearGradient3861"/><linearGradient id="linearGradient3861-0"><stop style="stop-color:#caf3f6;stop-opacity:1" id="stop3863-0" offset="0"/><stop style="stop-color:#fff;stop-opacity:1" id="stop3865-9" offset="1"/></linearGradient><linearGradient id="linearGradient4138" x1="-11" x2="-11" y1="1054.362" y2="1029.362" gradientTransform="matrix(0.5,0,0,0.5,15,520.2123)" gradientUnits="userSpaceOnUse" xlink:href="#linearGradient3861-0"/><linearGradient id="linearGradient4230" x1="-11" x2="-11" y1="1054.362" y2="1029.362" gradientTransform="matrix(0.5,0,0,0.5,32.03125,543.3686)" gradientUnits="userSpaceOnUse" xlink:href="#linearGradient3861"/><linearGradient id="linearGradient5408" x1="-11" x2="-11" y1="1054.362" y2="1029.362" gradientTransform="translate(22.03125,-4.039)" gradientUnits="userSpaceOnUse" xlink:href="#linearGradient3861-0"/><clipPath id="clipPath5419" clipPathUnits="userSpaceOnUse"><path id="path5421" d="m 8,1027.3622 0,10.9688 2,0 c 3.0625,0.031 6.03125,3.0313 6.03125,6.0313 l 0.03125,2.9687 2.96875,0 0,10 9.96875,0.029 0,-30 z" style="fill:none;stroke:#000;stroke-width:1px;stroke-linecap:butt;stroke-linejoin:miter;stroke-opacity:1"/></clipPath></defs><metadata id="metadata7"/><g id="layer1" transform="translate(0,-1036.3622)" style="display:inline"><g id="g6616"><path style="fill:url(#linearGradient3867);fill-opacity:1;stroke:#679093;stroke-width:1;stroke-linecap:butt;stroke-linejoin:miter;stroke-miterlimit:4;stroke-opacity:1;stroke-dasharray:none" id="path3091" d="m 4.53125,1038.3617 0,4.5 -2,0 c -1,0 -2,1 -2,2 l 0,2 -2,0 0,1 3,3 3,-3 0,-1 -2,0 0,-1 c 0,-0.5 0.5,-1 1,-1 l 4,0 c 0.5,0 1,0.5 1,1 l 0,1 -2,0 0,1 3,3 3,-3 0,-1 -2,0 0,-2 c 0,-1 -1,-2 -2,-2 l -2,0 0,-4.5"/><path id="path4121-4" d="m 9.03125,1028.3236 0,9 -4,0 c -2,0 -4,2 -4,4 l 0,4 -4,0 0,2 6,6 6,-6 0,-2 -4,0 0,-2 c 0,-1 1,-2 2,-2 l 8,0 c 1,0 2,1 2,2 l 0,2 -4,0 0,2 6,6 6,-6 0,-2 -4,0 0,-4 c 0,-2 -2,-4 -4,-4 l -4,0 0,-9" clip-path="url(#clipPath5419)" transform="matrix(0.5,0,0,0.5,4.015625,522.19981)" style="fill:url(#linearGradient5408);fill-opacity:1;stroke:#679093;stroke-width:2;stroke-linecap:butt;stroke-linejoin:miter;stroke-miterlimit:4;stroke-opacity:1;stroke-dasharray:none;display:inline"/></g></g></svg>