<svg xmlns="http://www.w3.org/2000/svg" xmlns:svg="http://www.w3.org/2000/svg" xmlns:xlink="http://www.w3.org/1999/xlink" id="svg2" width="16" height="16" version="1.1"><defs id="defs4"><linearGradient id="linearGradient3861"><stop style="stop-color:#caf3f6;stop-opacity:1" id="stop3863" offset="0"/><stop style="stop-color:#fff;stop-opacity:1" id="stop3865" offset="1"/></linearGradient><linearGradient id="linearGradient3867" x1="-11" x2="-11" y1="1054.362" y2="1029.362" gradientTransform="matrix(0.5,0,0,0.5,13.03125,521.1811)" gradientUnits="userSpaceOnUse" xlink:href="#linearGradient3861"/></defs><metadata id="metadata7"/><g id="layer1" transform="translate(0,-1036.3622)" style="display:inline"><g id="g6616"><path style="fill:url(#linearGradient3867);fill-opacity:1;stroke:#679093;stroke-width:1;stroke-linecap:butt;stroke-linejoin:miter;stroke-miterlimit:4;stroke-opacity:1;stroke-dasharray:none" id="path3091" d="m 6.53125,1037.3622 0,4.5 -2,0 c -1,0 -2,1 -2,2 l 0,2 -2,0 0,1 3,3 3,-3 0,-1 -2,0 0,-1 c 0,-0.5 0.5,-1 1,-1 l 4,0 c 0.5,0 1,0.5 1,1 l 0,1 -2,0 0,1 3,3 3,-3 0,-1 -2,0 0,-2 c 0,-1 -1,-2 -2,-2 l -2,0 0,-4.5"/></g></g></svg>