<svg xmlns="http://www.w3.org/2000/svg" xmlns:svg="http://www.w3.org/2000/svg" xmlns:xlink="http://www.w3.org/1999/xlink" id="svg2" width="16" height="16" version="1.1"><defs id="defs4"><linearGradient id="linearGradient3809"><stop style="stop-color:#bbb;stop-opacity:1" id="stop3811" offset="0"/><stop style="stop-color:#eee;stop-opacity:1" id="stop3813" offset="1"/></linearGradient><linearGradient id="linearGradient3809-0"><stop style="stop-color:#bbb;stop-opacity:1" id="stop3811-8" offset="0"/><stop style="stop-color:#eee;stop-opacity:1" id="stop3813-4" offset="1"/></linearGradient><clipPath id="clipPath4586" clipPathUnits="userSpaceOnUse"><g id="g4588"><rect id="rect4590" width="18" height="6" x="0" y="-5" transform="translate(-16,1037.3622)" style="fill:#fff;fill-opacity:1;stroke:#5791d5;stroke-width:1;stroke-linejoin:miter;stroke-miterlimit:4;stroke-opacity:1;stroke-dasharray:none"/><rect id="rect4592" width="18" height="6" x="-16" y="1052.362" style="fill:#fff;fill-opacity:1;stroke:#5791d5;stroke-width:1;stroke-linejoin:miter;stroke-miterlimit:4;stroke-opacity:1;stroke-dasharray:none;display:inline"/></g></clipPath><clipPath id="clipPath4594" clipPathUnits="userSpaceOnUse"><g id="g4596"><rect id="rect4598" width="18" height="6" x="0" y="-5" transform="translate(-16,1037.3622)" style="fill:#fff;fill-opacity:1;stroke:#5791d5;stroke-width:1;stroke-linejoin:miter;stroke-miterlimit:4;stroke-opacity:1;stroke-dasharray:none"/><rect id="rect4600" width="18" height="6" x="-16" y="1052.362" style="fill:#fff;fill-opacity:1;stroke:#5791d5;stroke-width:1;stroke-linejoin:miter;stroke-miterlimit:4;stroke-opacity:1;stroke-dasharray:none;display:inline"/></g></clipPath><clipPath id="clipPath4602" clipPathUnits="userSpaceOnUse"><g id="g4604"><rect id="rect4606" width="18" height="6" x="0" y="-5" transform="translate(-16,1037.3622)" style="fill:#fff;fill-opacity:1;stroke:#5791d5;stroke-width:1;stroke-linejoin:miter;stroke-miterlimit:4;stroke-opacity:1;stroke-dasharray:none"/><rect id="rect4608" width="18" height="6" x="-16" y="1052.362" style="fill:#fff;fill-opacity:1;stroke:#5791d5;stroke-width:1;stroke-linejoin:miter;stroke-miterlimit:4;stroke-opacity:1;stroke-dasharray:none;display:inline"/></g></clipPath><linearGradient id="linearGradient4694" x1="-16" x2="-16" y1="15" y2="3" gradientTransform="matrix(-0.5,0,0,0.5,-13,1040.3622)" gradientUnits="userSpaceOnUse" xlink:href="#linearGradient3809-0"/><linearGradient id="linearGradient4697" x1="-16" x2="-16" y1="15" y2="3" gradientTransform="matrix(0.5,0,0,0.5,-4,1040.3622)" gradientUnits="userSpaceOnUse" xlink:href="#linearGradient3809"/><linearGradient id="linearGradient4774" x1="-16" x2="-16" y1="15" y2="3" gradientTransform="matrix(0.5,0,0,0.5,-4,1040.3622)" gradientUnits="userSpaceOnUse" xlink:href="#linearGradient3809"/><linearGradient id="linearGradient4776" x1="-16" x2="-16" y1="15" y2="3" gradientTransform="matrix(-0.5,0,0,0.5,-13,1040.3622)" gradientUnits="userSpaceOnUse" xlink:href="#linearGradient3809-0"/><linearGradient id="linearGradient4781" x1="-16" x2="-16" y1="15" y2="3" gradientTransform="matrix(-0.5,0,0,0.5,3,1039.3622)" gradientUnits="userSpaceOnUse" xlink:href="#linearGradient3809-0"/><linearGradient id="linearGradient4784" x1="-16" x2="-16" y1="15" y2="3" gradientTransform="matrix(0.5,0,0,0.5,12,1039.3622)" gradientUnits="userSpaceOnUse" xlink:href="#linearGradient3809"/></defs><metadata id="metadata7"/><g id="layer1" transform="translate(0,-1036.3622)" style="display:inline"><g id="g6616"><g id="g4789"><path id="path3947" d="m 0,1033.3622 -14,24" clip-path="url(#clipPath4602)" transform="matrix(0.5,0,0,0.5,11,521.18111)" style="fill:none;stroke:#3f61de;stroke-width:3;stroke-linecap:butt;stroke-linejoin:miter;stroke-miterlimit:4;stroke-opacity:1;stroke-dasharray:none"/><path id="path3947-7" d="m -14,1033.3622 14,24" clip-path="url(#clipPath4594)" transform="matrix(0.5,0,0,0.5,11,521.18111)" style="fill:none;stroke:#3f61de;stroke-width:3;stroke-linecap:butt;stroke-linejoin:miter;stroke-miterlimit:4;stroke-opacity:1;stroke-dasharray:none;display:inline"/><path id="path3967" d="m -6.9999964,1058.3518 0,-25.989" clip-path="url(#clipPath4586)" transform="matrix(0.5,0,0,0.5,11,521.18111)" style="fill:none;stroke:#3f61de;stroke-width:1.99999952;stroke-linecap:butt;stroke-linejoin:miter;stroke-miterlimit:4;stroke-opacity:1;stroke-dasharray:none"/><path id="path3133" d="m 6.5,1040.8622 -2.5,0 c -1.5,0 -2.5,1.5 -2.5,3 l 0,0 c 0,1.5 1,3 2.5,3 l 2.5,0 0,-2 -2,0 c -0.5,0 -1,-0.5 -1,-1 l 0,0 c 0,-0.5 0.5,-1 1,-1 l 2,0 z" style="fill:url(#linearGradient4784);fill-opacity:1;stroke:#555;stroke-width:1;stroke-linecap:butt;stroke-linejoin:miter;stroke-miterlimit:4;stroke-opacity:1;stroke-dasharray:none"/><path id="path3133-7" d="m 8.5,1040.8622 2.5,0 c 1.5,0 2.5,1.5 2.5,3 l 0,0 c 0,1.5 -1,3 -2.5,3 l -2.5,0 0,-2 2,0 c 0.5,0 1,-0.5 1,-1 l 0,0 c 0,-0.5 -0.5,-1 -1,-1 l -2,0 z" style="fill:url(#linearGradient4781);fill-opacity:1;stroke:#555;stroke-width:1;stroke-linecap:butt;stroke-linejoin:miter;stroke-miterlimit:4;stroke-opacity:1;stroke-dasharray:none;display:inline"/></g></g></g></svg>