<svg xmlns="http://www.w3.org/2000/svg" xmlns:svg="http://www.w3.org/2000/svg" xmlns:xlink="http://www.w3.org/1999/xlink" id="svg2" width="16" height="16" version="1.1"><defs id="defs4"><linearGradient id="linearGradient3865"><stop style="stop-color:#fff;stop-opacity:1" id="stop3867" offset="0"/><stop style="stop-color:#f2b4b4;stop-opacity:1" id="stop3869" offset="1"/></linearGradient><linearGradient id="linearGradient3881" x1="-34" x2="-17" y1="14" y2="14" gradientTransform="matrix(0,0.5,0.5,0,-2.4997574,1056.8466)" gradientUnits="userSpaceOnUse" xlink:href="#linearGradient3865"/><linearGradient id="linearGradient4967" x1="673.61" x2="696.684" y1="460.616" y2="460.616" gradientTransform="matrix(0.18200253,0,0,0.17837852,-101.08926,965.35357)" gradientUnits="userSpaceOnUse" xlink:href="#linearGradient5961"/><linearGradient id="linearGradient5961"><stop style="stop-color:#f7e26b;stop-opacity:1" id="stop5963" offset="0"/><stop id="stop5965" offset=".174" style="stop-color:#f7e26b;stop-opacity:1"/><stop id="stop5967" offset=".347" style="stop-color:#fcf89d;stop-opacity:1"/><stop id="stop5969" offset=".5" style="stop-color:#fcf89d;stop-opacity:1"/><stop style="stop-color:#f6e567;stop-opacity:1" id="stop5971" offset=".638"/><stop id="stop5973" offset=".819" style="stop-color:#f1c32f;stop-opacity:1"/><stop style="stop-color:#f1c32f;stop-opacity:1" id="stop5975" offset="1"/></linearGradient><linearGradient id="linearGradient4800-4" x1="5.015" x2="11.813" y1="2.633" y2="2.633" gradientTransform="matrix(0.62622298,0,0,0.66323078,18.378684,1042.69)" gradientUnits="userSpaceOnUse" xlink:href="#linearGradient4794-9"/><linearGradient id="linearGradient4794-9"><stop id="stop4796-8" offset="0" style="stop-color:#c99d19;stop-opacity:1"/><stop style="stop-color:#fcdf98;stop-opacity:1" id="stop4802-2" offset=".389"/><stop id="stop4798-4" offset="1" style="stop-color:#c99d19;stop-opacity:1"/></linearGradient><linearGradient id="linearGradient4721-1"><stop id="stop4723-2" offset="0" style="stop-color:#b5803b;stop-opacity:1"/><stop id="stop4725-1" offset="1" style="stop-color:#c99d19;stop-opacity:1"/></linearGradient><linearGradient id="linearGradient3076" x1="690.186" x2="690.186" y1="484.134" y2="438.441" gradientTransform="matrix(0.17507954,0,0,0.17171181,-96.317048,968.34306)" gradientUnits="userSpaceOnUse" xlink:href="#linearGradient4721-1"/><linearGradient id="linearGradient3102" x1="690.186" x2="690.186" y1="484.134" y2="438.441" gradientTransform="matrix(0.24333435,0,0,0.23481411,-155.68496,936.21515)" gradientUnits="userSpaceOnUse" xlink:href="#linearGradient4721-1"/><linearGradient id="linearGradient3106" x1="673.61" x2="696.684" y1="460.616" y2="460.616" gradientTransform="matrix(0.25295627,0,0,0.24393077,-162.31762,932.12706)" gradientUnits="userSpaceOnUse" xlink:href="#linearGradient5961"/></defs><metadata id="metadata7"/><g id="layer1" transform="translate(0,-1036.3622)" style="display:inline"><path id="path3868-1" d="m 10.966025,1038.803 c -1.9987739,0 -3.5978537,0.5834 -3.5978537,1.3113 l 0,8.7421 c 0,0.7279 1.5990798,1.3113 3.5978537,1.3113 1.998775,0 3.626185,-0.5834 3.626185,-1.3113 l 0,-8.7421 c 0,-0.7279 -1.62741,-1.3113 -3.626185,-1.3113 z" style="fill:url(#linearGradient3106);fill-opacity:1;stroke:none;display:inline"/><ellipse id="path3868" cx="23.628" cy="1044.436" d="m 26.128192,1044.4362 c 0,0.5523 -1.119287,1 -2.499999,1 -1.380712,0 -2.5,-0.4477 -2.5,-1 0,-0.5523 1.119288,-1.0001 2.5,-1.0001 1.380712,0 2.499999,0.4478 2.499999,1.0001 z" rx="2.5" ry="1" transform="matrix(1.3898503,0,0,1.3674896,-21.818685,-387.98391)" style="fill:none;stroke:#c99d19;stroke-width:.75741528999999985;stroke-miterlimit:4;stroke-opacity:1;stroke-dasharray:none;display:inline"/><path id="path3868-1-4" d="m 11.007337,1038.9042 c -1.9227437,0 -3.460998,0.5617 -3.460998,1.2624 l 0,8.4152 c 0,0.7007 1.5382543,1.2624 3.460998,1.2624 1.922747,0 3.488253,-0.5617 3.488253,-1.2624 l 0,-8.4152 c 0,-0.7007 -1.565506,-1.2624 -3.488253,-1.2624 z" style="fill:none;stroke:url(#linearGradient3102);stroke-width:1.04419124;stroke-miterlimit:4;stroke-opacity:1;stroke-dasharray:none;display:inline"/><path style="fill:url(#linearGradient3881);fill-opacity:1;stroke:#d20502;stroke-width:1;stroke-linecap:butt;stroke-linejoin:bevel;stroke-miterlimit:4;stroke-opacity:1;stroke-dasharray:none" id="path3873" d="m 9.0002423,1044.8466 -3.9999996,4 0,-1 0,-2 -4.50000001,0 0,-1 0,-1 4.50000001,0 0,-2 0,-1 z"/></g></svg>