<svg xmlns="http://www.w3.org/2000/svg" xmlns:svg="http://www.w3.org/2000/svg" xmlns:xlink="http://www.w3.org/1999/xlink" id="svg2" width="16" height="16" version="1.1"><defs id="defs4"><linearGradient id="linearGradient4994-6-0"><stop style="stop-color:#f9fafc;stop-opacity:1" id="stop4996-1-2" offset="0"/><stop style="stop-color:#dce7f7;stop-opacity:1" id="stop4998-89-4" offset="1"/></linearGradient><linearGradient id="linearGradient4894-6-3"><stop style="stop-color:#e0c88f;stop-opacity:1" id="stop4896-8-9" offset="0"/><stop style="stop-color:#d5b269;stop-opacity:1" id="stop4898-5-0" offset="1"/></linearGradient><linearGradient id="linearGradient4902-3-2"><stop style="stop-color:#bfb688;stop-opacity:1" id="stop4904-2-2" offset="0"/><stop style="stop-color:#8392b0;stop-opacity:1" id="stop4906-2-7" offset="1"/></linearGradient><linearGradient id="linearGradient4877-6"><stop id="stop4879-1" offset="0" style="stop-color:#91a5c7;stop-opacity:1"/><stop id="stop4881-4" offset="1" style="stop-color:#5e76a3;stop-opacity:1"/></linearGradient><linearGradient id="linearGradient4861-1"><stop style="stop-color:#91a5c7;stop-opacity:1" id="stop4863-1" offset="0"/><stop style="stop-color:#637aa7;stop-opacity:1" id="stop4865-52" offset="1"/></linearGradient><linearGradient id="linearGradient5147-4"><stop id="stop5149-5" offset="0" style="stop-color:#91a5c7;stop-opacity:1"/><stop id="stop5151-5" offset="1" style="stop-color:#637aa7;stop-opacity:1"/></linearGradient><linearGradient id="linearGradient5141-4"><stop id="stop5143-8" offset="0" style="stop-color:#91a5c7;stop-opacity:1"/><stop id="stop5145-8" offset="1" style="stop-color:#637aa7;stop-opacity:1"/></linearGradient><linearGradient id="linearGradient5135-7"><stop id="stop5137-4" offset="0" style="stop-color:#91a5c7;stop-opacity:1"/><stop id="stop5139-0" offset="1" style="stop-color:#637aa7;stop-opacity:1"/></linearGradient><linearGradient id="linearGradient3865"><stop style="stop-color:#fff;stop-opacity:1" id="stop3867" offset="0"/><stop style="stop-color:#72e57f;stop-opacity:1" id="stop3869" offset="1"/></linearGradient><linearGradient id="linearGradient3913" x1="22.519" x2="22.582" y1="1037.484" y2="1043.34" gradientTransform="matrix(-0.99178444,0,0,1.0315414,12.876286,-21.603584)" gradientUnits="userSpaceOnUse" xlink:href="#linearGradient3865"/><linearGradient id="linearGradient3952" x1="7.007" x2="12.016" y1="1051.857" y2="1051.857" gradientTransform="matrix(0.59887213,0,0,0.98971353,5.8036735,7.8254367)" gradientUnits="userSpaceOnUse" xlink:href="#linearGradient5135-7"/><linearGradient id="linearGradient3955" x1="7.007" x2="14" y1="1049.857" y2="1049.857" gradientTransform="matrix(0.28600232,0,0,0.98971353,8.9957177,7.8048115)" gradientUnits="userSpaceOnUse" xlink:href="#linearGradient5141-4"/><linearGradient id="linearGradient3958" x1="7.007" x2="14" y1="1047.857" y2="1047.857" gradientTransform="matrix(0.42900348,0,0,0.98971353,6.9937016,7.7842386)" gradientUnits="userSpaceOnUse" xlink:href="#linearGradient5147-4"/><linearGradient id="linearGradient3961" x1="7.007" x2="14" y1="1045.857" y2="1045.857" gradientTransform="matrix(0.71500577,0,0,0.98971353,2.9899193,7.7636657)" gradientUnits="userSpaceOnUse" xlink:href="#linearGradient4861-1"/><linearGradient id="linearGradient3964" x1="7.007" x2="11" y1="1043.857" y2="1043.857" gradientTransform="matrix(0.75132414,0,0,0.98971353,1.7354348,7.7430927)" gradientUnits="userSpaceOnUse" xlink:href="#linearGradient4877-6"/><linearGradient id="linearGradient3967" x1="10.545" x2="10.545" y1="1038.578" y2="1052.323" gradientTransform="matrix(0.99306758,0,0,1.0031466,-0.9603759,-4.3117383)" gradientUnits="userSpaceOnUse" xlink:href="#linearGradient4902-3-2"/><linearGradient id="linearGradient3970" x1="7.999" x2="9.987" y1="1042.231" y2="1040.33" gradientTransform="matrix(1.0056621,0,0,1.022704,2.9779643,-24.655793)" gradientUnits="userSpaceOnUse" xlink:href="#linearGradient4894-6-3"/><linearGradient id="linearGradient3973" x1="9.895" x2="9.895" y1="1039.153" y2="1051.838" gradientTransform="translate(-0.9785325,-1.043894)" gradientUnits="userSpaceOnUse" xlink:href="#linearGradient4994-6-0"/></defs><metadata id="metadata7"/><g id="layer1" transform="translate(0,-1036.3622)" style="display:inline"><path style="fill:url(#linearGradient3973);fill-opacity:1;stroke:none;display:inline" id="rect4001-3-3" d="m 4.51875,1037.86 7.00967,0 3.062057,3.0066 0,9.9546 -10.071727,0 z"/><path style="fill:url(#linearGradient3970);fill-opacity:1;stroke:none;display:inline" id="path4884-7" d="m 10.99975,1037.3622 0,4 4,0 z"/><path style="fill:none;stroke:url(#linearGradient3967);stroke-width:.99809438;stroke-linecap:butt;stroke-linejoin:miter;stroke-miterlimit:4;stroke-opacity:1;stroke-dashoffset:0;display:inline" id="rect4001-9" d="m 4.4987972,1037.8612 6.9610758,0 3.04083,3.016 0,9.9859 -10.0019058,0 z"/><rect style="fill:url(#linearGradient3964);fill-opacity:1;stroke:none;display:inline" id="rect4001-1" width="3" height="1" x="7" y="1040.362"/><rect style="fill:url(#linearGradient3961);fill-opacity:1;stroke:none;display:inline" id="rect4001-1-7" width="5" height="1" x="8" y="1042.362"/><rect style="fill:url(#linearGradient3958);fill-opacity:1;stroke:none;display:inline" id="rect4001-1-7-4" width="3" height="1" x="10" y="1044.362"/><rect style="fill:url(#linearGradient3955);fill-opacity:1;stroke:none;display:inline" id="rect4001-1-7-4-0" width="2" height="1" x="11" y="1046.362"/><rect style="fill:url(#linearGradient3952);fill-opacity:1;stroke:none;display:inline" id="rect4001-1-7-4-0-9" width="3" height="1" x="10" y="1048.362"/><rect style="opacity:.55603452;fill:#fff;fill-opacity:1;stroke:none" id="rect3892" width="1" height="4.5" x="4" y="1042.362"/><g style="display:inline" id="g4174" transform="translate(-0.984875,0.0159)"><path id="path3887" d="m 2.015875,1046.8463 3.5,-7 3.5,7" style="fill:none;stroke:#005596;stroke-width:1;stroke-linecap:butt;stroke-linejoin:miter;stroke-miterlimit:4;stroke-opacity:1;stroke-dasharray:none"/><path id="path3891" d="m 4.515875,1041.8463 2.5,5 2,0 -3.5,-7 z" style="fill:none;stroke:#005596;stroke-width:1;stroke-linecap:butt;stroke-linejoin:miter;stroke-miterlimit:4;stroke-opacity:1;stroke-dasharray:none"/><path id="path3115" d="m 1.015875,1046.8463 9,0" style="fill:none;stroke:#005596;stroke-width:1;stroke-linecap:butt;stroke-linejoin:miter;stroke-miterlimit:4;stroke-opacity:1;stroke-dasharray:none"/></g><g id="g3909" transform="translate(15.866796,-4.6488344)"><path id="path7582-7" d="m -10.36675,1050.5033 0,-1.6412 c 0,0 0.202294,-0.8663 1.21041,-0.045 1.008115,0.8205 2.191555,2.1427 2.366879,2.5073 0.175324,0.3648 0.885012,0.4359 -0.123105,1.4389 -1.008115,1.0028 -2.103893,2.0514 -2.103893,2.0514 0,0 -1.42075,1.5042 -1.385734,0.091 l 0.03544,-1.4303 c -1.355178,-0.065 -1.829218,0.4944 -2.171441,0.8381 -0.342643,0.3441 -0.805824,1.0329 -1.208737,1.1619 -0.402912,0.1289 -0.619865,-1.2586 -0.619865,-1.7099 0,-0.4513 0.173357,-1.2832 0.712845,-2.0308 0.291132,-0.4035 0.998301,-0.9857 1.51867,-1.1345 0.520368,-0.149 1.768528,-0.097 1.768528,-0.097 z" style="fill:url(#linearGradient3913);fill-opacity:1;stroke:#4a9045;stroke-width:1;stroke-linecap:butt;stroke-linejoin:miter;stroke-miterlimit:4;stroke-opacity:1;stroke-dasharray:none"/><path id="path7602" d="m -9.849074,1050.1053 0,-0.5966 c 0,0 -0.110484,-0.3757 0.220971,-0.2431 0.331456,0.1326 0.972272,0.6629 1.038563,0.7734 0.06629,0.1105 0.751301,0.5966 0.596622,0.8176 -0.15468,0.221 -1.458408,0.066 -1.458408,0.066 z" style="opacity:.85714285;fill:#fff;fill-opacity:1;stroke:none"/></g></g></svg>