<svg xmlns="http://www.w3.org/2000/svg" xmlns:svg="http://www.w3.org/2000/svg" xmlns:xlink="http://www.w3.org/1999/xlink" id="svg2" width="16" height="16" version="1.1"><defs id="defs4"><linearGradient id="linearGradient3861"><stop style="stop-color:#caf3f6;stop-opacity:1" id="stop3863" offset="0"/><stop style="stop-color:#fff;stop-opacity:1" id="stop3865" offset="1"/></linearGradient><linearGradient id="linearGradient3867" x1="-11" x2="-11" y1="1054.362" y2="1029.362" gradientTransform="matrix(0.5,0,0,0.5,13.03125,521.1811)" gradientUnits="userSpaceOnUse" xlink:href="#linearGradient3861"/><linearGradient id="linearGradient4844-4"><stop id="stop4846-8" offset="0" style="stop-color:#414141;stop-opacity:1"/><stop id="stop4848-8" offset="1" style="stop-color:#535353;stop-opacity:1"/></linearGradient><linearGradient id="x-bg" x1="4.753" x2="4.753" y1="1051.047" y2="1038.581" gradientTransform="matrix(0.47199644,0,0,0.47199414,7.4742532,550.36311)" gradientUnits="userSpaceOnUse" xlink:href="#x-bg-3"/><linearGradient id="x-bg-3"><stop id="x-bg-stop0" offset="0" style="stop-color:#df2c33;stop-opacity:1"/><stop id="x-bg-stop1" offset="1" style="stop-color:#f5817d;stop-opacity:1"/></linearGradient><linearGradient id="x-stroke" x1="8.657" x2="8.657" y1="1050.739" y2="1037.7" gradientTransform="matrix(0.47199644,0,0,0.47199414,7.4742532,550.36311)" gradientUnits="userSpaceOnUse" xlink:href="#x-stroke-6"/><linearGradient id="x-stroke-6"><stop id="x-stroke-stop0" offset="0" style="stop-color:#c51325;stop-opacity:1"/><stop id="x-stroke-stop1" offset="1" style="stop-color:#ca5d49;stop-opacity:1"/></linearGradient></defs><metadata id="metadata7"/><g id="layer1" transform="translate(0,-1036.3622)" style="display:inline"><g id="g6616"><path style="fill:url(#linearGradient3867);fill-opacity:1;stroke:#679093;stroke-width:1;stroke-linecap:butt;stroke-linejoin:miter;stroke-miterlimit:4;stroke-opacity:1;stroke-dasharray:none" id="path3091" d="m 6.53125,1037.3622 0,4.5 -2,0 c -1,0 -2,1 -2,2 l 0,2 -2,0 0,1 3,3 3,-3 0,-1 -2,0 0,-1 c 0,-0.5 0.5,-1 1,-1 l 4,0 c 0.5,0 1,0.5 1,1 l 0,1 -2,0 0,1 3,3 3,-3 0,-1 -2,0 0,-2 c 0,-1 -1,-2 -2,-2 l -2,0 0,-4.5"/><path id="x-0" d="m 13.808113,1040.6023 c -0.220982,-0.2209 -0.576769,-0.2209 -0.797739,0 l -1.469229,1.4694 -1.469216,-1.4694 c -0.2209502,-0.2209 -0.5767696,-0.2209 -0.7977394,0 l -0.4059426,0.4059 c -0.2209596,0.2211 -0.2209544,0.5769 1.74e-5,0.7979 l 1.4691946,1.4692 -1.4691976,1.4691 c -0.2209914,0.221 -0.2209873,0.5768 -6.2e-6,0.7978 l 0.4059652,0.4058 c 0.2209564,0.2212 0.5767434,0.2212 0.7977376,0 l 1.46922,-1.4691 1.479428,1.4794 c 0.220958,0.2212 0.576745,0.2212 0.797739,0 l 0.405941,-0.4058 c 0.220971,-0.221 0.218752,-0.5746 -1.5e-5,-0.7977 l -1.47943,-1.4795 1.469221,-1.4692 c 0.220978,-0.221 0.220972,-0.5768 1.4e-5,-0.7979 z" style="display:inline;fill:url(#x-bg);fill-opacity:1;stroke:url(#x-stroke);stroke-width:.46284017;stroke-linecap:round;stroke-linejoin:miter;stroke-miterlimit:4;stroke-dasharray:none;stroke-dashoffset:0;stroke-opacity:1"><title id="title3202-1">x</title></path></g></g></svg>