<svg xmlns="http://www.w3.org/2000/svg" xmlns:svg="http://www.w3.org/2000/svg" xmlns:xlink="http://www.w3.org/1999/xlink" id="svg2" width="16" height="16" version="1.1"><defs id="defs4"><linearGradient id="linearGradient4029-5"><stop style="stop-color:#ffd461;stop-opacity:1" id="stop4031-5" offset="0"/><stop id="stop3909" offset="1" style="stop-color:#fff;stop-opacity:1"/></linearGradient><linearGradient id="linearGradient3884" x1="-14" x2="-14" y1="32" y2="2" gradientTransform="matrix(0.5,0,0,0.5,14.5,1038.3622)" gradientUnits="userSpaceOnUse" xlink:href="#linearGradient4029-5"/></defs><metadata id="metadata7"/><g id="layer1" transform="translate(0,-1036.3622)" style="display:inline"><g id="g6616"><path style="fill:url(#linearGradient3884);fill-opacity:1;stroke:#ac7e1e;stroke-width:1;stroke-linecap:butt;stroke-linejoin:miter;stroke-miterlimit:4;stroke-opacity:1;stroke-dasharray:none" id="path2989" d="m 2.5,1038.8622 0,3 c 0,1 1,2 2,2 l 2,0 0,3 -2,0 0,1 3,3 3,-3 0,-1 -2,0 0,-3 2,0 c 1,0 2,-1 2,-2 l 0,-3 m -2,0 0,2 c 0,0.5 -0.5,1 -1,1 l -4,0 c -0.5,0 -1,-0.5 -1,-1 l 0,-2"/></g></g></svg>