<svg xmlns="http://www.w3.org/2000/svg" xmlns:svg="http://www.w3.org/2000/svg" xmlns:xlink="http://www.w3.org/1999/xlink" id="svg2" width="16" height="16" version="1.1"><defs id="defs4"><linearGradient id="linearGradient4772"><stop style="stop-color:#757c8a;stop-opacity:1" id="stop4774" offset="0"/><stop id="stop4016" offset="1" style="stop-color:#9f9ea5;stop-opacity:1"/></linearGradient><linearGradient id="linearGradient4830"><stop style="stop-color:#2e49b0;stop-opacity:1" id="stop4832" offset="0"/><stop id="stop4836" offset=".5" style="stop-color:#565f9e;stop-opacity:1"/><stop style="stop-color:#8591c8;stop-opacity:0" id="stop4834" offset="1"/></linearGradient><linearGradient id="linearGradient4762"><stop style="stop-color:#93b6eb;stop-opacity:1" id="stop4764" offset="0"/><stop style="stop-color:#b0dffc;stop-opacity:1" id="stop4766" offset="1"/></linearGradient><linearGradient id="linearGradient3967"><stop id="stop3969" offset="0" style="stop-color:#84909f;stop-opacity:1"/><stop id="stop3971" offset="1" style="stop-color:#757c8a;stop-opacity:1"/></linearGradient><linearGradient id="linearGradient3955"><stop id="stop3957" offset="0" style="stop-color:#c38536;stop-opacity:0"/><stop style="stop-color:#f2dc91;stop-opacity:1" id="stop3959" offset=".154"/><stop style="stop-color:#fbdc8b;stop-opacity:1" id="stop3961" offset=".5"/><stop id="stop3963" offset=".75" style="stop-color:#e6bd7a;stop-opacity:1"/><stop id="stop3965" offset="1" style="stop-color:#ba772f;stop-opacity:0"/></linearGradient><mask id="mask4917" maskUnits="userSpaceOnUse"><path style="fill:#fff;fill-opacity:1;stroke:#fff;stroke-width:2;stroke-linecap:round;stroke-linejoin:round;stroke-miterlimit:4;stroke-opacity:1;stroke-dashoffset:0;display:inline" id="path4919" d="m 462.77563,373.22885 29.11636,0 c 1.45425,0 2.625,1.17075 2.625,2.625 l 0,18.76896 c 0,1.45425 -1.17412,2.52598 -2.625,2.625 l -29.11636,1.98708 c -1.45088,0.099 -2.625,-1.17075 -2.625,-2.625 l 0,-20.75604 c 0,-1.45425 1.17075,-2.625 2.625,-2.625 z"/></mask><linearGradient id="linearGradient3967-0"><stop id="stop3969-6" offset="0" style="stop-color:#84909f;stop-opacity:1"/><stop id="stop3971-5" offset="1" style="stop-color:#757c8a;stop-opacity:1"/></linearGradient><linearGradient id="linearGradient4000" x1="548.459" x2="548.459" y1="398.988" y2="373.771" gradientTransform="matrix(1.287556,0,0,1.1726082,-201.54297,-81.116324)" gradientUnits="userSpaceOnUse" xlink:href="#linearGradient4830"/><linearGradient id="linearGradient4003" x1="410.387" x2="410.387" y1="-420.795" y2="-363.454" gradientTransform="matrix(0.537222,0,0,0.5508921,270.55379,-154.60356)" gradientUnits="userSpaceOnUse" xlink:href="#linearGradient4762"/><linearGradient id="linearGradient4005" x1="529.219" x2="531.093" y1="366.789" y2="371.179" gradientTransform="matrix(2.8670447,0,0,1.9401045,-1035.9929,-1098.8633)" gradientUnits="userSpaceOnUse" xlink:href="#linearGradient3967-0"/><linearGradient id="linearGradient4008" x1="523.008" x2="543.914" y1="373.229" y2="373.229" gradientTransform="matrix(1.2792978,0,0,1.0977854,-197.28702,-53.32107)" gradientUnits="userSpaceOnUse" xlink:href="#linearGradient3955"/><linearGradient id="linearGradient4011" x1="529.219" x2="531.093" y1="366.789" y2="371.179" gradientTransform="matrix(1.1934977,0,0,1.1846234,-150.02132,-801.84604)" gradientUnits="userSpaceOnUse" xlink:href="#linearGradient3967"/><linearGradient id="linearGradient4014" x1="392.468" x2="446.225" y1="356.287" y2="356.287" gradientTransform="translate(71.676155,7.75e-4)" gradientUnits="userSpaceOnUse" xlink:href="#linearGradient4772"/><linearGradient id="linearGradient4452" x1="503.566" x2="503.566" y1="395.709" y2="374.206" gradientTransform="translate(0,3.5837847)" gradientUnits="userSpaceOnUse" xlink:href="#linearGradient4275"/><linearGradient id="linearGradient4275"><stop style="stop-color:#d3eef7;stop-opacity:1" id="stop4277" offset="0"/><stop style="stop-color:#fff;stop-opacity:1" id="stop4279" offset="1"/></linearGradient><linearGradient id="linearGradient3191" x1="503.566" x2="503.566" y1="395.709" y2="374.206" gradientTransform="matrix(1.375,0,0,1.3333333,-194.88499,-127.72179)" gradientUnits="userSpaceOnUse" xlink:href="#linearGradient4275"/><linearGradient id="linearGradient3959" x1="-22" x2="-22" y1="24" y2="12" gradientTransform="matrix(0.5,0,0,0.5,-14,1046.8622)" gradientUnits="userSpaceOnUse" xlink:href="#linearGradient4029-5"/><linearGradient id="linearGradient4029-5"><stop style="stop-color:#ffd461;stop-opacity:1" id="stop4031-5" offset="0"/><stop id="stop3909" offset="1" style="stop-color:#fff;stop-opacity:1"/></linearGradient></defs><metadata id="metadata7"/><g id="layer1" transform="translate(0,-1036.3622)" style="display:inline"><g style="display:inline" id="g13862" transform="matrix(0.27903303,0,0,0.27903303,-129.51159,939.94639)"><rect style="fill:url(#linearGradient4014);fill-opacity:1;stroke:none" id="rect3978" width="53.757" height="7.168" x="464.144" y="352.704"/><rect id="rect13693-3" width="17.902" height="19.694" x="476.696" y="-367.031" rx="3.133" ry="3.11" transform="scale(1,-1)" style="fill:#fdf7eb;fill-opacity:1;stroke:url(#linearGradient4011);stroke-width:3.60036659;stroke-linecap:round;stroke-linejoin:round;stroke-miterlimit:4;stroke-opacity:1;stroke-dasharray:none;stroke-dashoffset:0;display:inline"/><rect id="rect13693-3-7" width="43.006" height="32.254" x="469.52" y="-386.749" rx="4.175" ry="4.281" transform="scale(1,-1)" style="fill:url(#linearGradient4003);fill-opacity:1;stroke:url(#linearGradient4005);stroke-width:3.58380485;stroke-linecap:round;stroke-linejoin:round;stroke-miterlimit:4;stroke-opacity:1;stroke-dasharray:none;stroke-dashoffset:0;display:inline"/><path id="rect13693-8" d="m 472.96837,354.49498 36.11056,0 c 1.87243,0 3.37504,1.37283 3.37983,3.07809 l 0.0668,23.77904 c 0.0101,3.58988 -1.79183,5.38345 -5.37548,5.38482 l -32.25461,0.0123 c -3.58521,10e-4 -5.38582,-1.79494 -5.37548,-5.38481 l 0.0685,-23.79124 c 0.005,-1.70526 1.5074,-3.07808 3.37983,-3.07808 z" style="fill:none;stroke:url(#linearGradient4000);stroke-width:3.58380508;stroke-linecap:round;stroke-linejoin:round;stroke-miterlimit:4;stroke-opacity:1;stroke-dasharray:none;stroke-dashoffset:0;display:inline"/><path id="path13797" d="m 472.24058,354.49498 25.02113,0" style="fill:none;stroke:url(#linearGradient4008);stroke-width:3.6481905;stroke-linecap:butt;stroke-linejoin:miter;stroke-miterlimit:4;stroke-opacity:1;stroke-dasharray:none"/><rect style="opacity:.55603452;fill:#fff;fill-opacity:1;stroke:none" id="rect3477" width="39.226" height="25.043" x="475.091" y="363.498"/><rect style="fill:url(#linearGradient3191);fill-opacity:1;stroke:#757c8a;stroke-width:3.58380508;stroke-opacity:1" id="rect4247" width="39.422" height="28.67" x="480.271" y="368.83"/><rect style="fill:#000;fill-opacity:1;stroke:none" id="rect4249" width="3.584" height="17.919" x="489.231" y="374.206"/><rect style="fill:#000;fill-opacity:1;stroke:none" id="rect4251" width="3.584" height="3.584" x="507.15" y="374.206"/><rect style="fill:#000;fill-opacity:1;stroke:none" id="rect4253" width="3.584" height="10.751" x="503.566" y="377.79"/><rect style="fill:#000;fill-opacity:1;stroke:none" id="rect4257" width="3.584" height="10.751" x="510.734" y="377.79"/><rect style="fill:#757c8a;fill-opacity:1;stroke:none" id="rect4259" width="3.584" height="3.584" x="510.734" y="374.206"/><rect style="fill:#757c8a;fill-opacity:1;stroke:none" id="rect4261" width="3.584" height="3.584" x="503.566" y="374.206"/><rect style="fill:#757c8a;fill-opacity:1;stroke:none" id="rect4263" width="3.584" height="3.584" x="503.566" y="388.541"/><rect style="fill:#757c8a;fill-opacity:1;stroke:none" id="rect4265" width="3.584" height="3.584" x="485.647" y="374.206"/><rect style="fill:#000;fill-opacity:1;stroke:none;display:inline" id="rect4251-8" width="3.584" height="3.584" x="496.399" y="388.541"/><rect style="fill:#000;fill-opacity:1;stroke:none;display:inline" id="rect4251-0" width="3.584" height="3.584" x="507.15" y="388.541"/><rect style="fill:#757c8a;fill-opacity:1;stroke:none;display:inline" id="rect4263-4" width="3.584" height="3.584" x="510.734" y="388.541"/><g style="display:inline" id="g3969" transform="matrix(3.5838051,0,0,3.5838051,596.74509,-3425.9255)"><path id="path3165" d="m -25.5,1052.8622 0,2 -2,0 0,2 2,0 0,2 2,0 0,-2 2,0 0,-2 -2,0 0,-2 z" style="fill:url(#linearGradient3959);fill-opacity:1;stroke:#ac7e1e;stroke-width:1px;stroke-linecap:butt;stroke-linejoin:bevel;stroke-opacity:1"/><rect id="rect3961" width="1" height="1" x="-24" y="18" transform="translate(0,1036.3622)" style="fill:#ac7e1e;fill-opacity:1;stroke:none"/><rect id="rect3963" width="1" height="1" x="-26" y="18" transform="translate(0,1036.3622)" style="fill:#ac7e1e;fill-opacity:1;stroke:none"/><rect id="rect3965" width="1" height="1" x="-26" y="20" transform="translate(0,1036.3622)" style="fill:#ac7e1e;fill-opacity:1;stroke:none"/><rect id="rect3967" width="1" height="1" x="-24" y="20" transform="translate(0,1036.3622)" style="fill:#ac7e1e;fill-opacity:1;stroke:none"/></g></g></g></svg>