<svg xmlns="http://www.w3.org/2000/svg" xmlns:svg="http://www.w3.org/2000/svg" xmlns:xlink="http://www.w3.org/1999/xlink" id="svg2" width="16" height="16" version="1.1"><defs id="defs4"><linearGradient id="linearGradient4029"><stop style="stop-color:#ffd461;stop-opacity:1" id="stop4031" offset="0"/><stop id="stop4037" offset=".733" style="stop-color:#ffd461;stop-opacity:1"/><stop style="stop-color:#fff;stop-opacity:1" id="stop4033" offset="1"/></linearGradient><linearGradient id="linearGradient3950"><stop style="stop-color:#e3a300;stop-opacity:1" id="stop3952" offset="0"/><stop style="stop-color:#f1ae00;stop-opacity:1" id="stop3954" offset="1"/></linearGradient><linearGradient id="linearGradient4151" x1="-16.531" x2="-1.531" y1="5.578" y2="5.578" gradientTransform="translate(17.03125,1036.4192)" gradientUnits="userSpaceOnUse" xlink:href="#linearGradient3950"/><radialGradient id="radialGradient4159" cx="-14.007" cy="12.162" r="8" fx="-14.007" fy="12.162" gradientTransform="matrix(0.60743689,-0.87123513,1.7049886,1.1887409,-5.7084862,1020.6615)" gradientUnits="userSpaceOnUse" xlink:href="#linearGradient4029"/><linearGradient id="linearGradient3865"><stop style="stop-color:#fff;stop-opacity:1" id="stop3867" offset="0"/><stop style="stop-color:#72e57f;stop-opacity:1" id="stop3869" offset="1"/></linearGradient><linearGradient id="linearGradient3074" x1="-24" x2="-24" y1="31" y2="-3" gradientTransform="matrix(0,0.5,-0.5,0,12,1060.8622)" gradientUnits="userSpaceOnUse" xlink:href="#linearGradient3865"/></defs><metadata id="metadata7"/><g id="layer1" transform="translate(0,-1036.3622)" style="display:inline"><path style="fill:url(#radialGradient4159);fill-opacity:1;stroke:url(#linearGradient4151);stroke-width:1;stroke-linejoin:round;stroke-miterlimit:4;stroke-dasharray:none" id="path4126" d="m 7.5625,1036.8879 c -1.65042,0 -3.002266,1.0105 -3.15625,2.2813 -0.683002,0.4569 -1.15625,1.3946 -1.15625,2.4687 0,0.1348 0.017015,0.2454 0.03125,0.375 -0.135485,-0.025 -0.263881,-0.031 -0.40625,-0.031 -1.313283,0 -2.375,1.077 -2.375,2.4375 0,1.3604 1.061717,2.4687 2.375,2.4687 0.258497,0 0.485743,-0.046 0.71875,-0.125 0.984266,0.2211 2.200554,0.3438 3.53125,0.3438 1.5485078,0 2.951526,-0.1786 4,-0.4688 0.411138,0.2443 0.880939,0.4063 1.375,0.4063 1.659297,0 3,-1.55 3,-3.4688 0,-1.9188 -1.340703,-3.5 -3,-3.5 -0.27655,0 -0.558178,0.075 -0.8125,0.1563 -0.04958,-0.3956 -0.415551,-0.7217 -0.96875,-0.9375 -0.08143,-1.3268 -1.4549558,-2.4063 -3.15625,-2.4063 z"/><path style="fill:url(#linearGradient3074);fill-opacity:1;stroke:#4a9045;stroke-width:1;stroke-linecap:butt;stroke-linejoin:bevel;stroke-miterlimit:4;stroke-opacity:1;stroke-dasharray:none;display:inline" id="path3873" d="m 0.5,1048.8622 4,4 0,-1 0,-2 4,0 0,-3.5 0,-3 -1,-0.5 -1,0.5 0,4.5 -2,0 0,-2 0,-1 z"/></g></svg>