<svg xmlns="http://www.w3.org/2000/svg" xmlns:svg="http://www.w3.org/2000/svg" xmlns:xlink="http://www.w3.org/1999/xlink" id="svg2" width="16" height="16" version="1.1"><defs id="defs4"><linearGradient id="linearGradient5103"><stop style="stop-color:#fefdef;stop-opacity:1" id="stop5105" offset="0"/><stop style="stop-color:#fce69e;stop-opacity:1" id="stop5107" offset="1"/></linearGradient><linearGradient id="linearGradient5103-2"><stop style="stop-color:#f6feff;stop-opacity:1" id="stop5105-6" offset="0"/><stop style="stop-color:#caf3f6;stop-opacity:1" id="stop5107-6" offset="1"/></linearGradient><linearGradient id="linearGradient3168" x1="11.906" x2="11.906" y1="1042.362" y2="1047.268" gradientTransform="matrix(-1,0,0,1,15.98823,2.0202772)" gradientUnits="userSpaceOnUse" xlink:href="#linearGradient5103-2"/><linearGradient id="linearGradient3942" x1="11.906" x2="11.906" y1="1042.362" y2="1047.268" gradientTransform="translate(0,-1.9995401)" gradientUnits="userSpaceOnUse" xlink:href="#linearGradient5103"/></defs><metadata id="metadata7"/><g id="layer1" transform="translate(0,-1036.3622)" style="display:inline"><path style="fill:url(#linearGradient3942);fill-opacity:1;stroke:none;display:inline" id="path4108-1" d="m 7,1042.3622 0,1 5,5e-4 0,2 2.999893,-2.5 -2.999893,-2.5 0,2 z"/><path style="fill:#b57a13;fill-opacity:1;stroke:none;display:inline" id="path4108-1-6" d="m 11,1039.3627 0,2 -3,-5e-4 -1,0 c -0.9918497,0.9918 -0.9863244,2.0137 0,3 l 1,0 3,5e-4 0,2 c 0,0.6519 0.740915,0.6375 1.5,0 l 3.9375,-3.5 -3.9375,-3.5 c -0.760225,-0.7602 -1.5,-0.5203 -1.5,0 z m 1,1 3,2.5 -3,2.5 0,-2 -4.4375,-5e-4 c -0.2762136,-0.2099 -0.2774437,-0.7282 0,-1 l 4.4375,5e-4 z"/><path style="fill:url(#linearGradient3168);fill-opacity:1;stroke:none;display:inline" id="path4108-1-8" d="m 8.98823,1046.382 0,1 -5,5e-4 0,2 -2.999893,-2.5 2.999893,-2.5 0,2 z"/><path style="fill:#567f82;fill-opacity:1;stroke:none;display:inline" id="path4108-1-6-4" d="m 4.98823,1043.3825 0,2 3,-5e-4 1,0 c 0.9918497,0.9918 0.9863244,2.0137 0,3 l -1,0 -3,5e-4 0,2 c 0,0.6519 -0.740915,0.6375 -1.5,0 l -3.9375,-3.5 3.9375,-3.5 c 0.760225,-0.7602 1.5,-0.5203 1.5,0 z m -1,1 -3,2.5 3,2.5 0,-2 4.4375,-5e-4 c 0.2762136,-0.2099 0.2774437,-0.7282 0,-1 l -4.4375,5e-4 z"/></g></svg>