<svg xmlns="http://www.w3.org/2000/svg" xmlns:svg="http://www.w3.org/2000/svg" xmlns:xlink="http://www.w3.org/1999/xlink" id="svg2" width="16" height="16" version="1.1"><defs id="defs4"><linearGradient id="linearGradient4994-6-0"><stop style="stop-color:#f9fafc;stop-opacity:1" id="stop4996-1-2" offset="0"/><stop style="stop-color:#dce7f7;stop-opacity:1" id="stop4998-89-4" offset="1"/></linearGradient><linearGradient id="linearGradient4894-6-3"><stop style="stop-color:#e0c88f;stop-opacity:1" id="stop4896-8-9" offset="0"/><stop style="stop-color:#d5b269;stop-opacity:1" id="stop4898-5-0" offset="1"/></linearGradient><linearGradient id="linearGradient4902-3-2"><stop style="stop-color:#bfb688;stop-opacity:1" id="stop4904-2-2" offset="0"/><stop style="stop-color:#8392b0;stop-opacity:1" id="stop4906-2-7" offset="1"/></linearGradient><linearGradient id="linearGradient4877-6"><stop id="stop4879-1" offset="0" style="stop-color:#91a5c7;stop-opacity:1"/><stop id="stop4881-4" offset="1" style="stop-color:#5e76a3;stop-opacity:1"/></linearGradient><linearGradient id="linearGradient4861-1"><stop style="stop-color:#91a5c7;stop-opacity:1" id="stop4863-1" offset="0"/><stop style="stop-color:#637aa7;stop-opacity:1" id="stop4865-52" offset="1"/></linearGradient><linearGradient id="linearGradient5147-4"><stop id="stop5149-5" offset="0" style="stop-color:#91a5c7;stop-opacity:1"/><stop id="stop5151-5" offset="1" style="stop-color:#637aa7;stop-opacity:1"/></linearGradient><linearGradient id="linearGradient5141-4"><stop id="stop5143-8" offset="0" style="stop-color:#91a5c7;stop-opacity:1"/><stop id="stop5145-8" offset="1" style="stop-color:#637aa7;stop-opacity:1"/></linearGradient><linearGradient id="linearGradient5135-7"><stop id="stop5137-4" offset="0" style="stop-color:#91a5c7;stop-opacity:1"/><stop id="stop5139-0" offset="1" style="stop-color:#637aa7;stop-opacity:1"/></linearGradient><linearGradient id="linearGradient12292" x1="-11.211" x2="-8.701" y1="1042.16" y2="1044.67" gradientTransform="translate(20,0)" gradientUnits="userSpaceOnUse" xlink:href="#linearGradient4908-52-3-2-6"/><linearGradient id="linearGradient4908-52-3-2-6"><stop id="stop4910-7-2-7-1" offset="0" style="stop-color:#986443;stop-opacity:1"/><stop id="stop4912-6-2-9-49" offset="1" style="stop-color:#994f1b;stop-opacity:1"/></linearGradient><filter id="filter5428-3" color-interpolation-filters="sRGB"><feGaussianBlur id="feGaussianBlur5430-8" stdDeviation=".222"/></filter><linearGradient id="linearGradient12294" x1="-.981" x2="1.984" y1="1047.424" y2="1050.319" gradientTransform="translate(4,-1036.3622)" gradientUnits="userSpaceOnUse" xlink:href="#linearGradient5077-5-3"/><linearGradient id="linearGradient5077-5-3"><stop id="stop5079-7-3" offset="0" style="stop-color:#e4cf94;stop-opacity:1"/><stop style="stop-color:#ede0ba;stop-opacity:1" id="stop5087-6-7" offset=".322"/><stop style="stop-color:#c1aa7e;stop-opacity:1" id="stop5085-1-30" offset=".648"/><stop id="stop5081-8-1" offset="1" style="stop-color:#ad8865;stop-opacity:1"/></linearGradient><linearGradient id="linearGradient12296" x1="2.656" x2="4.082" y1="1049.398" y2="1050.53" gradientUnits="userSpaceOnUse" xlink:href="#linearGradient5300-8"/><linearGradient id="linearGradient5300-8"><stop id="stop5302-7" offset="0" style="stop-color:#4d4d4d;stop-opacity:1"/><stop style="stop-color:#727272;stop-opacity:1" id="stop5308-8" offset=".294"/><stop id="stop5304-9" offset="1" style="stop-color:#4d4d4d;stop-opacity:1"/></linearGradient><linearGradient id="linearGradient12298" x1="29.095" x2="32.28" y1=".031" y2=".031" gradientTransform="translate(3.3308581e-7,1037.1136)" gradientUnits="userSpaceOnUse" xlink:href="#linearGradient12144"/><linearGradient id="linearGradient12144"><stop style="stop-color:#ca9189;stop-opacity:1" id="stop12146" offset="0"/><stop id="stop12154" offset=".25" style="stop-color:#f5b9ac;stop-opacity:1"/><stop id="stop12152" offset=".5" style="stop-color:#f5b9ac;stop-opacity:1"/><stop style="stop-color:#bd847e;stop-opacity:1" id="stop12148" offset="1"/></linearGradient><linearGradient id="linearGradient12300" x1="29.15" x2="32.162" y1="1.047" y2="1.047" gradientUnits="userSpaceOnUse" xlink:href="#linearGradient12204"/><linearGradient id="linearGradient12204"><stop style="stop-color:#f5b9ac;stop-opacity:1" id="stop12206" offset="0"/><stop id="stop12214" offset=".25" style="stop-color:#f7cec5;stop-opacity:1"/><stop id="stop12212" offset=".5" style="stop-color:#f7ccc3;stop-opacity:1"/><stop style="stop-color:#f5b9ac;stop-opacity:1" id="stop12208" offset="1"/></linearGradient><linearGradient id="linearGradient3145" x1="9.895" x2="9.895" y1="1039.153" y2="1051.838" gradientTransform="translate(-1.9782825,-1.043894)" gradientUnits="userSpaceOnUse" xlink:href="#linearGradient4994-6-0"/><linearGradient id="linearGradient3147" x1="7.999" x2="9.987" y1="1042.231" y2="1040.33" gradientTransform="matrix(1.0056621,0,0,1.022704,1.9782143,-24.655793)" gradientUnits="userSpaceOnUse" xlink:href="#linearGradient4894-6-3"/><linearGradient id="linearGradient3149" x1="10.545" x2="10.545" y1="1038.578" y2="1052.323" gradientTransform="matrix(0.99306758,0,0,1.0031466,-1.9601259,-4.3117383)" gradientUnits="userSpaceOnUse" xlink:href="#linearGradient4902-3-2"/><linearGradient id="linearGradient3151" x1="7.007" x2="11" y1="1043.857" y2="1043.857" gradientTransform="matrix(1.0017655,0,0,0.98971353,-2.01942,7.7430927)" gradientUnits="userSpaceOnUse" xlink:href="#linearGradient4877-6"/><linearGradient id="linearGradient3153" x1="7.007" x2="14" y1="1045.857" y2="1045.857" gradientTransform="matrix(1.0010081,0,0,0.98971353,-2.0141129,7.7636657)" gradientUnits="userSpaceOnUse" xlink:href="#linearGradient4861-1"/><linearGradient id="linearGradient3155" x1="7.007" x2="14" y1="1047.857" y2="1047.857" gradientTransform="matrix(1.0010081,0,0,0.98971353,-2.0141129,7.7842386)" gradientUnits="userSpaceOnUse" xlink:href="#linearGradient5147-4"/><linearGradient id="linearGradient3157" x1="7.007" x2="14" y1="1049.857" y2="1049.857" gradientTransform="matrix(1.0010081,0,0,0.98971353,-2.0141131,7.8048115)" gradientUnits="userSpaceOnUse" xlink:href="#linearGradient5141-4"/><linearGradient id="linearGradient3159" x1="7.007" x2="12.016" y1="1051.857" y2="1051.857" gradientTransform="matrix(1.3973683,0,0,0.98971353,-4.7914284,7.8253845)" gradientUnits="userSpaceOnUse" xlink:href="#linearGradient5135-7"/><mask id="mask7584" maskUnits="userSpaceOnUse"><path id="path7586" d="m 1.5076731,1040.8978 13.0019249,0 0,10.9667 -13.0019248,0 z" style="fill:#fff;fill-opacity:1;stroke:#fff;stroke-width:1;stroke-linecap:butt;stroke-linejoin:miter;stroke-miterlimit:4;stroke-opacity:1;stroke-dashoffset:0;display:inline"/></mask><filter id="filter8356" width="1.48" height="1.48" x="-.24" y="-.24" color-interpolation-filters="sRGB"><feGaussianBlur id="feGaussianBlur8358" stdDeviation=".909"/></filter><linearGradient id="linearGradient3104" x1="9.895" x2="9.895" y1="1039.153" y2="1051.838" gradientTransform="translate(-1.9782825,-1.043894)" gradientUnits="userSpaceOnUse" xlink:href="#linearGradient4994-6-0"/><linearGradient id="linearGradient3107" x1="7.999" x2="9.987" y1="1042.231" y2="1040.33" gradientTransform="matrix(1.0056621,0,0,1.022704,1.9782143,-24.655793)" gradientUnits="userSpaceOnUse" xlink:href="#linearGradient4894-6-3"/><linearGradient id="linearGradient3110" x1="10.545" x2="10.545" y1="1038.578" y2="1052.323" gradientTransform="matrix(0.99306758,0,0,1.0031466,-1.9601259,-4.3117383)" gradientUnits="userSpaceOnUse" xlink:href="#linearGradient4902-3-2"/><linearGradient id="linearGradient3113" x1="7.007" x2="11" y1="1043.857" y2="1043.857" gradientTransform="matrix(1.0017655,0,0,0.98971353,-2.01942,7.7430927)" gradientUnits="userSpaceOnUse" xlink:href="#linearGradient4877-6"/><linearGradient id="linearGradient3116" x1="7.007" x2="14" y1="1045.857" y2="1045.857" gradientTransform="matrix(1.0010081,0,0,0.98971353,-2.0141129,7.7636657)" gradientUnits="userSpaceOnUse" xlink:href="#linearGradient4861-1"/><linearGradient id="linearGradient3119" x1="7.007" x2="14" y1="1047.857" y2="1047.857" gradientTransform="matrix(1.0010081,0,0,0.98971353,-2.0141129,7.7842386)" gradientUnits="userSpaceOnUse" xlink:href="#linearGradient5147-4"/><linearGradient id="linearGradient3121" x1="7.007" x2="14" y1="1049.857" y2="1049.857" gradientTransform="matrix(1.0010081,0,0,0.98971353,-2.0141131,7.8048115)" gradientUnits="userSpaceOnUse" xlink:href="#linearGradient5141-4"/><linearGradient id="linearGradient3123" x1="7.007" x2="12.016" y1="1051.857" y2="1051.857" gradientTransform="matrix(1.3973683,0,0,0.98971353,-4.7914284,7.8253845)" gradientUnits="userSpaceOnUse" xlink:href="#linearGradient5135-7"/><linearGradient id="linearGradient3125" x1="-11.211" x2="-8.701" y1="1042.16" y2="1044.67" gradientTransform="translate(20,0)" gradientUnits="userSpaceOnUse" xlink:href="#linearGradient4908-52-3-2-6"/><linearGradient id="linearGradient3127" x1="-.981" x2="1.984" y1="1047.424" y2="1050.319" gradientTransform="translate(4,-1036.3622)" gradientUnits="userSpaceOnUse" xlink:href="#linearGradient5077-5-3"/><linearGradient id="linearGradient3129" x1="2.656" x2="4.082" y1="1049.398" y2="1050.53" gradientUnits="userSpaceOnUse" xlink:href="#linearGradient5300-8"/><linearGradient id="linearGradient3131" x1="29.095" x2="32.28" y1=".031" y2=".031" gradientTransform="translate(3.3308581e-7,1037.1136)" gradientUnits="userSpaceOnUse" xlink:href="#linearGradient12144"/><linearGradient id="linearGradient3133" x1="29.15" x2="32.162" y1="1.047" y2="1.047" gradientUnits="userSpaceOnUse" xlink:href="#linearGradient12204"/></defs><metadata id="metadata7"/><g id="layer1" transform="translate(0,-1036.3622)" style="display:inline"><g id="g3079" transform="translate(-0.99999996,0)"><g id="g3135" transform="translate(-2,0)"><path style="fill:url(#linearGradient3104);fill-opacity:1;stroke:none;display:inline" id="rect4001-3-3" d="m 3.519,1037.86 7.00967,0 3.062057,3.0066 0,9.9546 -10.071727,0 z"/><path style="fill:url(#linearGradient3107);fill-opacity:1;stroke:none;display:inline" id="path4884-7" d="m 10,1037.3622 0,4 4,0 z"/><path style="fill:none;stroke:url(#linearGradient3110);stroke-width:.99809438;stroke-linecap:butt;stroke-linejoin:miter;stroke-miterlimit:4;stroke-opacity:1;stroke-dashoffset:0;display:inline" id="rect4001-9" d="m 3.4990472,1037.8612 6.9610758,0 3.04083,3.016 0,9.9859 -10.0019058,0 z"/><rect style="fill:url(#linearGradient3113);fill-opacity:1;stroke:none;display:inline" id="rect4001-1" width="4" height="1" x="5" y="1040.362"/><rect style="fill:url(#linearGradient3116);fill-opacity:1;stroke:none;display:inline" id="rect4001-1-7" width="7" height="1" x="5" y="1042.362"/><rect style="fill:url(#linearGradient3119);fill-opacity:1;stroke:none;display:inline" id="rect4001-1-7-4" width="7" height="1" x="5" y="1044.362"/><rect style="fill:url(#linearGradient3121);fill-opacity:1;stroke:none;display:inline" id="rect4001-1-7-4-0" width="7" height="1" x="5" y="1046.362"/><rect style="fill:url(#linearGradient3123);fill-opacity:1;stroke:none;display:inline" id="rect4001-1-7-4-0-9" width="7" height="1" x="5" y="1048.362"/></g><g id="g7581" mask="url(#mask7584)" transform="matrix(0.99998174,0,0,1,-1.7857911,-0.26482736)" style="display:inline"><path style="font-size:medium;font-style:normal;font-variant:normal;font-weight:400;font-stretch:normal;text-indent:0;text-align:start;text-decoration:none;line-height:normal;letter-spacing:normal;word-spacing:normal;text-transform:none;direction:ltr;block-progression:tb;writing-mode:lr-tb;text-anchor:start;baseline-shift:baseline;color:#000;fill:#fff;stroke:#fff;stroke-width:2.00001836;stroke-linejoin:round;stroke-miterlimit:4;stroke-opacity:1;stroke-dasharray:none;marker:none;visibility:visible;display:inline;overflow:visible;filter:url(#filter8356);enable-background:accumulate;font-family:Sans" id="path5226-6-14-1-5-9-9" d="m 14.945713,1040.3274 -5.5989979,5.572 -3.4954296,1.6602 1.6601595,-3.4924 5.545372,-5.5834 c 0.812805,0.3857 1.414835,1.0349 1.888896,1.8439 z"/></g><g id="g3059" transform="matrix(0.70710678,0.70710678,-0.70710678,0.70710678,725.76007,283.20345)" style="display:inline"><path style="font-size:medium;font-style:normal;font-variant:normal;font-weight:400;font-stretch:normal;text-indent:0;text-align:start;text-decoration:none;line-height:normal;letter-spacing:normal;word-spacing:normal;text-transform:none;direction:ltr;block-progression:tb;writing-mode:lr-tb;text-anchor:start;baseline-shift:baseline;color:#000;fill:none;stroke:url(#linearGradient3125);stroke-width:1;stroke-linejoin:round;stroke-miterlimit:4;stroke-opacity:1;stroke-dasharray:none;marker:none;visibility:visible;display:inline;overflow:visible;enable-background:accumulate;font-family:Sans;-inkscape-font-specification:Sans" id="path5226-6-14-1-5-9" d="m 15.685953,1040.5523 -8.7475939,8.7054 -5.461084,2.5938 2.59375,-5.4564 8.6638109,-8.7231 c 1.269887,0.6025 2.210467,1.6169 2.951117,2.8807 z" transform="matrix(0.45259182,-0.45259182,0.45259182,0.45259182,-446.0304,573.84462)"/><path style="font-size:medium;font-style:normal;font-variant:normal;font-weight:400;font-stretch:normal;text-indent:0;text-align:start;text-decoration:none;line-height:normal;letter-spacing:normal;word-spacing:normal;text-transform:none;direction:ltr;block-progression:tb;writing-mode:lr-tb;text-anchor:start;baseline-shift:baseline;color:#000;fill:#ffcb72;fill-opacity:1;stroke:none;stroke-width:1;marker:none;visibility:visible;display:inline;overflow:visible;enable-background:accumulate;font-family:Sans;-inkscape-font-specification:Sans" id="path5424-7" d="m 12.75,1037.6747 -8.6875,8.7188 0.9375,0.9062 8.9375,-8.875 c -0.362696,-0.2963 -0.752826,-0.5438 -1.1875,-0.75 z" transform="matrix(0.45259182,-0.45259182,0.45259182,0.45259182,-446.0304,573.84462)"/><path style="font-size:medium;font-style:normal;font-variant:normal;font-weight:400;font-stretch:normal;text-indent:0;text-align:start;text-decoration:none;line-height:normal;letter-spacing:normal;word-spacing:normal;text-transform:none;direction:ltr;block-progression:tb;writing-mode:lr-tb;text-anchor:start;baseline-shift:baseline;color:#000;fill:#e5a856;fill-opacity:1;stroke:none;stroke-width:1;marker:none;visibility:visible;display:inline;overflow:visible;enable-background:accumulate;font-family:Sans;-inkscape-font-specification:Sans" id="path5226-6-14-1-5-2-9" d="m 15.3125,1039.956 -8.78125,8.9062 0.40625,0.4063 8.75,-8.7188 c -0.120121,-0.205 -0.24381,-0.4026 -0.375,-0.5937 z" transform="matrix(0.45259182,-0.45259182,0.45259182,0.45259182,-446.0304,573.84462)"/><path style="font-size:medium;font-style:normal;font-variant:normal;font-weight:400;font-stretch:normal;text-indent:0;text-align:start;text-decoration:none;line-height:normal;letter-spacing:normal;word-spacing:normal;text-transform:none;direction:ltr;block-progression:tb;writing-mode:lr-tb;text-anchor:start;baseline-shift:baseline;color:#000;fill:#fbbc67;fill-opacity:1;stroke:none;stroke-width:1;marker:none;visibility:visible;display:inline;overflow:visible;enable-background:accumulate;font-family:Sans;-inkscape-font-specification:Sans" id="path5226-6-14-1-5-2-7-1" d="m 6.536718,1048.8567 -1.548139,-1.5456 8.939717,-8.8821 c 0.52506,0.4288 0.980135,0.9451 1.380966,1.5292 z" transform="matrix(0.45259182,-0.45259182,0.45259182,0.45259182,-446.0304,573.84462)"/><path style="opacity:.5;fill:none;stroke:#fff;stroke-width:1;stroke-linecap:butt;stroke-linejoin:miter;stroke-miterlimit:4;stroke-opacity:1;stroke-dasharray:none;display:inline;filter:url(#filter5428-3)" id="path5426-9" d="m 4.984376,1047.2528 8.937501,-8.8281" transform="matrix(0.45259182,-0.45259182,0.45259182,0.45259182,-446.0304,573.84462)"/><path style="fill:url(#linearGradient3127);fill-opacity:1;stroke:none;display:inline" id="path5006-5" d="M 4.09375,10 2.6875,12.9375 c 0.1928924,0.586348 0.244767,1.257306 1.375,1.28125 L 4.03125,14.28125 6.96875,12.875 C 7.3020356,11.516034 6.7891722,11.737439 5.9815375,11.315162 5.6074141,10.176906 5.9121401,10.42899 4.6833038,10.420015 4.6786211,9.4016554 4.2560993,10.44918 4.09375,10 z" transform="matrix(0.45259182,-0.45259182,0.45259182,0.45259182,23.018654,1042.8937)"/><path style="fill:url(#linearGradient3129);fill-opacity:1;stroke:none;display:inline" id="path5006-1-8" d="m 2.6874999,1049.2997 -1.21875,2.5625 2.5625,-1.2187 0.03125,-0.062 c -0.7244984,-0.1443 -1.1657597,-0.5692 -1.375,-1.2818 z" transform="matrix(0.45259182,-0.45259182,0.45259182,0.45259182,-446.0304,573.84462)"/><path id="path11335" d="m 30.6875,1035.7699 c -0.790527,0 -1.4375,0.166 -1.4375,0.375 l 0,2 c 0,0.209 0.646973,0.375 1.4375,0.375 0.790527,0 1.4375,-0.166 1.4375,-0.375 l 0,-2 c 0,-0.209 -0.646973,-0.375 -1.4375,-0.375 z" style="fill:url(#linearGradient3131);fill-opacity:1;stroke:none"/><path id="path11335-9" d="m 32.015625,1.046875 c 0,0.1984773 -0.608613,0.359375 -1.359375,0.359375 -0.750762,0 -1.359375,-0.1608977 -1.359375,-0.359375 0,-0.19847733 0.608613,-0.359375 1.359375,-0.359375 0.750762,0 1.359375,0.16089767 1.359375,0.359375 z" transform="matrix(1.0529667,0,0,1.0529667,-1.5886036,1035.0448)" style="fill:#f5b9ac;fill-opacity:1;stroke:url(#linearGradient3133);stroke-width:.2935867;stroke-linecap:butt;stroke-linejoin:round;stroke-miterlimit:4;stroke-opacity:1;stroke-dasharray:none;stroke-dashoffset:0;display:inline"/><path id="path11335-4" d="m 30.687499,1035.7698 c -0.790526,0 -1.437499,0.166 -1.437499,0.375 l 0,1.4807 c 0,0.209 0.646973,0.375 1.437499,0.375 0.790527,0 1.4375,-0.166 1.4375,-0.375 l 0,-1.4807 c 0,-0.209 -0.646973,-0.375 -1.4375,-0.375 z" style="fill:none;stroke:#b6766f;stroke-width:.30913702;stroke-linecap:butt;stroke-linejoin:round;stroke-miterlimit:4;stroke-opacity:1;stroke-dasharray:none;stroke-dashoffset:0;display:inline"/><path id="path11335-4-0" d="m 29.09375,1037.7074 0,1.6022 c 0,0.2327 0.713814,0.4063 1.59375,0.4063 0.879938,0 1.59375,-0.1736 1.59375,-0.4063 l 0,-1.6022 c 0,0.2327 -0.713812,0.4062 -1.59375,0.4062 -0.879936,0 -1.59375,-0.1735 -1.59375,-0.4062 z" style="fill:#dedfe2;fill-opacity:1;stroke:#a79a9e;stroke-width:.34410122;stroke-linecap:butt;stroke-linejoin:round;stroke-miterlimit:4;stroke-opacity:1;stroke-dasharray:none;stroke-dashoffset:0;display:inline"/></g></g></g></svg>