<svg xmlns="http://www.w3.org/2000/svg" xmlns:svg="http://www.w3.org/2000/svg" xmlns:xlink="http://www.w3.org/1999/xlink" id="svg2" width="20" height="20" version="1.1"><defs id="defs4"><linearGradient id="linearGradient5156"><stop style="stop-color:#fdf3cb;stop-opacity:1" id="stop5158" offset="0"/><stop id="stop5166" offset=".486" style="stop-color:#fdf3cb;stop-opacity:1"/><stop id="stop5164" offset=".565" style="stop-color:#a77e1c;stop-opacity:.502"/><stop style="stop-color:#a77e1c;stop-opacity:.5" id="stop5160" offset="1"/></linearGradient><linearGradient id="linearGradient5001"><stop style="stop-color:#000;stop-opacity:1" id="stop5003" offset="0"/><stop style="stop-color:#000;stop-opacity:0" id="stop5005" offset="1"/></linearGradient><linearGradient id="linearGradient4886"><stop style="stop-color:#dec26f;stop-opacity:1" id="stop4888" offset="0"/><stop style="stop-color:#fce69e;stop-opacity:1" id="stop4890" offset="1"/></linearGradient><linearGradient id="linearGradient4870"><stop style="stop-color:#fdf3cb;stop-opacity:1" id="stop4872" offset="0"/><stop style="stop-color:#fce69e;stop-opacity:1" id="stop4874" offset="1"/></linearGradient><linearGradient id="linearGradient4862"><stop style="stop-color:#c79c2f;stop-opacity:1" id="stop4864" offset="0"/><stop style="stop-color:#b7912c;stop-opacity:1" id="stop4866" offset="1"/></linearGradient><linearGradient id="linearGradient4868" x1="30.063" x2="30.063" y1="1034.609" y2="1040.763" gradientTransform="translate(-20,0)" gradientUnits="userSpaceOnUse" xlink:href="#linearGradient4862"/><linearGradient id="linearGradient4876" x1="25.656" x2="25.656" y1="1035.134" y2="1040.859" gradientTransform="translate(-20,0)" gradientUnits="userSpaceOnUse" xlink:href="#linearGradient4870"/><linearGradient id="linearGradient4892" x1="32.326" x2="32.326" y1="1049.994" y2="1040.736" gradientTransform="translate(-20,0)" gradientUnits="userSpaceOnUse" xlink:href="#linearGradient4886"/><linearGradient id="linearGradient5007" x1="29.436" x2="29.436" y1="1041.45" y2="1039.056" gradientTransform="translate(-20,0)" gradientUnits="userSpaceOnUse" xlink:href="#linearGradient5001"/><linearGradient id="linearGradient4878"><stop style="stop-color:#a77e1c;stop-opacity:1" id="stop4880" offset="0"/><stop style="stop-color:#c19e38;stop-opacity:1" id="stop4882" offset="1"/></linearGradient><linearGradient id="linearGradient5103" x1="29.263" x2="29.263" y1="1049.994" y2="1040.78" gradientTransform="translate(-20,2.1382813e-5)" gradientUnits="userSpaceOnUse" xlink:href="#linearGradient4878"/><filter id="filter5152"><feGaussianBlur id="feGaussianBlur5154" stdDeviation=".324"/></filter><linearGradient id="linearGradient5162" x1="26.335" x2="32.558" y1="1041.037" y2="1049.788" gradientTransform="translate(-20,0)" gradientUnits="userSpaceOnUse" xlink:href="#linearGradient5156"/></defs><metadata id="metadata7"/><g id="layer1" transform="translate(0,-1032.3622)" style="display:inline"><path style="font-size:medium;font-style:normal;font-variant:normal;font-weight:400;font-stretch:normal;text-indent:0;text-align:start;text-decoration:none;line-height:normal;letter-spacing:normal;word-spacing:normal;text-transform:none;direction:ltr;block-progression:tb;writing-mode:lr-tb;text-anchor:start;baseline-shift:baseline;color:#000;fill:url(#linearGradient4876);fill-opacity:1;stroke:url(#linearGradient4868);stroke-width:1;stroke-miterlimit:4;stroke-opacity:1;stroke-dasharray:none;marker:none;visibility:visible;display:inline;overflow:visible;enable-background:accumulate;font-family:Sans;-inkscape-font-specification:Sans" id="rect4838-1" d="m 9.5,1034.625 c -2.758584,0 -5,2.2414 -5,5 l 0,2.9375 c 0,2.7586 2.241416,5.0313 5,5.0313 2.758584,0 5.03125,-2.2727 5.03125,-5.0313 l 0,-2.9375 c 0,-2.7586 -2.272666,-5 -5.03125,-5 z m 0,2 c 1.685179,0 3.03125,1.3148 3.03125,3 l 0,2.9375 c 0,1.6852 -1.346071,3.0313 -3.03125,3.0313 -1.685179,0 -3,-1.3461 -3,-3.0313 l 0,-2.9375 c 0,-1.6852 1.314821,-3 3,-3 z"/><path style="font-size:medium;font-style:normal;font-variant:normal;font-weight:400;font-stretch:normal;text-indent:0;text-align:start;text-decoration:none;line-height:normal;letter-spacing:normal;word-spacing:normal;text-transform:none;direction:ltr;block-progression:tb;writing-mode:lr-tb;text-anchor:start;baseline-shift:baseline;opacity:.5;color:#000;fill:url(#linearGradient5007);fill-opacity:1;fill-rule:nonzero;stroke:none;stroke-width:1;marker:none;visibility:visible;display:inline;overflow:visible;enable-background:accumulate;font-family:Sans;-inkscape-font-specification:Sans" id="path4994" d="m 9.5,1034.1122 c -3.029423,0 -5.5,2.4706 -5.5,5.5 l 0,2.9375 c 0,3.0294 2.466794,5.5313 5.5,5.5313 3.033206,0 5.53125,-2.4981 5.53125,-5.5313 l 0,-2.9375 c 0,-3.0332 -2.501827,-5.5 -5.53125,-5.5 z m 0,3 c 1.425108,0 2.53125,1.0811 2.53125,2.5 l 0,2.9375 c 0,1.4189 -1.112334,2.5313 -2.53125,2.5313 -1.418916,0 -2.5,-1.1062 -2.5,-2.5313 l 0,-2.9375 c 0,-1.4251 1.074892,-2.5 2.5,-2.5 z"/><rect style="fill:url(#linearGradient4892);fill-opacity:1;stroke:none" id="rect4838" width="11.999" height="8.994" x="3.513" y="1040.872" rx="1.105" ry="1.105"/><rect style="fill:none;stroke:url(#linearGradient5162);stroke-width:.87896538;stroke-opacity:1;display:inline;filter:url(#filter5152)" id="rect4838-4" width="10.729" height="7.771" x="4.148" y="1041.483" rx=".622" ry=".601"/><rect style="opacity:.25;fill:#a77e1c;fill-opacity:1;stroke:none" id="rect4894" width="11.031" height="1" x="3.997" y="1044.425"/><rect style="opacity:.25;fill:#a77e1c;fill-opacity:1;stroke:none;display:inline" id="rect4894-7" width="11.031" height="1" x="3.997" y="1046.425"/><rect style="opacity:.25;fill:#a77e1c;fill-opacity:1;stroke:none;display:inline" id="rect4894-7-4" width="11.031" height="1" x="3.997" y="1048.425"/><path style="fill:#785b13;fill-opacity:1;stroke:none" id="path4066" d="m 10.496117,12.531184 c 0,0.561379 -0.455088,1.016466 -1.0164665,1.016466 -0.5613787,0 -1.016466,-0.455087 -1.016466,-1.016466 0,-0.561378 0.4550873,-1.016466 1.016466,-1.016466 0.5613785,0 1.0164665,0.455088 1.0164665,1.016466 z" transform="translate(0,1032.3622)"/><rect style="fill:#785b13;fill-opacity:1;stroke:none" id="rect4836" width="1.061" height="2.806" x="8.949" y="1045.534"/><rect style="fill:none;stroke:url(#linearGradient5103);stroke-opacity:1;display:inline" id="rect4838-12" width="11.999" height="8.994" x="3.513" y="1040.872" rx="1.105" ry="1.105"/></g></svg>