<svg xmlns="http://www.w3.org/2000/svg" xmlns:svg="http://www.w3.org/2000/svg" xmlns:xlink="http://www.w3.org/1999/xlink" id="svg2" width="16" height="16" version="1.1"><defs id="defs4"><linearGradient id="linearGradient4349"><stop id="stop4351" offset="0" style="stop-color:#bd7231;stop-opacity:1"/><stop id="stop4353" offset="1" style="stop-color:#dda24c;stop-opacity:1"/></linearGradient><linearGradient id="linearGradient4155"><stop id="stop4157" offset="0" style="stop-color:#ccc;stop-opacity:1"/><stop style="stop-color:#fff;stop-opacity:1" id="stop4161" offset=".5"/><stop style="stop-color:#ccc;stop-opacity:1" id="stop4159" offset="1"/></linearGradient><linearGradient id="linearGradient4137"><stop style="stop-color:#606060;stop-opacity:1" id="stop4139" offset="0"/><stop id="stop4145" offset="1" style="stop-color:#ccc;stop-opacity:1"/></linearGradient><linearGradient id="linearGradient3898"><stop style="stop-color:#62431b;stop-opacity:1" id="stop3900" offset="0"/><stop id="stop3906" offset="1" style="stop-color:#b0a18d;stop-opacity:1"/></linearGradient><linearGradient id="linearGradient3882"><stop style="stop-color:#784d15;stop-opacity:1" id="stop3884" offset="0"/><stop id="stop3892" offset="1" style="stop-color:#bba68a;stop-opacity:1"/></linearGradient><linearGradient id="linearGradient3842"><stop style="stop-color:#c48146;stop-opacity:1" id="stop3844" offset="0"/><stop style="stop-color:#ebc58e;stop-opacity:1" id="stop3846" offset="1"/></linearGradient><linearGradient id="linearGradient3832"><stop style="stop-color:#774c15;stop-opacity:1" id="stop3834" offset="0"/><stop id="stop3840" offset="1" style="stop-color:#986320;stop-opacity:.94117647"/></linearGradient><linearGradient id="linearGradient4123" x1="-33" x2="-61" y1="12" y2="12" gradientTransform="translate(0,1061.3622)" gradientUnits="userSpaceOnUse" xlink:href="#linearGradient3842"/><linearGradient id="linearGradient4125" x1="-31" x2="-63" y1="17" y2="7" gradientTransform="translate(0,1061.3622)" gradientUnits="userSpaceOnUse" xlink:href="#linearGradient3832"/><linearGradient id="linearGradient4127" x1="-47" x2="-47" y1="1068.362" y2="1063.362" gradientUnits="userSpaceOnUse" xlink:href="#linearGradient3882"/><linearGradient id="linearGradient4129" x1="-59" x2="-28" y1="1056.362" y2="1043.362" gradientUnits="userSpaceOnUse" xlink:href="#linearGradient3898"/><linearGradient id="linearGradient4131" x1="-32" x2="-62" y1="15" y2="15" gradientUnits="userSpaceOnUse" xlink:href="#linearGradient3842"/><linearGradient id="linearGradient4133" x1="-62" x2="-32" y1="15" y2="15" gradientUnits="userSpaceOnUse" xlink:href="#linearGradient3832"/><linearGradient id="linearGradient4143" x1="-45" x2="-62" y1="39" y2="35" gradientUnits="userSpaceOnUse" xlink:href="#linearGradient4137"/><linearGradient id="linearGradient4153" x1="-59.045" x2="-41" y1="39.472" y2="39.472" gradientUnits="userSpaceOnUse" xlink:href="#linearGradient4155"/><linearGradient id="linearGradient4331" x1="-32" x2="-62" y1="15" y2="15" gradientTransform="translate(-2,1035.3622)" gradientUnits="userSpaceOnUse" xlink:href="#linearGradient3842"/><linearGradient id="linearGradient4333" x1="-62" x2="-32" y1="15" y2="15" gradientTransform="translate(-2,1035.3622)" gradientUnits="userSpaceOnUse" xlink:href="#linearGradient3832"/><linearGradient id="linearGradient4337" x1="-59" x2="-28" y1="1056.362" y2="1043.362" gradientTransform="translate(-2,-1)" gradientUnits="userSpaceOnUse" xlink:href="#linearGradient4349"/><linearGradient id="linearGradient4342" x1="-47" x2="-47" y1="1068.362" y2="1063.362" gradientTransform="translate(-2,-1)" gradientUnits="userSpaceOnUse" xlink:href="#linearGradient3882"/><linearGradient id="linearGradient4345" x1="-33" x2="-61" y1="12" y2="12" gradientTransform="translate(-2,1060.3622)" gradientUnits="userSpaceOnUse" xlink:href="#linearGradient3842"/><linearGradient id="linearGradient4347" x1="-31" x2="-63" y1="17" y2="7" gradientTransform="translate(-2,1060.3622)" gradientUnits="userSpaceOnUse" xlink:href="#linearGradient3832"/><linearGradient id="linearGradient4370" x1="-33" x2="-61" y1="12" y2="12" gradientTransform="translate(-2,1060.3622)" gradientUnits="userSpaceOnUse" xlink:href="#linearGradient3842"/><linearGradient id="linearGradient4372" x1="-31" x2="-63" y1="17" y2="7" gradientTransform="translate(-2,1060.3622)" gradientUnits="userSpaceOnUse" xlink:href="#linearGradient3832"/><linearGradient id="linearGradient4374" x1="-47" x2="-47" y1="1068.362" y2="1063.362" gradientTransform="translate(-2,-1)" gradientUnits="userSpaceOnUse" xlink:href="#linearGradient3882"/><linearGradient id="linearGradient4376" x1="-59" x2="-28" y1="1056.362" y2="1043.362" gradientTransform="translate(-2,-1)" gradientUnits="userSpaceOnUse" xlink:href="#linearGradient4349"/><linearGradient id="linearGradient4378" x1="-32" x2="-62" y1="15" y2="15" gradientTransform="translate(-2,1035.3622)" gradientUnits="userSpaceOnUse" xlink:href="#linearGradient3842"/><linearGradient id="linearGradient4380" x1="-62" x2="-32" y1="15" y2="15" gradientTransform="translate(-2,1035.3622)" gradientUnits="userSpaceOnUse" xlink:href="#linearGradient3832"/><linearGradient id="linearGradient4382" x1="-59.045" x2="-41" y1="39.472" y2="39.472" gradientUnits="userSpaceOnUse" xlink:href="#linearGradient4155"/><linearGradient id="linearGradient4384" x1="-45" x2="-62" y1="39" y2="35" gradientUnits="userSpaceOnUse" xlink:href="#linearGradient4137"/></defs><metadata id="metadata7"/><g id="layer1" transform="translate(0,-1036.3622)" style="display:inline"><g id="g4355" transform="matrix(0.5,0,0,0.5,32.5,512.6811)"><rect id="rect3062" width="30" height="8" x="-64" y="1068.362" style="fill:url(#linearGradient4370);fill-opacity:1;stroke:url(#linearGradient4372);stroke-width:2;stroke-miterlimit:4;stroke-opacity:1;stroke-dasharray:none"/><path id="path3854" d="m -59,1062.3622 0,5 20,0 0,-5 z" style="fill:url(#linearGradient4374);fill-opacity:1;stroke:none"/><path id="path3856" d="m -65,1067.3622 6,-5 0,5 -4,0 z" style="fill:#62431b;fill-opacity:1;stroke:none"/><path id="path3858" d="m -39,1062.3622 0,5 4,0 2,0 z" style="fill:#8f5e1f;fill-opacity:1;stroke:none"/><path id="path3894" d="m -59,1060.3622 -4,-8 28,0 -4,8 z" style="fill:url(#linearGradient4376);fill-opacity:1;stroke:none"/><path id="path3896" d="m -59,1061.3622 20,0" style="fill:none;stroke:#784d15;stroke-width:2;stroke-linecap:butt;stroke-linejoin:miter;stroke-miterlimit:4;stroke-opacity:1;stroke-dasharray:none"/><path id="path3908" d="m -64,1052.3622 0,-4 30,0 0,4" style="fill:url(#linearGradient4378);fill-opacity:1;stroke:url(#linearGradient4380);stroke-width:2;stroke-linecap:butt;stroke-linejoin:miter;stroke-miterlimit:4;stroke-opacity:1;stroke-dasharray:none"/><path id="path3918" d="m -65,1052.3622 2,0 4,8 0,2 z" style="fill:#62431b;fill-opacity:1;stroke:none"/><path id="path3920" d="m -39,1060.3622 4,-8 2,0 -6,10 z" style="fill:#62431b;fill-opacity:1;stroke:none"/><rect id="rect3930" width="4" height="2" x="-41" y="1071.362" style="fill:#f9e054;fill-opacity:1;stroke:none"/><path id="path4135" d="m -54,42 c 3,0 5,0 8,0 2,0 4,-3 4,-6 l -4,0 c 0.153995,1.033061 -0.472953,1.472953 -1,2 -1,1 -5,1 -6,0 -0.527047,-0.527047 -1,-0.996155 -1,-2 l -4,0 c -0.392507,2.821047 2,6 4,6 z" transform="translate(0,1036.3622)" style="fill:url(#linearGradient4382);fill-opacity:1;stroke:url(#linearGradient4384);stroke-width:2;stroke-linecap:butt;stroke-linejoin:miter;stroke-miterlimit:4;stroke-opacity:1;stroke-dasharray:none"/><path id="path4235" d="m -54,24 -1,-8 2,0 0,8 z" transform="translate(0,1036.3622)" style="fill:#62431b;fill-opacity:1;stroke:none"/><path id="path4235-1" d="m -44,1060.3622 1,-8 -2,0 0,8 z" style="fill:#62431b;fill-opacity:1;stroke:none;display:inline"/></g></g></svg>