<svg xmlns="http://www.w3.org/2000/svg" xmlns:svg="http://www.w3.org/2000/svg" xmlns:xlink="http://www.w3.org/1999/xlink" id="svg2" width="16" height="16" version="1.1"><defs id="defs4"><linearGradient id="linearGradient4349"><stop id="stop4351" offset="0" style="stop-color:#bd7231;stop-opacity:1"/><stop id="stop4353" offset="1" style="stop-color:#dda24c;stop-opacity:1"/></linearGradient><linearGradient id="linearGradient4155"><stop id="stop4157" offset="0" style="stop-color:#ccc;stop-opacity:1"/><stop style="stop-color:#fff;stop-opacity:1" id="stop4161" offset=".5"/><stop style="stop-color:#ccc;stop-opacity:1" id="stop4159" offset="1"/></linearGradient><linearGradient id="linearGradient4137"><stop style="stop-color:#606060;stop-opacity:1" id="stop4139" offset="0"/><stop id="stop4145" offset="1" style="stop-color:#ccc;stop-opacity:1"/></linearGradient><linearGradient id="linearGradient3882"><stop style="stop-color:#784d15;stop-opacity:1" id="stop3884" offset="0"/><stop id="stop3892" offset="1" style="stop-color:#bba68a;stop-opacity:1"/></linearGradient><linearGradient id="linearGradient3842"><stop style="stop-color:#c48146;stop-opacity:1" id="stop3844" offset="0"/><stop style="stop-color:#ebc58e;stop-opacity:1" id="stop3846" offset="1"/></linearGradient><linearGradient id="linearGradient3832"><stop style="stop-color:#774c15;stop-opacity:1" id="stop3834" offset="0"/><stop id="stop3840" offset="1" style="stop-color:#986320;stop-opacity:.94117647"/></linearGradient><linearGradient id="linearGradient4370" x1="-33" x2="-61" y1="12" y2="12" gradientTransform="translate(-2,1060.3622)" gradientUnits="userSpaceOnUse" xlink:href="#linearGradient3842"/><linearGradient id="linearGradient4372" x1="-31" x2="-63" y1="17" y2="7" gradientTransform="translate(-2,1060.3622)" gradientUnits="userSpaceOnUse" xlink:href="#linearGradient3832"/><linearGradient id="linearGradient4374" x1="-47" x2="-47" y1="1068.362" y2="1063.362" gradientTransform="translate(-2,-1)" gradientUnits="userSpaceOnUse" xlink:href="#linearGradient3882"/><linearGradient id="linearGradient4376" x1="-59" x2="-28" y1="1056.362" y2="1043.362" gradientTransform="translate(-2,-1)" gradientUnits="userSpaceOnUse" xlink:href="#linearGradient4349"/><linearGradient id="linearGradient4378" x1="-32" x2="-62" y1="15" y2="15" gradientTransform="translate(-2,1035.3622)" gradientUnits="userSpaceOnUse" xlink:href="#linearGradient3842"/><linearGradient id="linearGradient4380" x1="-62" x2="-32" y1="15" y2="15" gradientTransform="translate(-2,1035.3622)" gradientUnits="userSpaceOnUse" xlink:href="#linearGradient3832"/><linearGradient id="linearGradient4382" x1="-59.045" x2="-41" y1="39.472" y2="39.472" gradientUnits="userSpaceOnUse" xlink:href="#linearGradient4155"/><linearGradient id="linearGradient4384" x1="-45" x2="-62" y1="39" y2="35" gradientUnits="userSpaceOnUse" xlink:href="#linearGradient4137"/><linearGradient id="linearGradient3865"><stop style="stop-color:#fff;stop-opacity:1" id="stop3867" offset="0"/><stop style="stop-color:#f2b4b4;stop-opacity:1" id="stop3869" offset="1"/></linearGradient><linearGradient id="linearGradient3003" x1="-34" x2="-17" y1="14" y2="14" gradientTransform="matrix(0,0.5,0.5,0,-2,1055.8622)" gradientUnits="userSpaceOnUse" xlink:href="#linearGradient3865"/><linearGradient id="linearGradient3063" x1="-45" x2="-62" y1="39" y2="35" gradientTransform="matrix(0.375,0,0,0.375,28.25,1034.2372)" gradientUnits="userSpaceOnUse" xlink:href="#linearGradient4137"/><linearGradient id="linearGradient3069" x1="-32" x2="-62" y1="15" y2="15" gradientTransform="matrix(0.375,0,0,0.375,27.5,1033.8622)" gradientUnits="userSpaceOnUse" xlink:href="#linearGradient3842"/><linearGradient id="linearGradient3071" x1="-62" x2="-32" y1="15" y2="15" gradientTransform="matrix(0.375,0,0,0.375,27.5,1033.8622)" gradientUnits="userSpaceOnUse" xlink:href="#linearGradient3832"/><linearGradient id="linearGradient3075" x1="-59" x2="-28" y1="1056.362" y2="1043.362" gradientTransform="matrix(0.375,0,0,0.375,27.5,645.22637)" gradientUnits="userSpaceOnUse" xlink:href="#linearGradient4349"/><linearGradient id="linearGradient3080" x1="-47" x2="-47" y1="1068.362" y2="1063.362" gradientTransform="matrix(0.375,0,0,0.375,27.5,645.22637)" gradientUnits="userSpaceOnUse" xlink:href="#linearGradient3882"/><linearGradient id="linearGradient3083" x1="-33" x2="-61" y1="12" y2="12" gradientTransform="matrix(0.375,0,0,0.375,27.5,1043.2372)" gradientUnits="userSpaceOnUse" xlink:href="#linearGradient3842"/><linearGradient id="linearGradient3085" x1="-31" x2="-63" y1="17" y2="7" gradientTransform="matrix(0.375,0,0,0.375,27.5,1043.2372)" gradientUnits="userSpaceOnUse" xlink:href="#linearGradient3832"/></defs><metadata id="metadata7"/><g id="layer1" transform="translate(0,-1036.3622)" style="display:inline"><rect style="fill:url(#linearGradient3083);fill-opacity:1;stroke:url(#linearGradient3085);stroke-width:1;stroke-miterlimit:4;stroke-opacity:1;stroke-dasharray:none" id="rect3062" width="11.25" height="3" x="4.25" y="1046.237"/><path style="fill:url(#linearGradient3080);fill-opacity:1;stroke:none" id="path3854" d="m 6.125,1043.9872 0,1.875 7.5,0 0,-1.875 z"/><path style="fill:#62431b;fill-opacity:1;stroke:none" id="path3856" d="m 3.875,1045.8622 2.25,-1.875 0,1.875 -1.5,0 z"/><path style="fill:#8f5e1f;fill-opacity:1;stroke:none" id="path3858" d="m 13.625,1043.9872 0,1.875 1.5,0 0.75,0 z"/><path style="fill:url(#linearGradient3075);fill-opacity:1;stroke:none" id="path3894" d="m 6.125,1043.2372 -1.5,-3 10.5,0 -1.5,3 z"/><path style="fill:none;stroke:#784d15;stroke-width:1;stroke-linecap:butt;stroke-linejoin:miter;stroke-miterlimit:4;stroke-opacity:1;stroke-dasharray:none" id="path3896" d="m 6.125,1043.6122 7.5,0"/><path style="fill:url(#linearGradient3069);fill-opacity:1;stroke:url(#linearGradient3071);stroke-width:1;stroke-linecap:butt;stroke-linejoin:miter;stroke-miterlimit:4;stroke-opacity:1;stroke-dasharray:none" id="path3908" d="m 4.25,1040.2372 0,-1.5 11.25,0 0,1.5"/><path style="fill:#62431b;fill-opacity:1;stroke:none" id="path3918" d="m 3.875,1040.2372 0.75,0 1.5,3 0,0.75 z"/><path style="fill:#62431b;fill-opacity:1;stroke:none" id="path3920" d="m 13.625,1043.2372 1.5,-3 0.75,0 -2.25,3.75 z"/><rect style="fill:#f9e054;fill-opacity:1;stroke:none" id="rect3930" width="1.5" height=".75" x="12.875" y="1047.362"/><path style="fill:#fff;fill-opacity:1;stroke:url(#linearGradient3063);stroke-width:.6;stroke-linecap:butt;stroke-linejoin:miter;stroke-miterlimit:4;stroke-opacity:1;stroke-dasharray:none" id="path4135" d="m 8,1049.9872 c 1.125,0 1.875,0 3,0 0.75,0 1.5,-1.125 1.5,-2.25 l -1.5,0 c 0.05775,0.3874 -0.177357,0.5524 -0.375,0.75 -0.375,0.375 -1.875,0.375 -2.25,0 C 8.1773574,1048.2896 8,1048.1136 8,1047.7372 l -1.5,0 c -0.1471901,1.0579 0.75,2.25 1.5,2.25 z"/><path style="fill:#62431b;fill-opacity:1;stroke:none" id="path4235" d="m 8,1043.2372 -0.375,-3 0.75,0 0,3 z"/><path style="fill:#62431b;fill-opacity:1;stroke:none;display:inline" id="path4235-1" d="m 11.75,1043.2372 0.375,-3 -0.75,0 0,3 z"/><path style="fill:url(#linearGradient3003);fill-opacity:1;stroke:#d20502;stroke-width:1;stroke-linecap:butt;stroke-linejoin:bevel;stroke-miterlimit:4;stroke-opacity:1;stroke-dasharray:none;display:inline" id="path3873" d="m 9.4999995,1043.8622 -3.9999995,4 0,-1 0,-2 -4.5,0 0,-1 0,-1 4.5,0 0,-2 0,-1 z"/></g></svg>