<svg xmlns="http://www.w3.org/2000/svg" xmlns:svg="http://www.w3.org/2000/svg" xmlns:xlink="http://www.w3.org/1999/xlink" id="svg2" width="16" height="16" version="1.1"><defs id="defs4"><linearGradient id="linearGradient4939"><stop style="stop-color:#d5f3ff;stop-opacity:1" id="stop4941" offset="0"/><stop style="stop-color:#fcffff;stop-opacity:1" id="stop4943" offset="1"/></linearGradient><linearGradient id="linearGradient4945" x1="1.433" x2="3.073" y1="6.461" y2="8.105" gradientUnits="userSpaceOnUse" xlink:href="#linearGradient4939"/><linearGradient id="linearGradient4939-8"><stop style="stop-color:#d5f3ff;stop-opacity:1" id="stop4941-8" offset="0"/><stop style="stop-color:#fcffff;stop-opacity:1" id="stop4943-2" offset="1"/></linearGradient><linearGradient id="linearGradient4983" x1="1.433" x2="3.073" y1="6.461" y2="8.105" gradientUnits="userSpaceOnUse" xlink:href="#linearGradient4939-8"/><linearGradient id="linearGradient8164"><stop style="stop-color:#accf8e;stop-opacity:1" id="stop8166" offset="0"/><stop id="stop8176" offset=".29" style="stop-color:#93c586;stop-opacity:1"/><stop id="stop8174" offset=".429" style="stop-color:#58ab71;stop-opacity:1"/><stop id="stop8172" offset=".575" style="stop-color:#4da766;stop-opacity:1"/><stop style="stop-color:#61af61;stop-opacity:1" id="stop8178" offset=".708"/><stop style="stop-color:#78ba5e;stop-opacity:1" id="stop8168" offset="1"/></linearGradient><linearGradient id="linearGradient8180"><stop style="stop-color:#36825e;stop-opacity:1" id="stop8182" offset="0"/><stop style="stop-color:#257550;stop-opacity:1" id="stop8184" offset="1"/></linearGradient><linearGradient id="linearGradient3049" x1="20.303" x2="20.303" y1="1056.022" y2="1065.103" gradientTransform="translate(-0.40377946,0)" gradientUnits="userSpaceOnUse" xlink:href="#linearGradient8164"/><linearGradient id="linearGradient3051" x1="21.47" x2="21.47" y1="1054.852" y2="1066.104" gradientUnits="userSpaceOnUse" xlink:href="#linearGradient8180"/><linearGradient id="linearGradient3149" x1="1.433" x2="3.073" y1="6.461" y2="8.105" gradientUnits="userSpaceOnUse" xlink:href="#linearGradient4939"/><linearGradient id="linearGradient3151" x1="1.433" x2="3.073" y1="6.461" y2="8.105" gradientUnits="userSpaceOnUse" xlink:href="#linearGradient4939-8"/></defs><metadata id="metadata7"/><g id="layer1" transform="translate(0,-1036.3622)" style="display:inline"><g style="display:inline" id="g8159" transform="translate(-8.2201163,-12.904699)"><g id="g3142" transform="translate(0,-1.9751903)"><path id="path4981" d="m 12.535948,1057.3138 c 0,0 0.409535,-0.5625 1.699794,-0.5625 1.290259,0 1.658145,0.5 1.658145,0.5" style="fill:none;stroke:#324e6e;stroke-width:1px;stroke-linecap:butt;stroke-linejoin:miter;stroke-opacity:1"/><path id="path4985" d="m 8.780508,1057.2857 0.5226274,-0.5467 3.3916416,-3.5479 c 0.828641,-0.7734 2.088175,-0.8729 2.088175,1.7014" style="fill:none;stroke:#324e6e;stroke-width:1px;stroke-linecap:round;stroke-linejoin:round;stroke-opacity:1"/><path id="path4985-5" d="m 17.623497,1058.2071 4.076913,-4.2647 c 0.828641,-0.7734 2.088175,-0.8729 2.088175,1.7015" style="fill:none;stroke:#324e6e;stroke-width:1px;stroke-linecap:round;stroke-linejoin:round;stroke-opacity:1;display:inline"/><path id="path4150" d="m 4.7343755,7.5624995 c 0,1.2253819 -0.9933683,2.2187503 -2.2187503,2.2187503 -1.2253819,0 -2.2187502,-0.9933684 -2.2187502,-2.2187503 0,-1.2253819 0.9933683,-2.2187502 2.2187502,-2.2187502 1.225382,0 2.2187503,0.9933683 2.2187503,2.2187502 z" transform="matrix(0.89367816,0,0,0.89367816,8.471957,1052.0008)" style="fill:url(#linearGradient3149);fill-opacity:1;stroke:#324e6e;stroke-width:1.11897111;stroke-miterlimit:4;stroke-opacity:1;stroke-dasharray:none"/><path id="path4150-4" d="m 4.7343755,7.5624995 c 0,1.2253819 -0.9933683,2.2187503 -2.2187503,2.2187503 -1.2253819,0 -2.2187502,-0.9933684 -2.2187502,-2.2187503 0,-1.2253819 0.9933683,-2.2187502 2.2187502,-2.2187502 1.225382,0 2.2187503,0.9933683 2.2187503,2.2187502 z" transform="matrix(0.89367816,0,0,0.89367816,15.471957,1052.0008)" style="fill:url(#linearGradient3151);fill-opacity:1;stroke:#324e6e;stroke-width:1.11897111;stroke-miterlimit:4;stroke-opacity:1;stroke-dasharray:none;display:inline"/></g><g style="display:inline" id="g3022" transform="matrix(0.61914991,0,0,0.61914991,4.9715914,404.52271)"><path id="path8117" d="m 18.975251,1054.7517 10.78301,5.8156 -10.72051,5.8048 z" style="fill:url(#linearGradient3049);fill-opacity:1;stroke:url(#linearGradient3051);stroke-width:1.61511779;stroke-linejoin:round;stroke-miterlimit:4;stroke-opacity:1;stroke-dasharray:none;display:inline"/></g></g></g></svg>