<svg xmlns="http://www.w3.org/2000/svg" xmlns:svg="http://www.w3.org/2000/svg" xmlns:xlink="http://www.w3.org/1999/xlink" id="svg2" width="16" height="16" version="1.1"><defs id="defs4"><linearGradient id="linearGradient4994-6-0"><stop style="stop-color:#f9fafc;stop-opacity:1" id="stop4996-1-2" offset="0"/><stop style="stop-color:#dce7f7;stop-opacity:1" id="stop4998-89-4" offset="1"/></linearGradient><linearGradient id="linearGradient4894-6-3"><stop style="stop-color:#e0c88f;stop-opacity:1" id="stop4896-8-9" offset="0"/><stop style="stop-color:#d5b269;stop-opacity:1" id="stop4898-5-0" offset="1"/></linearGradient><linearGradient id="linearGradient4902-3-2"><stop style="stop-color:#bfb688;stop-opacity:1" id="stop4904-2-2" offset="0"/><stop style="stop-color:#8392b0;stop-opacity:1" id="stop4906-2-7" offset="1"/></linearGradient><linearGradient id="linearGradient4877-6"><stop id="stop4879-1" offset="0" style="stop-color:#91a5c7;stop-opacity:1"/><stop id="stop4881-4" offset="1" style="stop-color:#5e76a3;stop-opacity:1"/></linearGradient><linearGradient id="linearGradient4861-1"><stop style="stop-color:#91a5c7;stop-opacity:1" id="stop4863-1" offset="0"/><stop style="stop-color:#637aa7;stop-opacity:1" id="stop4865-52" offset="1"/></linearGradient><linearGradient id="linearGradient5147-4"><stop id="stop5149-5" offset="0" style="stop-color:#91a5c7;stop-opacity:1"/><stop id="stop5151-5" offset="1" style="stop-color:#637aa7;stop-opacity:1"/></linearGradient><linearGradient id="linearGradient5141-4"><stop id="stop5143-8" offset="0" style="stop-color:#91a5c7;stop-opacity:1"/><stop id="stop5145-8" offset="1" style="stop-color:#637aa7;stop-opacity:1"/></linearGradient><linearGradient id="linearGradient5135-7"><stop id="stop5137-4" offset="0" style="stop-color:#91a5c7;stop-opacity:1"/><stop id="stop5139-0" offset="1" style="stop-color:#637aa7;stop-opacity:1"/></linearGradient><linearGradient id="linearGradient3097" x1="7.007" x2="12.016" y1="1051.857" y2="1051.857" gradientTransform="matrix(0.99812022,0,0,0.98971353,0.00612255,7.8253845)" gradientUnits="userSpaceOnUse" xlink:href="#linearGradient5135-7"/><linearGradient id="linearGradient3100" x1="7.007" x2="14" y1="1049.857" y2="1049.857" gradientTransform="matrix(0.28600232,0,0,0.98971353,7.9959677,7.8048115)" gradientUnits="userSpaceOnUse" xlink:href="#linearGradient5141-4"/><linearGradient id="linearGradient3103" x1="7.007" x2="14" y1="1047.857" y2="1047.857" gradientTransform="matrix(0.42900348,0,0,0.98971353,5.9939516,7.7842386)" gradientUnits="userSpaceOnUse" xlink:href="#linearGradient5147-4"/><linearGradient id="linearGradient3106" x1="7.007" x2="14" y1="1045.857" y2="1045.857" gradientTransform="matrix(0.57200462,0,0,0.98971353,3.9919355,7.7636657)" gradientUnits="userSpaceOnUse" xlink:href="#linearGradient4861-1"/><linearGradient id="linearGradient3109" x1="7.007" x2="11" y1="1043.857" y2="1043.857" gradientTransform="matrix(0.50088276,0,0,0.98971353,3.49029,7.7430927)" gradientUnits="userSpaceOnUse" xlink:href="#linearGradient4877-6"/><linearGradient id="linearGradient3112" x1="10.545" x2="10.545" y1="1038.578" y2="1052.323" gradientTransform="matrix(0.99306758,0,0,1.0031466,-1.9601259,-4.3117383)" gradientUnits="userSpaceOnUse" xlink:href="#linearGradient4902-3-2"/><linearGradient id="linearGradient3115" x1="7.999" x2="9.987" y1="1042.231" y2="1040.33" gradientTransform="matrix(1.0056621,0,0,1.022704,1.9782143,-24.655793)" gradientUnits="userSpaceOnUse" xlink:href="#linearGradient4894-6-3"/><linearGradient id="linearGradient3118" x1="9.895" x2="9.895" y1="1039.153" y2="1051.838" gradientTransform="translate(-1.9782825,-1.043894)" gradientUnits="userSpaceOnUse" xlink:href="#linearGradient4994-6-0"/></defs><metadata id="metadata7"/><g id="layer1" transform="translate(0,-1036.3622)" style="display:inline"><path style="fill:url(#linearGradient3118);fill-opacity:1;stroke:none;display:inline" id="rect4001-3-3" d="m 3.519,1037.86 7.00967,0 3.062057,3.0066 0,9.9546 -10.071727,0 z"/><path style="fill:url(#linearGradient3115);fill-opacity:1;stroke:none;display:inline" id="path4884-7" d="m 10,1037.3622 0,4 4,0 z"/><path style="fill:none;stroke:url(#linearGradient3112);stroke-width:.99809438;stroke-linecap:butt;stroke-linejoin:miter;stroke-miterlimit:4;stroke-opacity:1;stroke-dashoffset:0;display:inline" id="rect4001-9" d="m 3.4990472,1037.8612 6.9610758,0 3.04083,3.016 0,9.9859 -10.0019058,0 z"/><path id="path3109" d="m 8.532401,1046.3622 -1.488,0 c 0,0 -0.01538,-0.3321 0.207031,-0.7267 0.08594,-0.1666 0.266925,-0.3776 0.542969,-0.6328 l 0.25,-0.2265 c 0.148435,-0.1354 0.256507,-0.263 0.324218,-0.3828 0.07031,-0.1198 0.105466,-0.2396 0.105469,-0.3594 -3e-6,-0.1823 -0.0625,-0.3242 -0.1875,-0.4258 -0.125002,-0.1042 -0.299481,-0.1562 -0.523437,-0.1562 -0.21094,0 -0.363716,0.01 -0.564257,0.194 -0.206443,0.1907 -0.171121,0.7023 -0.171121,0.7023 l -1.027773,0 c 0,0 0.0033,-0.8705 0.230561,-1.2142 0.209451,-0.3168 0.686234,-0.5818 0.946652,-0.6339 0.260415,-0.052 0.511717,-0.078 0.753906,-0.078 0.635414,0 1.119789,0.1302 1.453125,0.3906 0.33333,0.2579 0.499996,0.6355 0.5,1.1328 -4e-6,0.2553 -0.05078,0.4844 -0.152343,0.6875 -0.101567,0.2006 -0.274744,0.4167 -0.519532,0.6485 l -0.25,0.2226 c -0.177086,0.1615 -0.292971,0.2917 -0.347656,0.3907 -0.05469,0.096 -0.08181,0.2031 -0.08203,0.3203 l -2.82e-4,0.147 m -1.488,1 1.488282,0 0,1 -1.488282,0 0,-1" style="font-size:8px;font-style:normal;font-variant:normal;font-weight:700;font-stretch:normal;text-align:start;line-height:125%;letter-spacing:0;word-spacing:0;writing-mode:lr-tb;text-anchor:start;fill:#00018d;fill-opacity:1;stroke:none;font-family:Sans;-inkscape-font-specification:Sans Bold"/></g></svg>