<svg xmlns="http://www.w3.org/2000/svg" xmlns:svg="http://www.w3.org/2000/svg" xmlns:xlink="http://www.w3.org/1999/xlink" id="svg2" width="16" height="16" version="1.1"><defs id="defs4"><linearGradient id="linearGradient3906"><stop style="stop-color:#fff;stop-opacity:1" id="stop3908" offset="0"/><stop style="stop-color:#fff;stop-opacity:0" id="stop3910" offset="1"/></linearGradient><linearGradient id="linearGradient5961"><stop style="stop-color:#f7e26b;stop-opacity:1" id="stop5963" offset="0"/><stop id="stop5965" offset=".174" style="stop-color:#f7e26b;stop-opacity:1"/><stop id="stop5967" offset=".347" style="stop-color:#fcf89d;stop-opacity:1"/><stop id="stop5969" offset=".5" style="stop-color:#fcf89d;stop-opacity:1"/><stop style="stop-color:#f6e567;stop-opacity:1" id="stop5971" offset=".638"/><stop id="stop5973" offset=".819" style="stop-color:#f1c32f;stop-opacity:1"/><stop style="stop-color:#f1c32f;stop-opacity:1" id="stop5975" offset="1"/></linearGradient><linearGradient id="linearGradient4721-1"><stop id="stop4723-2" offset="0" style="stop-color:#b5803b;stop-opacity:1"/><stop id="stop4725-1" offset="1" style="stop-color:#c99d19;stop-opacity:1"/></linearGradient><linearGradient id="linearGradient3079" x1="690.186" x2="690.186" y1="484.134" y2="438.441" gradientTransform="matrix(0.24333435,0,0,0.21535949,-156.68169,943.68114)" gradientUnits="userSpaceOnUse" xlink:href="#linearGradient4721-1"/><linearGradient id="linearGradient3083" x1="673.61" x2="696.684" y1="460.616" y2="460.616" gradientTransform="matrix(0.25295627,0,0,0.22372082,-163.31435,939.93175)" gradientUnits="userSpaceOnUse" xlink:href="#linearGradient5961"/><linearGradient id="linearGradient3959" x1="-22" x2="-22" y1="24" y2="12" gradientTransform="matrix(0.5,0,0,0.5,-14,1046.8622)" gradientUnits="userSpaceOnUse" xlink:href="#linearGradient4029-5"/><linearGradient id="linearGradient4029-5"><stop style="stop-color:#ffd461;stop-opacity:1" id="stop4031-5" offset="0"/><stop id="stop3909" offset="1" style="stop-color:#fff;stop-opacity:1"/></linearGradient><radialGradient id="radialGradient3912" cx="11" cy="4.071" r="3" fx="11" fy="4.071" gradientTransform="matrix(1.3333333,1.7630953e-7,-2.6446429e-7,1.9999999,-3.6666656,-4.1428585)" gradientUnits="userSpaceOnUse" xlink:href="#linearGradient3906"/></defs><metadata id="metadata7"/><g id="layer1" transform="translate(0,-1036.3622)" style="display:inline"><g id="g3853" transform="matrix(1.1486919,0,0,1.1789783,-6.0191413,-183.58867)"><path style="fill:url(#linearGradient3083);fill-opacity:1;stroke:none;display:inline" id="path3868-1" d="m 9.9692973,1037.7695 c -1.9987742,0 -3.597854,0.5351 -3.597854,1.2027 l 0,8.0178 c 0,0.6676 1.5990798,1.2026 3.597854,1.2026 1.9987747,0 3.6261847,-0.535 3.6261847,-1.2026 l 0,-8.0178 c 0,-0.6676 -1.62741,-1.2027 -3.6261847,-1.2027 z"/><ellipse style="fill:none;stroke:#c99d19;stroke-width:.65650207;stroke-miterlimit:4;stroke-opacity:1;stroke-dasharray:none;display:inline" id="path3868" cx="23.628" cy="1044.436" d="m 26.128192,1044.4362 c 0,0.5523 -1.119287,1 -2.499999,1 -1.380712,0 -2.5,-0.4477 -2.5,-1 0,-0.5523 1.119288,-1.0001 2.5,-1.0001 1.380712,0 2.499999,0.4478 2.499999,1.0001 z" rx="2.5" ry="1" transform="matrix(1.3898503,0,0,1.2541915,-22.815413,-270.80649)"/><path style="fill:none;stroke:url(#linearGradient3079);stroke-width:.86676627;stroke-miterlimit:4;stroke-opacity:1;stroke-dasharray:none;display:inline" id="path3868-1-4" d="m 10.010609,1037.8623 c -1.9227437,0 -3.460998,0.5151 -3.460998,1.1578 l 0,7.718 c 0,0.6427 1.5382543,1.1578 3.460998,1.1578 1.922747,0 3.488253,-0.5151 3.488253,-1.1578 l 0,-7.718 c 0,-0.6427 -1.565506,-1.1578 -3.488253,-1.1578 z"/></g><path style="fill:url(#radialGradient3912);fill-opacity:1;stroke:none" id="path3136" d="M 8.9804111,3.8005357 C 8.698356,3.6902373 8.3916667,3.5333333 8.0022555,3.464131 L 8,5 l 1,1 1,0 0,-1 1,0 z" transform="translate(0,1036.3622)"/><g style="display:inline" id="g3969" transform="translate(37,-16)"><path id="path3165" d="m -25.5,1052.8622 0,2 -2,0 0,2 2,0 0,2 2,0 0,-2 2,0 0,-2 -2,0 0,-2 z" style="fill:url(#linearGradient3959);fill-opacity:1;stroke:#ac7e1e;stroke-width:1px;stroke-linecap:butt;stroke-linejoin:bevel;stroke-opacity:1"/><rect id="rect3961" width="1" height="1" x="-24" y="18" transform="translate(0,1036.3622)" style="fill:#ac7e1e;fill-opacity:1;stroke:none"/><rect id="rect3963" width="1" height="1" x="-26" y="18" transform="translate(0,1036.3622)" style="fill:#ac7e1e;fill-opacity:1;stroke:none"/><rect id="rect3965" width="1" height="1" x="-26" y="20" transform="translate(0,1036.3622)" style="fill:#ac7e1e;fill-opacity:1;stroke:none"/><rect id="rect3967" width="1" height="1" x="-24" y="20" transform="translate(0,1036.3622)" style="fill:#ac7e1e;fill-opacity:1;stroke:none"/></g></g></svg>