<svg xmlns="http://www.w3.org/2000/svg" xmlns:svg="http://www.w3.org/2000/svg" xmlns:xlink="http://www.w3.org/1999/xlink" id="svg2" width="16" height="16" version="1.1"><defs id="defs4"><linearGradient id="linearGradient4599"><stop id="stop4601" offset="0" style="stop-color:#8a6b1a;stop-opacity:1"/><stop id="stop4603" offset="1" style="stop-color:#c48f20;stop-opacity:1"/></linearGradient><linearGradient id="linearGradient4476"><stop style="stop-color:#fff;stop-opacity:1" id="stop4478" offset="0"/><stop style="stop-color:#0d5c9a;stop-opacity:1" id="stop4480" offset="1"/></linearGradient><mask id="mask4917" maskUnits="userSpaceOnUse"><path style="fill:#fff;fill-opacity:1;stroke:#fff;stroke-width:2;stroke-linecap:round;stroke-linejoin:round;stroke-miterlimit:4;stroke-opacity:1;stroke-dashoffset:0;display:inline" id="path4919" d="m 462.77563,373.22885 29.11636,0 c 1.45425,0 2.625,1.17075 2.625,2.625 l 0,18.76896 c 0,1.45425 -1.17412,2.52598 -2.625,2.625 l -29.11636,1.98708 c -1.45088,0.099 -2.625,-1.17075 -2.625,-2.625 l 0,-20.75604 c 0,-1.45425 1.17075,-2.625 2.625,-2.625 z"/></mask><linearGradient id="linearGradient10448-9-7-0-5"><stop style="stop-color:#cf9307;stop-opacity:1" id="stop10450-3-5-6-7" offset="0"/><stop id="stop4609" offset=".25" style="stop-color:#cf9307;stop-opacity:1"/><stop id="stop10456-4-1-5-3" offset=".5" style="stop-color:#f7d87b;stop-opacity:1"/><stop style="stop-color:#ebb313;stop-opacity:1" id="stop4605" offset=".75"/><stop id="stop4607" offset=".875" style="stop-color:#bd7427;stop-opacity:1"/><stop style="stop-color:#bd7427;stop-opacity:1" id="stop10452-22-7-8-4" offset="1"/></linearGradient><linearGradient id="linearGradient10748-8-2"><stop id="stop10750-5-0" offset="0" style="stop-color:#ecac18;stop-opacity:1"/><stop style="stop-color:#f1ce66;stop-opacity:1" id="stop10752-8-7" offset=".333"/><stop style="stop-color:#fff;stop-opacity:1" id="stop10754-8-48" offset="1"/></linearGradient><linearGradient id="linearGradient4090-5" x1="-16" x2="-16" y1="1059.362" y2="1051.362" gradientTransform="matrix(0.92307692,0,0,1,23.269231,-8)" gradientUnits="userSpaceOnUse" xlink:href="#linearGradient3901-0"/><linearGradient id="linearGradient3901-0"><stop style="stop-color:#e9f8ff;stop-opacity:1" id="stop3903-0" offset="0"/><stop style="stop-color:#fff;stop-opacity:1" id="stop3905-6" offset="1"/></linearGradient><linearGradient id="linearGradient4092-7" x1="-16" x2="-16" y1="1059.362" y2="1051.362" gradientTransform="matrix(0.92307692,0,0,1,23.269231,-8)" gradientUnits="userSpaceOnUse" xlink:href="#linearGradient3893-0"/><linearGradient id="linearGradient3893-0"><stop style="stop-color:#95a1b6;stop-opacity:1" id="stop3895-7" offset="0"/><stop style="stop-color:#c5bc99;stop-opacity:1" id="stop3897-3" offset="1"/></linearGradient><linearGradient id="linearGradient4448" x1="317.093" x2="322.423" y1="530.156" y2="522.236" gradientTransform="matrix(1.3338667,0,0,0.87752441,-915.77508,-69.516327)" gradientUnits="userSpaceOnUse" xlink:href="#linearGradient10748-8-2"/><linearGradient id="linearGradient4464" x1="324.16" x2="323.983" y1="529.301" y2="518.282" gradientTransform="matrix(0.85685369,0,0,1.1541848,225.17522,-214.49447)" gradientUnits="userSpaceOnUse" xlink:href="#linearGradient10448-9-7-0-5"/><linearGradient id="linearGradient4482" x1="11" x2="15" y1="10" y2="14" gradientTransform="matrix(3.5838051,0,0,3.5838051,460.56048,345.53547)" gradientUnits="userSpaceOnUse" xlink:href="#linearGradient4476"/><linearGradient id="linearGradient4597" x1="-497.742" x2="-488.857" y1="393.469" y2="384.781" gradientTransform="matrix(0.80000001,0,0,0.80000001,-94.62075,80.933651)" gradientUnits="userSpaceOnUse" xlink:href="#linearGradient4599"/><linearGradient id="linearGradient10448-9-7-0-5-9"><stop style="stop-color:#cf9307;stop-opacity:1" id="stop10450-3-5-6-7-0" offset="0"/><stop id="stop4609-3" offset=".25" style="stop-color:#cf9307;stop-opacity:1"/><stop id="stop10456-4-1-5-3-7" offset=".5" style="stop-color:#f7d87b;stop-opacity:1"/><stop style="stop-color:#ebb313;stop-opacity:1" id="stop4605-6" offset=".75"/><stop id="stop4607-3" offset=".875" style="stop-color:#bd7427;stop-opacity:1"/><stop style="stop-color:#bd7427;stop-opacity:1" id="stop10452-22-7-8-4-3" offset="1"/></linearGradient><linearGradient id="linearGradient4630" x1="324.16" x2="323.983" y1="529.301" y2="518.282" gradientTransform="matrix(0.85685369,0,0,1.1541848,192.92103,-214.49446)" gradientUnits="userSpaceOnUse" xlink:href="#linearGradient10448-9-7-0-5-9"/><linearGradient id="linearGradient3959" x1="-22" x2="-22" y1="24" y2="12" gradientTransform="matrix(0.5,0,0,0.5,-14,1046.8622)" gradientUnits="userSpaceOnUse" xlink:href="#linearGradient4029-5"/><linearGradient id="linearGradient4029-5"><stop style="stop-color:#ffd461;stop-opacity:1" id="stop4031-5" offset="0"/><stop id="stop3909" offset="1" style="stop-color:#fff;stop-opacity:1"/></linearGradient><linearGradient id="linearGradient3906"><stop style="stop-color:#fff;stop-opacity:1" id="stop3908" offset="0"/><stop style="stop-color:#fff;stop-opacity:0" id="stop3910" offset="1"/></linearGradient><radialGradient id="radialGradient3043" cx="11" cy="4.071" r="3" fx="11" fy="4.071" gradientTransform="matrix(4.7784067,6.31859e-7,-9.4778848e-7,7.1676099,451.00368,330.68827)" gradientUnits="userSpaceOnUse" xlink:href="#linearGradient3906"/><linearGradient id="linearGradient3094" x1="324.16" x2="323.983" y1="529.301" y2="518.282" gradientTransform="matrix(0.85685369,0,0,1.1541848,225.17522,-214.49447)" gradientUnits="userSpaceOnUse" xlink:href="#linearGradient10448-9-7-0-5"/><linearGradient id="linearGradient3096" x1="317.093" x2="322.423" y1="530.156" y2="522.236" gradientTransform="matrix(1.3338667,0,0,0.87752441,-915.77508,-69.516327)" gradientUnits="userSpaceOnUse" xlink:href="#linearGradient10748-8-2"/><linearGradient id="linearGradient3098" x1="-497.742" x2="-488.857" y1="393.469" y2="384.781" gradientTransform="matrix(0.80000001,0,0,0.80000001,-94.62075,80.933651)" gradientUnits="userSpaceOnUse" xlink:href="#linearGradient4599"/><linearGradient id="linearGradient3100" x1="-16" x2="-16" y1="1059.362" y2="1051.362" gradientTransform="matrix(0.92307692,0,0,1,23.269231,-8)" gradientUnits="userSpaceOnUse" xlink:href="#linearGradient3901-0"/><linearGradient id="linearGradient3102" x1="-16" x2="-16" y1="1059.362" y2="1051.362" gradientTransform="matrix(0.92307692,0,0,1,23.269231,-8)" gradientUnits="userSpaceOnUse" xlink:href="#linearGradient3893-0"/><linearGradient id="linearGradient3104" x1="324.16" x2="323.983" y1="529.301" y2="518.282" gradientTransform="matrix(0.85685369,0,0,1.1541848,192.92103,-214.49446)" gradientUnits="userSpaceOnUse" xlink:href="#linearGradient10448-9-7-0-5-9"/><radialGradient id="radialGradient3106" cx="11" cy="4.071" r="3" fx="11" fy="4.071" gradientTransform="matrix(4.7784067,6.31859e-7,-9.4778848e-7,7.1676099,451.00368,330.68827)" gradientUnits="userSpaceOnUse" xlink:href="#linearGradient3906"/><linearGradient id="linearGradient3108" x1="-22" x2="-22" y1="24" y2="12" gradientTransform="matrix(0.5,0,0,0.5,-14,1046.8622)" gradientUnits="userSpaceOnUse" xlink:href="#linearGradient4029-5"/><radialGradient id="radialGradient3117" cx="11" cy="4.071" r="3" fx="11" fy="4.071" gradientTransform="matrix(9.5568134,1.263718e-6,-1.895577e-6,14.33522,405.60881,287.17053)" gradientUnits="userSpaceOnUse" xlink:href="#linearGradient3906"/><linearGradient id="linearGradient3120" x1="324.16" x2="323.983" y1="529.301" y2="518.282" gradientTransform="matrix(1.7137074,0,0,2.3083696,-110.55649,-803.19493)" gradientUnits="userSpaceOnUse" xlink:href="#linearGradient10448-9-7-0-5-9"/><linearGradient id="linearGradient3128" x1="317.093" x2="322.423" y1="530.156" y2="522.236" gradientTransform="matrix(2.6677334,0,0,1.7550488,-1335.1516,-513.23866)" gradientUnits="userSpaceOnUse" xlink:href="#linearGradient10748-8-2"/><linearGradient id="linearGradient3130" x1="-497.742" x2="-488.857" y1="393.469" y2="384.781" gradientTransform="matrix(1.6,0,0,1.6,307.15705,-212.33871)" gradientUnits="userSpaceOnUse" xlink:href="#linearGradient4599"/><linearGradient id="linearGradient3134" x1="324.16" x2="323.983" y1="529.301" y2="518.282" gradientTransform="matrix(1.7137074,0,0,2.3083696,-46.04811,-803.19495)" gradientUnits="userSpaceOnUse" xlink:href="#linearGradient10448-9-7-0-5"/><linearGradient id="linearGradient3154" x1="324.16" x2="323.983" y1="529.301" y2="518.282" gradientTransform="matrix(1.7137074,0,0,2.3083696,-46.04811,-803.19495)" gradientUnits="userSpaceOnUse" xlink:href="#linearGradient10448-9-7-0-5"/><linearGradient id="linearGradient3156" x1="317.093" x2="322.423" y1="530.156" y2="522.236" gradientTransform="matrix(2.6677334,0,0,1.7550488,-1335.1516,-513.23866)" gradientUnits="userSpaceOnUse" xlink:href="#linearGradient10748-8-2"/><linearGradient id="linearGradient3158" x1="-497.742" x2="-488.857" y1="393.469" y2="384.781" gradientTransform="matrix(1.6,0,0,1.6,307.15705,-212.33871)" gradientUnits="userSpaceOnUse" xlink:href="#linearGradient4599"/><linearGradient id="linearGradient3160" x1="-16" x2="-16" y1="1059.362" y2="1051.362" gradientTransform="matrix(0.92307692,0,0,1,23.269231,-8)" gradientUnits="userSpaceOnUse" xlink:href="#linearGradient3901-0"/><linearGradient id="linearGradient3162" x1="-16" x2="-16" y1="1059.362" y2="1051.362" gradientTransform="matrix(0.92307692,0,0,1,23.269231,-8)" gradientUnits="userSpaceOnUse" xlink:href="#linearGradient3893-0"/><linearGradient id="linearGradient3164" x1="324.16" x2="323.983" y1="529.301" y2="518.282" gradientTransform="matrix(1.7137074,0,0,2.3083696,-110.55649,-803.19493)" gradientUnits="userSpaceOnUse" xlink:href="#linearGradient10448-9-7-0-5-9"/><radialGradient id="radialGradient3166" cx="11" cy="4.071" r="3" fx="11" fy="4.071" gradientTransform="matrix(9.5568134,1.263718e-6,-1.895577e-6,14.33522,405.60881,287.17053)" gradientUnits="userSpaceOnUse" xlink:href="#linearGradient3906"/><linearGradient id="linearGradient3168" x1="-22" x2="-22" y1="24" y2="12" gradientTransform="matrix(0.5,0,0,0.5,-14,1046.8622)" gradientUnits="userSpaceOnUse" xlink:href="#linearGradient4029-5"/><radialGradient id="radialGradient3177" cx="11" cy="4.071" r="3" fx="11" fy="4.071" gradientTransform="matrix(4.7784067,6.31859e-7,-9.477885e-7,7.16761,451.00369,330.68826)" gradientUnits="userSpaceOnUse" xlink:href="#linearGradient3906"/><linearGradient id="linearGradient3180" x1="324.16" x2="323.983" y1="529.301" y2="518.282" gradientTransform="matrix(0.8568537,0,0,1.1541848,192.92104,-210.91066)" gradientUnits="userSpaceOnUse" xlink:href="#linearGradient10448-9-7-0-5-9"/><linearGradient id="linearGradient3188" x1="317.093" x2="322.423" y1="530.156" y2="522.236" gradientTransform="matrix(1.3338667,0,0,0.8775244,-915.77509,-65.932534)" gradientUnits="userSpaceOnUse" xlink:href="#linearGradient10748-8-2"/><linearGradient id="linearGradient3190" x1="-497.742" x2="-488.857" y1="393.469" y2="384.781" gradientTransform="matrix(0.8,0,0,0.8,-94.620765,84.517441)" gradientUnits="userSpaceOnUse" xlink:href="#linearGradient4599"/><linearGradient id="linearGradient3194" x1="324.16" x2="323.983" y1="529.301" y2="518.282" gradientTransform="matrix(0.8568537,0,0,1.1541848,225.17523,-210.91067)" gradientUnits="userSpaceOnUse" xlink:href="#linearGradient10448-9-7-0-5"/><linearGradient id="linearGradient3196" x1="-16" x2="-16" y1="1059.362" y2="1051.362" gradientTransform="matrix(0.92307692,0,0,1,23.269231,-8)" gradientUnits="userSpaceOnUse" xlink:href="#linearGradient3901-0"/><linearGradient id="linearGradient3198" x1="-16" x2="-16" y1="1059.362" y2="1051.362" gradientTransform="matrix(0.92307692,0,0,1,23.269231,-8)" gradientUnits="userSpaceOnUse" xlink:href="#linearGradient3893-0"/></defs><metadata id="metadata7"/><g id="layer1" transform="translate(0,-1036.3622)" style="display:inline"><g style="display:inline" id="g13862" transform="matrix(0.27903303,0,0,0.27903303,-129.51159,939.94639)"><rect id="rect10007-0-74-2-7-6" width="14.335" height="10.751" x="496.399" y="388.541" rx="0" ry="0" style="fill:url(#linearGradient3194);fill-opacity:1;stroke:none;display:inline"/><path id="path4313-5-1" d="m 496.3778,399.2925 -7.14684,0.10776 0.0208,3.47604 7.14683,-0.10775 -0.0208,-3.47605 z" style="font-size:medium;font-style:normal;font-variant:normal;font-weight:400;font-stretch:normal;text-indent:0;text-align:start;text-decoration:none;line-height:normal;letter-spacing:normal;word-spacing:normal;text-transform:none;direction:ltr;block-progression:tb;writing-mode:lr-tb;text-anchor:start;baseline-shift:baseline;color:#000;fill:#9e7400;fill-opacity:1;fill-rule:evenodd;stroke:none;visibility:visible;display:inline;overflow:visible;enable-background:accumulate;font-family:sans-serif"/><rect id="rect10007-0-74-2-7-1" width="14.335" height="14.335" x="-494.607" y="386.749" rx="0" ry="0" transform="scale(-1,1)" style="fill:url(#linearGradient3188);fill-opacity:1;stroke:url(#linearGradient3190);stroke-width:3.58380508;stroke-miterlimit:4;stroke-opacity:1;stroke-dasharray:none;display:inline"/><g style="display:inline" id="g3036" transform="matrix(3.5838051,0,0,3.5838051,457.03269,-3382.9199)"><rect id="rect3123" width="12" height="7" x="2.5" y="1043.862" style="fill:url(#linearGradient3196);fill-opacity:1;stroke:url(#linearGradient3198);stroke-width:1;stroke-linejoin:miter;stroke-miterlimit:4;stroke-opacity:1;stroke-dasharray:none"/><path style="font-size:8px;font-style:normal;font-variant:normal;font-weight:700;font-stretch:normal;text-align:start;line-height:125%;letter-spacing:0;word-spacing:0;writing-mode:lr-tb;text-anchor:start;fill:#000;fill-opacity:1;stroke:none;font-family:Helvetica CY;-inkscape-font-specification:Helvetica CY Bold" id="path3048" d="m 6.873,1049.3587 -0.388518,0 -0.1183567,-0.41 c -0.2921596,0.3617 -0.5249243,0.4135 -0.9066253,0.4135 -0.482243,0 -0.85713,-0.2241 -1.124662,-0.6722 C 4.111614,1048.3151 4,1047.8678 4,1047.3481 c 0,-0.518 0.11843,-0.9636 0.35529,-1.3367 0.274351,-0.4328 0.652645,-0.6492 1.134887,-0.6492 0.453271,0 0.770779,0.1647 1.027531,0.4192 0.1565814,0.1872 0.274056,0.3449 0.355292,0.5808 0.01364,0.05 -0.01874,-0.15 0,0 l -0.8063333,0 c -0.067787,-0.131 -0.018737,-0.054 -0.1198377,-0.1667 -0.113028,-0.1013 -0.1875043,-0.1269 -0.3817623,-0.1269 -0.318656,0 -0.501257,0.1452 -0.622803,0.4023 -0.107354,0.2385 -0.1526977,0.5211 -0.1526977,0.8976 0,0.3392 0.043823,0.6074 0.1648133,0.8716 0.155066,0.339 0.279145,0.4336 0.572242,0.4336 0.24197,0 0.3874544,-0.1197 0.5531217,-0.334 0.109057,-0.1618 0.1603647,-0.2216 0.1705917,-0.4207 l -0.6189154,0.01 -0.00842,-0.5651 1.25,0"/><path style="font-size:8px;font-style:normal;font-variant:normal;font-weight:700;font-stretch:normal;text-align:start;line-height:125%;letter-spacing:0;word-spacing:0;writing-mode:lr-tb;text-anchor:start;fill:#c20000;fill-opacity:1;stroke:none;font-family:Helvetica CY;-inkscape-font-specification:Helvetica CY Bold" id="path3050" d="m 8.9,1049.3622 -0.8,0 0,-4 0.8,0 0,4"/><path style="font-size:8px;font-style:normal;font-variant:normal;font-weight:700;font-stretch:normal;text-align:start;line-height:125%;letter-spacing:0;word-spacing:0;writing-mode:lr-tb;text-anchor:start;fill:green;fill-opacity:1;stroke:none;font-family:Helvetica CY;-inkscape-font-specification:Helvetica CY Bold" id="path3052" d="m 13.378454,1046.1622 -1.478681,0 4.54e-4,3.2 -0.799813,0 -8.28e-4,-3.2 -1.115586,0 3.75e-4,-0.8 3,0 -4.53e-4,0.8"/></g><rect id="rect10007-0-74-2-7-6-6" width="14.335" height="10.751" x="464.144" y="388.541" rx="0" ry="0" style="fill:url(#linearGradient3180);fill-opacity:1;stroke:none;display:inline"/><path style="fill:url(#radialGradient3177);fill-opacity:1;stroke:none;display:inline" id="path3136" d="m 510.73377,356.28689 -10.75142,0 -7.16761,0 1e-5,7.16759 3.5838,3.58381 3.58382,0 0,3.5838 3.58379,3.58382 7.16762,0 z"/><g style="display:inline" id="g3969" transform="matrix(3.5838051,0,0,3.5838051,596.7451,-3425.9255)"><path id="path3165" d="m -25.5,1052.8622 0,2 -2,0 0,2 2,0 0,2 2,0 0,-2 2,0 0,-2 -2,0 0,-2 z" style="fill:url(#linearGradient3168);fill-opacity:1;stroke:#ac7e1e;stroke-width:1px;stroke-linecap:butt;stroke-linejoin:bevel;stroke-opacity:1"/><rect id="rect3961" width="1" height="1" x="-24" y="18" transform="translate(0,1036.3622)" style="fill:#ac7e1e;fill-opacity:1;stroke:none"/><rect id="rect3963" width="1" height="1" x="-26" y="18" transform="translate(0,1036.3622)" style="fill:#ac7e1e;fill-opacity:1;stroke:none"/><rect id="rect3965" width="1" height="1" x="-26" y="20" transform="translate(0,1036.3622)" style="fill:#ac7e1e;fill-opacity:1;stroke:none"/><rect id="rect3967" width="1" height="1" x="-24" y="20" transform="translate(0,1036.3622)" style="fill:#ac7e1e;fill-opacity:1;stroke:none"/></g></g></g></svg>