<svg xmlns="http://www.w3.org/2000/svg" xmlns:svg="http://www.w3.org/2000/svg" xmlns:xlink="http://www.w3.org/1999/xlink" id="svg2" width="7" height="8" version="1.1"><defs id="defs4"><linearGradient id="linearGradient8163-2" x1="388.637" x2="388.637" y1="477.798" y2="458.707" gradientUnits="userSpaceOnUse" xlink:href="#linearGradient10798-1-9-3-7-1-15-1-7-6-1"/><linearGradient id="linearGradient10798-1-9-3-7-1-15-1-7-6-1"><stop style="stop-color:#e96a6e;stop-opacity:1" id="stop10800-5-2-1-8-2-8-1-7-3-7" offset="0"/><stop id="stop10806-6-8-5-3-2-95-0-5-4-8" offset=".5" style="stop-color:#eb5560;stop-opacity:1"/><stop style="stop-color:#eb7c7c;stop-opacity:1" id="stop10802-1-5-3-0-2-0-9-8-4-3" offset="1"/></linearGradient><linearGradient id="linearGradient4885" x1="397.694" x2="397.694" y1="477.798" y2="456.586" gradientUnits="userSpaceOnUse" xlink:href="#linearGradient4879"/><linearGradient id="linearGradient4879"><stop style="stop-color:#ce2837;stop-opacity:1" id="stop4881" offset="0"/><stop style="stop-color:#cf5a52;stop-opacity:1" id="stop4883" offset="1"/></linearGradient><linearGradient id="linearGradient4224" x1="388.637" x2="388.637" y1="477.798" y2="458.707" gradientUnits="userSpaceOnUse" xlink:href="#linearGradient10798-1-9-3-7-1-15-1-7-6-1"/><linearGradient id="linearGradient4226" x1="397.694" x2="397.694" y1="477.798" y2="456.586" gradientUnits="userSpaceOnUse" xlink:href="#linearGradient4879"/></defs><metadata id="metadata7"/><g id="layer1" transform="translate(0,-1044.3622)"><rect style="opacity:1;fill:#fff;fill-opacity:1;stroke:none;stroke-opacity:1" id="rect3347" width="7" height="8" x="0" y="1044.362"/><path style="fill:url(#linearGradient4224);fill-opacity:1;stroke:url(#linearGradient4226);stroke-width:3.54317931;stroke-linecap:round;stroke-linejoin:round;stroke-miterlimit:4;stroke-opacity:1;stroke-dasharray:none;stroke-dashoffset:0;display:inline" id="path10796-2-6-0" d="m 398.75,468.23718 a 10.625,10.625 0 0 1 -10.625,10.625 10.625,10.625 0 0 1 -10.625,-10.625 10.625,10.625 0 0 1 10.625,-10.625 10.625,10.625 0 0 1 10.625,10.625 z" transform="matrix(0.2822324,0,0,0.2822324,-106.05236,915.70312)"/><rect style="fill:#fff;fill-opacity:1;stroke:none;display:inline" id="rect4110" width="3.484" height=".996" x="1.754" y="1047.361"/></g></svg>