<svg xmlns="http://www.w3.org/2000/svg" xmlns:svg="http://www.w3.org/2000/svg" xmlns:xlink="http://www.w3.org/1999/xlink" id="svg2" width="8" height="8" version="1.1"><defs id="defs4"><linearGradient id="linearGradient7584-5-1"><stop style="stop-color:#f9cd5f;stop-opacity:1" id="stop7586-4-6" offset="0"/><stop style="stop-color:#ffebb7;stop-opacity:1" id="stop7588-5-8" offset="1"/></linearGradient><linearGradient id="linearGradient7592-1-2"><stop style="stop-color:#bd8416;stop-opacity:1" id="stop7594-6-7" offset="0"/><stop style="stop-color:#a66b10;stop-opacity:1" id="stop7596-9-7" offset="1"/></linearGradient><linearGradient id="linearGradient3022" x1="22.519" x2="22.519" y1="1042.028" y2="1040.735" gradientTransform="matrix(-0.99178444,0,0,1.0315414,33.759534,-32.216772)" gradientUnits="userSpaceOnUse" xlink:href="#linearGradient7584-5-1"/><linearGradient id="linearGradient3024" x1="23.551" x2="23.551" y1="1037.362" y2="1045.362" gradientTransform="matrix(-0.99178444,0,0,1.0315414,33.759534,-32.216772)" gradientUnits="userSpaceOnUse" xlink:href="#linearGradient7592-1-2"/><linearGradient id="linearGradient3865"><stop style="stop-color:#fff;stop-opacity:1" id="stop3867" offset="0"/><stop style="stop-color:#72e57f;stop-opacity:1" id="stop3869" offset="1"/></linearGradient><linearGradient id="linearGradient5591-4"><stop style="stop-color:#e0e566;stop-opacity:1" id="stop5593-0" offset="0"/><stop style="stop-color:#82c448;stop-opacity:1" id="stop5595-5" offset="1"/></linearGradient><linearGradient id="linearGradient5583-2"><stop style="stop-color:#426e4a;stop-opacity:1" id="stop5585-3" offset="0"/><stop style="stop-color:#669f71;stop-opacity:1" id="stop5587-3" offset="1"/></linearGradient><linearGradient id="linearGradient3011" x1="2.031" x2="2.031" y1="6.94" y2="9.144" gradientTransform="matrix(1.9375158,0,0,2.0245922,-31.278937,1025.575)" gradientUnits="userSpaceOnUse" xlink:href="#linearGradient5591-4"/><linearGradient id="linearGradient3013" x1="2.031" x2="2.031" y1="9.144" y2="4.672" gradientTransform="matrix(1.9375158,0,0,2.0245922,-31.278937,1025.575)" gradientUnits="userSpaceOnUse" xlink:href="#linearGradient5583-2"/><linearGradient id="linearGradient5591-4-9"><stop style="stop-color:#e0e566;stop-opacity:1" id="stop5593-0-3" offset="0"/><stop style="stop-color:#82c448;stop-opacity:1" id="stop5595-5-9" offset="1"/></linearGradient><linearGradient id="linearGradient5583-2-6"><stop style="stop-color:#296133;stop-opacity:1" id="stop5585-3-4" offset="0"/><stop style="stop-color:#377844;stop-opacity:1" id="stop5587-3-0" offset="1"/></linearGradient><linearGradient id="linearGradient3011-8" x1="2.031" x2="1.972" y1="6.94" y2="9.282" gradientTransform="matrix(1.9375158,0,0,2.0245809,-24.345295,1035.2196)" gradientUnits="userSpaceOnUse" xlink:href="#linearGradient5591-4-9"/><linearGradient id="linearGradient3013-2" x1="1.972" x2="1.972" y1="9.282" y2="4.837" gradientTransform="matrix(1.9375158,0,0,2.0245809,-24.345295,1035.2196)" gradientUnits="userSpaceOnUse" xlink:href="#linearGradient5583-2-6"/><linearGradient id="linearGradient3977" x1="22.519" x2="22.582" y1="1037.484" y2="1043.34" gradientTransform="matrix(-0.8678962,0,0,0.880841,6.3089363,122.10183)" gradientUnits="userSpaceOnUse" xlink:href="#linearGradient5591-4-9"/><linearGradient id="linearGradient3984" x1="22.519" x2="22.582" y1="1037.484" y2="1043.34" gradientTransform="matrix(-0.8678962,0,0,0.880841,4.3677777,130.09725)" gradientUnits="userSpaceOnUse" xlink:href="#linearGradient3865"/><linearGradient id="linearGradient3977-2" x1="22.519" x2="22.582" y1="1037.484" y2="1043.34" gradientTransform="matrix(-0.8678962,0,0,0.880841,6.3089363,122.10183)" gradientUnits="userSpaceOnUse" xlink:href="#linearGradient5591-4-9-5"/><linearGradient id="linearGradient5591-4-9-5"><stop style="stop-color:#e0e566;stop-opacity:1" id="stop5593-0-3-9" offset="0"/><stop style="stop-color:#82c448;stop-opacity:1" id="stop5595-5-9-9" offset="1"/></linearGradient></defs><metadata id="metadata7"/><g id="layer1" transform="translate(0,-1044.3622)" style="display:inline"><g id="g3979" transform="translate(19.972259,2.0319218)"><path id="path7582-7" d="m -15.483079,1044.1101 c 0,0 -0.06177,-0.5239 0.570417,0.027 0.848781,0.7407 1.964398,1.8187 2.159824,2.1056 0.224306,0.3291 0.560859,0.6576 -0.07133,1.3391 -0.836119,0.9013 -1.841086,1.8017 -1.841086,1.8017 0,0 -0.863068,0.9689 -0.83727,-0.047 l 0.03101,-1.2213 c -1.185896,-0.055 -2.101088,0.4222 -2.400562,0.7157 -0.299842,0.2938 -0.705165,0.882 -1.057748,0.9922 -0.352583,0.11 -0.542435,-1.0748 -0.542435,-1.4601 0,-0.3854 0.151702,-1.0958 0.6238,-1.7341 0.254765,-0.3446 0.873599,-0.8417 1.328966,-0.9688 0.455367,-0.1272 2.036414,-0.051 2.036414,-0.051 z" style="fill:url(#linearGradient3984);fill-opacity:1;stroke:#4a9045;stroke-width:1;stroke-linecap:butt;stroke-linejoin:miter;stroke-miterlimit:4;stroke-opacity:1;stroke-dasharray:none"/><g id="g3071" transform="translate(0.42388073,0.41389757)"><path style="opacity:.85714285;fill:#fff;fill-opacity:1;stroke:none" id="path7602-5" d="m -15.41946,1045.2462 0,-0.5094 c 0,0 -0.04088,-0.3084 0.231762,-0.1951 0.461442,0.3641 0.865616,0.8356 1.032547,1.0835 0.127202,0.1889 -0.736469,0.2153 -1.037136,0.044 -0.139069,-0.079 -0.227173,-0.423 -0.227173,-0.423 z"/></g></g></g></svg>