<svg xmlns="http://www.w3.org/2000/svg" xmlns:svg="http://www.w3.org/2000/svg" xmlns:xlink="http://www.w3.org/1999/xlink" id="svg2" width="8" height="8" version="1.1"><defs id="defs4"><linearGradient id="linearGradient4852-7-2"><stop style="stop-color:#ccc;stop-opacity:1" id="stop4854-4-6" offset="0"/><stop style="stop-color:#eee;stop-opacity:1" id="stop4856-0-9" offset="1"/></linearGradient><radialGradient id="radialGradient3811" cx="14.5" cy="1041.862" r="3.5" fx="14.5" fy="1041.862" gradientTransform="matrix(2.1428592,-0.14306219,0.14307412,2.1430807,-175.63499,-1181.8575)" gradientUnits="userSpaceOnUse" xlink:href="#linearGradient4852-7-2"/><linearGradient id="linearGradient4852-7-29-2"><stop style="stop-color:#707070;stop-opacity:1" id="stop4854-4-4-4" offset="0"/><stop style="stop-color:#a0a0a0;stop-opacity:1" id="stop4856-0-8-8" offset="1"/></linearGradient><linearGradient id="linearGradient4844-4-9-7"><stop style="stop-color:#313131;stop-opacity:1" id="stop4846-8-5-5" offset="0"/><stop style="stop-color:#696969;stop-opacity:1" id="stop4848-8-5-7" offset="1"/></linearGradient><linearGradient id="linearGradient3886" x1="4.753" x2="4.753" y1="1051.047" y2="1038.581" gradientTransform="matrix(0.60372264,0,0,0.60372264,-0.70187806,418.92019)" gradientUnits="userSpaceOnUse" xlink:href="#linearGradient4852-7-29-2"/><linearGradient id="linearGradient3888" x1="8.657" x2="8.657" y1="1050.739" y2="1037.7" gradientTransform="matrix(0.60372264,0,0,0.60372264,-0.70187806,418.92019)" gradientUnits="userSpaceOnUse" xlink:href="#linearGradient4844-4-9-7"/></defs><metadata id="metadata7"/><g id="layer1" transform="translate(0,-1044.3622)" style="display:inline"><rect style="fill:url(#radialGradient3811);fill-opacity:1;stroke:none" id="rect3035" width="7" height="7" x="1" y="1045.362" rx="2" ry="2"/><path style="fill:url(#linearGradient3886);fill-opacity:1;stroke:url(#linearGradient3888);stroke-width:.70916849;stroke-linecap:round;stroke-linejoin:miter;stroke-miterlimit:4;stroke-opacity:1;stroke-dasharray:none;stroke-dashoffset:0;display:inline" id="rect4043-2-7-1" d="m 6.5058311,1045.8535 -2.005831,2.0058 -2.0058314,-2.0058 c -0.5014579,-0.5015 -1.50437366,0.5014 -1.0029158,1.0029 l 2.0058312,2.0058 -2.0058312,2.0058 c -0.50145786,0.5015 0.5014579,1.5044 1.0029158,1.0029 l 2.0058314,-2.0058 2.005831,2.0058 c 0.501458,0.5015 1.504374,-0.5014 1.002916,-1.0029 l -2.005831,-2.0058 2.005831,-2.0058 c 0.501458,-0.5015 -0.501458,-1.5044 -1.002916,-1.0029 z"/></g></svg>