<svg xmlns="http://www.w3.org/2000/svg" xmlns:svg="http://www.w3.org/2000/svg" xmlns:xlink="http://www.w3.org/1999/xlink" id="svg2" width="16" height="16" version="1.1"><defs id="defs4"><linearGradient id="linearGradient3865"><stop style="stop-color:#fff;stop-opacity:1" id="stop3867" offset="0"/><stop style="stop-color:#72e57f;stop-opacity:1" id="stop3869" offset="1"/></linearGradient><linearGradient id="linearGradient4029"><stop style="stop-color:#ffd461;stop-opacity:1" id="stop4031" offset="0"/><stop id="stop3909" offset="1" style="stop-color:#ffe9b0;stop-opacity:1"/></linearGradient><linearGradient id="linearGradient3121" x1="-34" x2="3.95" y1="14" y2="14.032" gradientTransform="matrix(0.5,0,0,0.5,17.537627,1040.3621)" gradientUnits="userSpaceOnUse" xlink:href="#linearGradient3865"/><linearGradient id="linearGradient3123" x1="-17" x2="-17" y1="9" y2="-7" gradientTransform="matrix(0.5,0,0,0.46875,14.012603,1040.1593)" gradientUnits="userSpaceOnUse" xlink:href="#linearGradient4029"/></defs><metadata id="metadata7"/><g id="layer1" transform="translate(0,-1036.3622)" style="display:inline"><g id="g3116" transform="translate(-2,-2.5082885e-5)"><path id="path3873" d="m 5.5376265,1051.8621 3.9999999,-4 -0.9999999,0 -2.0250235,0.016 0,-2 6,0 0,-9 -2,0 0,7 -4,0 c -0.6666665,0 -1.3333335,0 -2,0 l 0.025025,3.984 -1.9999995,0 -1,0 z" style="fill:url(#linearGradient3121);fill-opacity:1;stroke:#4a9045;stroke-width:1;stroke-linecap:butt;stroke-linejoin:bevel;stroke-miterlimit:4;stroke-opacity:1;stroke-dasharray:none"/><path id="path3868" d="m 4.512603,1044.3781 0,-7.5 2,0 0,7.5 z" style="fill:url(#linearGradient3123);fill-opacity:1;stroke:none"/><path id="path3098" d="m 4.512603,1044.3781 0,-7.5 2,0 0,7.5 0,0 0,0 0,-7.5 -2,0 z" style="fill:none;stroke:#ac7e1e;stroke-width:1;stroke-linecap:butt;stroke-linejoin:bevel;stroke-miterlimit:4;stroke-opacity:1;stroke-dasharray:none"/></g><g id="g3901"><rect id="rect3125" width="4" height="1" x="12" y="15" transform="translate(0,1036.3622)" style="fill:#005596;fill-opacity:1;stroke:none"/><rect id="rect3895" width="2" height="4" x="13" y="11" transform="translate(0,1036.3622)" style="fill:#005596;fill-opacity:1;stroke:none"/><rect id="rect3897" width="3" height="1" x="12" y="10" transform="translate(0,1036.3622)" style="fill:#005596;fill-opacity:1;stroke:none"/><rect id="rect3899" width="2" height="2" x="13" y="7" transform="translate(0,1036.3622)" style="fill:#005596;fill-opacity:1;stroke:none"/></g></g></svg>