<svg xmlns="http://www.w3.org/2000/svg" xmlns:svg="http://www.w3.org/2000/svg" xmlns:xlink="http://www.w3.org/1999/xlink" id="svg2" width="75" height="66" version="1.1"><defs id="defs4"><linearGradient id="linearGradient3957"><stop id="stop3959" offset="0" style="stop-color:#fff;stop-opacity:1"/><stop id="stop3961" offset="1" style="stop-color:#fff;stop-opacity:.86666667"/></linearGradient><linearGradient id="linearGradient4978" x1="88.22" x2="163.22" y1="1032.267" y2="1032.267" gradientTransform="translate(-88.220116,-999.2669)" gradientUnits="userSpaceOnUse" xlink:href="#linearGradient4972-7"/><linearGradient id="linearGradient4972-7"><stop style="stop-color:#b8ccf1;stop-opacity:.10196079" id="stop4974-8" offset="0"/><stop style="stop-color:#6e97e2;stop-opacity:.10196079" id="stop4976-1" offset="1"/></linearGradient><linearGradient id="linearGradient4970" x1="118.386" x2="163.22" y1="1032.184" y2="1032.267" gradientTransform="translate(-88.220117,-999.2669)" gradientUnits="userSpaceOnUse" xlink:href="#linearGradient4964-3"/><linearGradient id="linearGradient4964-3"><stop style="stop-color:#fff;stop-opacity:.349" id="stop4966-1" offset="0"/><stop style="stop-color:#91ade6;stop-opacity:1" id="stop4968-1" offset="1"/></linearGradient><linearGradient id="linearGradient4962" x1="88.22" x2="163.22" y1="1042.797" y2="1042.797" gradientTransform="translate(-88.220116,-999.2669)" gradientUnits="userSpaceOnUse" xlink:href="#linearGradient4956-2"/><linearGradient id="linearGradient4956-2"><stop style="stop-color:#fcfdfe;stop-opacity:.25641027" id="stop4958-5" offset="0"/><stop style="stop-color:#98aae7;stop-opacity:.40392157" id="stop4960-6" offset="1"/></linearGradient><filter id="filter4285-9-8" width="1.202" height="1.201" x="-.1" y="-.101" style="color-interpolation-filters:sRGB"><feGaussianBlur id="feGaussianBlur4287-9-5" stdDeviation=".1"/></filter><linearGradient id="linearGradient5961"><stop style="stop-color:#f7e26b;stop-opacity:1" id="stop5963" offset="0"/><stop id="stop5965" offset=".174" style="stop-color:#f7e26b;stop-opacity:1"/><stop id="stop5967" offset=".347" style="stop-color:#fcf89d;stop-opacity:1"/><stop id="stop5969" offset=".5" style="stop-color:#fcf89d;stop-opacity:1"/><stop style="stop-color:#f6e567;stop-opacity:1" id="stop5971" offset=".638"/><stop id="stop5973" offset=".819" style="stop-color:#f1c32f;stop-opacity:1"/><stop style="stop-color:#f1c32f;stop-opacity:1" id="stop5975" offset="1"/></linearGradient><linearGradient id="linearGradient4721-1"><stop id="stop4723-2" offset="0" style="stop-color:#b5803b;stop-opacity:1"/><stop id="stop4725-1" offset="1" style="stop-color:#c99d19;stop-opacity:1"/></linearGradient><linearGradient id="linearGradient3003" x1="-39" x2="-10" y1="27" y2="11" gradientTransform="matrix(0.5,0,0,-0.5,62,1035.3623)" gradientUnits="userSpaceOnUse" xlink:href="#linearGradient3865-6"/><linearGradient id="linearGradient4456-3"><stop style="stop-color:#bbb;stop-opacity:.65882355" id="stop4458-5" offset="0"/><stop style="stop-color:#bbb;stop-opacity:.36862746" id="stop4460-9" offset="1"/></linearGradient><filter id="filter4606-1" width="1.126" height="1.218" x="-.063" y="-.109" color-interpolation-filters="sRGB"><feGaussianBlur id="feGaussianBlur4608-8" stdDeviation="1.541"/></filter><linearGradient id="linearGradient4097" x1="55.579" x2="53.631" y1="1039.362" y2="992.406" gradientTransform="matrix(1,0,-0.72750163,1,733.40264,2.0004)" gradientUnits="userSpaceOnUse" xlink:href="#linearGradient4456-3"/><linearGradient id="linearGradient4029-7"><stop style="stop-color:#ffd461;stop-opacity:1" id="stop4031" offset="0"/><stop style="stop-color:#fff;stop-opacity:1" id="stop4033" offset="1"/></linearGradient><linearGradient id="linearGradient3950"><stop style="stop-color:#e3a300;stop-opacity:1" id="stop3952" offset="0"/><stop style="stop-color:#f1ae00;stop-opacity:1" id="stop3954" offset="1"/></linearGradient><linearGradient id="linearGradient3957-2"><stop id="stop3959-2" offset="0" style="stop-color:#fff;stop-opacity:1"/><stop id="stop3961-1" offset="1" style="stop-color:#fff;stop-opacity:.86666667"/></linearGradient><linearGradient id="linearGradient4015" x1="673.61" x2="696.684" y1="460.616" y2="460.616" gradientTransform="matrix(0.72898671,0,0,0.58708388,-436.01764,746.71644)" gradientUnits="userSpaceOnUse" xlink:href="#linearGradient5961"/><linearGradient id="linearGradient4017" x1="690.186" x2="690.186" y1="484.134" y2="438.441" gradientTransform="matrix(0.7012576,0,0,0.57573917,-416.90318,751.92581)" gradientUnits="userSpaceOnUse" xlink:href="#linearGradient4721-1"/><linearGradient id="linearGradient4183" x1="80.969" x2="83" y1="-8.281" y2="-4" gradientTransform="matrix(0.5,0,0,0.5,8.515625,1002.5029)" gradientUnits="userSpaceOnUse" xlink:href="#linearGradient3957-2"/><linearGradient id="linearGradient4186" x1="80.125" x2="83" y1="-8" y2="-4" gradientTransform="matrix(0.5,0,0,0.5,-0.0625,996.3622)" gradientUnits="userSpaceOnUse" xlink:href="#linearGradient3957"/><radialGradient id="radialGradient4189" cx="-11.93" cy="12.162" r="8" fx="-11.93" fy="12.162" gradientTransform="matrix(2.5401977,-3.0924142,3.5,2.8749998,24.799091,934.94085)" gradientUnits="userSpaceOnUse" xlink:href="#linearGradient4029-7"/><linearGradient id="linearGradient4191" x1="-16.531" x2="-1.531" y1="5.578" y2="5.578" gradientTransform="matrix(2,0,0,2,55.5625,988.6118)" gradientUnits="userSpaceOnUse" xlink:href="#linearGradient3950"/><linearGradient id="linearGradient3865-6"><stop style="stop-color:#fff;stop-opacity:1" id="stop3867-5" offset="0"/><stop style="stop-color:#72e57f;stop-opacity:1" id="stop3869-7" offset="1"/></linearGradient><linearGradient id="linearGradient4041" x1="63.735" x2="61.727" y1="1039.362" y2="1006.362" gradientTransform="matrix(1,0,-0.72750163,1,733.40264,2.0004)" gradientUnits="userSpaceOnUse" xlink:href="#linearGradient4456"/><linearGradient id="linearGradient4456"><stop style="stop-color:#bbb;stop-opacity:.65882355" id="stop4458" offset="0"/><stop style="stop-color:#bbb;stop-opacity:.36862746" id="stop4460" offset="1"/></linearGradient><filter id="filter4606" width="1.126" height="1.218" x="-.063" y="-.109" color-interpolation-filters="sRGB"><feGaussianBlur id="feGaussianBlur4608" stdDeviation="1.541"/></filter><linearGradient id="linearGradient4043" x1="12" x2="29" y1="26" y2="21" gradientTransform="matrix(1.4358218,0,0,1.270043,-3.499458,-7.3507277)" gradientUnits="userSpaceOnUse" xlink:href="#linearGradient4199"/><linearGradient id="linearGradient4199"><stop style="stop-color:#765d54;stop-opacity:1" id="stop4201" offset="0"/><stop id="stop4207" offset=".493" style="stop-color:#c5b7ae;stop-opacity:1"/><stop style="stop-color:#765d54;stop-opacity:1" id="stop4203" offset="1"/></linearGradient><linearGradient id="linearGradient4045" x1="11.927" x2="1.014" y1="67.149" y2="30.178" gradientTransform="matrix(1.0044289,0,0,1.0089329,10.981389,-7.447563)" gradientUnits="userSpaceOnUse" xlink:href="#linearGradient4894"/><linearGradient id="linearGradient4894"><stop id="stop4896" offset="0" style="stop-color:#000;stop-opacity:1"/><stop style="stop-color:#f3da70;stop-opacity:1" id="stop5248" offset=".303"/><stop style="stop-color:#f5e499;stop-opacity:1" id="stop5246" offset=".722"/><stop id="stop4898" offset="1" style="stop-color:#fff;stop-opacity:1"/></linearGradient><linearGradient id="linearGradient4047" x1="5" x2="5" y1="64" y2="32" gradientTransform="matrix(1.0067606,0,0,1.0132311,10.880208,-7.5854333)" gradientUnits="userSpaceOnUse" xlink:href="#linearGradient5252"/><linearGradient id="linearGradient5252"><stop style="stop-color:#5f443c;stop-opacity:1" id="stop5254" offset="0"/><stop style="stop-color:#765d54;stop-opacity:1" id="stop5256" offset="1"/></linearGradient><filter id="filter5309" width="1.826" height="2.376" x="-.413" y="-.688" color-interpolation-filters="sRGB"><feGaussianBlur id="feGaussianBlur5311" stdDeviation="2.58"/></filter><linearGradient id="linearGradient4049" x1="72.098" x2="49.569" y1="86.552" y2="40.099" gradientTransform="matrix(1,0,0,1.0179005,6.5979291,-9.4754449)" gradientUnits="userSpaceOnUse" xlink:href="#linearGradient4944"/><linearGradient id="linearGradient4944"><stop style="stop-color:#000;stop-opacity:1" id="stop4908" offset="0"/><stop id="stop4948" offset=".282" style="stop-color:#d3b573;stop-opacity:1"/><stop id="stop4946" offset=".862" style="stop-color:#fde29e;stop-opacity:1"/><stop style="stop-color:#fff;stop-opacity:1" id="stop4910" offset="1"/></linearGradient><linearGradient id="linearGradient4051" x1="60.343" x2="60.806" y1="74.47" y2="44.682" gradientTransform="matrix(1,0,0,1.0179005,6.5979291,-9.4754449)" gradientUnits="userSpaceOnUse" xlink:href="#linearGradient4950"/><linearGradient id="linearGradient4950"><stop style="stop-color:#6a5148;stop-opacity:1" id="stop4952" offset="0"/><stop style="stop-color:#978379;stop-opacity:1" id="stop4954" offset="1"/></linearGradient></defs><metadata id="metadata7"/><g id="layer2" style="display:inline"><path id="rect4113-1" d="M 75,0 75,66 1e-6,66 C 1e-6,41.2048 50.00969,0 75,0 Z" style="display:inline;fill:url(#linearGradient4978);fill-opacity:1;stroke:none"/><path id="rect4113-1-0" d="M 75,21.0607 75,66 1e-6,66 C 10.625001,47.804 43.509694,25.4357 75,21.0607 Z" style="display:inline;opacity:.40400002;fill:url(#linearGradient4962);fill-opacity:1;stroke:none"/><path id="rect4113-1-7" d="M 75,4.0000001e-7 75,66 30.000003,66 C 30.000003,46.1545 47.70944,9.2500004 75,4e-7 Z" style="display:inline;opacity:.18399999;fill:url(#linearGradient4970);fill-opacity:1;stroke:none"/></g><g id="layer1" transform="translate(0,-986.3622)" style="display:inline"><path style="fill:url(#linearGradient3003);fill-opacity:1;stroke:#4a9045;stroke-width:1;stroke-linecap:butt;stroke-linejoin:miter;stroke-miterlimit:4;stroke-opacity:1;stroke-dasharray:none;display:inline" id="path3873" d="m 58.5,1016.8625 0,11.9999 -11,-2e-4 0,4 -6,-6 6,-6 c 0,1 0,3 0,4 l 7,2e-4 0,-7.9999"/><g id="g4193" transform="translate(20,4.2504)"><path id="path4126" d="m 36.625,989.5492 c -3.30084,0 -6.004532,2.021 -6.3125,4.5626 C 28.946496,995.0256 28,996.901 28,999.0492 c 0,0.2696 0.03404,0.4908 0.0625,0.75 -0.27097,-0.05 -0.527762,-0.062 -0.8125,-0.062 -2.626566,0 -4.75,2.154 -4.75,4.875 0,2.7208 2.123434,4.9374 4.75,4.9374 0.516994,0 0.971486,-0.092 1.4375,-0.25 1.968532,0.4422 4.401108,0.6876 7.0625,0.6876 3.097014,0 5.903052,-0.3572 8,-0.9376 0.822276,0.4886 1.761878,0.8126 2.75,0.8126 3.318594,0 6,-3.1 6,-6.9376 0,-3.8376 -2.681406,-7 -6,-7 -0.5531,0 -1.116356,0.15 -1.625,0.3126 -0.09916,-0.7912 -0.831102,-1.4434 -1.9375,-1.875 -0.16286,-2.6536 -2.909912,-4.8126 -6.3125,-4.8126 z" style="fill:url(#radialGradient4189);fill-opacity:1;stroke:url(#linearGradient4191);stroke-width:1;stroke-linejoin:round;stroke-miterlimit:4;stroke-dasharray:none;display:inline"/><path id="path3947" d="m 37.4375,990.3622 c 0,0 1.21875,0 1.96875,0.25 0.75,0.25 1.662703,0.97072 2.09375,1.53125 0.572147,0.74402 0.9375,2.71875 0.9375,2.71875 0,0 -0.675584,-0.0766 -1,0 -0.362708,0.0856 -1,0.5 -1,0.5 0,0 0.109375,-1.32812 -0.07813,-1.95312 -0.1875,-0.625 -0.595118,-1.30206 -1,-1.6875 -0.656007,-0.62453 -1.92187,-1.35938 -1.92187,-1.35938 z" style="fill:url(#linearGradient4186);fill-opacity:1;stroke:none"/><path id="path3947-1" d="m 46.015625,996.50283 c 0,0 1.21875,0 1.96875,0.25 0.75,0.25 1.662705,0.97071 2.09375,1.53125 0.57215,0.74402 0.9375,2.71882 0.9375,2.71882 0,0 -0.675585,-0.077 -1,0 -0.36271,0.086 -1,0.5 -1,0.5 0,0 0.109375,-1.3282 -0.07813,-1.9532 -0.1875,-0.625 -0.595118,-1.30205 -1,-1.6875 -0.656012,-0.62452 -1.921875,-1.35937 -1.921875,-1.35937 z" style="fill:url(#linearGradient4183);fill-opacity:1;stroke:none;display:inline"/></g><g style="display:inline" id="g3083" transform="translate(0.98424163,10.953483)"><path id="rect10961-8-3-6-1" d="m 47.000294,1007.3622 -12.319149,16.9335 -12.416197,17.0669 16.933329,0 17.066666,0 12.416197,-17.0669 0.09676,-0.133 12.2221,-16.8001 -17.066666,0 -16.933329,0 z" transform="matrix(0.76852909,0,0.05870911,0.23426091,-77.090255,785.86486)" style="font-size:13.58917427px;font-style:normal;font-weight:400;line-height:125%;letter-spacing:0;word-spacing:0;fill:url(#linearGradient4041);fill-opacity:1;stroke:none;display:inline;filter:url(#filter4606);font-family:Sans"/><g id="g3167" transform="matrix(0.64,0,0,0.64,-9.7234074,370.51213)"><g id="g4451" transform="translate(6,-14.017696)"><g id="g5348" transform="translate(0,986.3622)"><path style="fill:#fffabf;fill-opacity:1;fill-rule:evenodd;stroke:url(#linearGradient4043);stroke-width:1.56249988;stroke-linecap:butt;stroke-linejoin:bevel;stroke-miterlimit:4;stroke-opacity:1;stroke-dasharray:none" id="path5250" d="m 14.403025,25.481913 3.760593,-4.964217 16.536826,0 3.904565,4.964217 z"/><rect style="fill:url(#linearGradient4045);fill-opacity:1;stroke:url(#linearGradient4047);stroke-width:1.5625;stroke-linejoin:bevel;stroke-miterlimit:4;stroke-opacity:1;stroke-dasharray:none" id="rect4876" width="41.86" height="31" x="11.64" y="25.5" rx="3.249" ry="3.249"/><ellipse style="fill:#fff;fill-opacity:1;stroke:none;filter:url(#filter5309)" id="path5111" cx="23.692" cy="8.308" d="m 31.191999,8.3080006 c 0,2.4852814 -3.357864,4.5000004 -7.5,4.5000004 -4.142135,0 -7.5,-2.014719 -7.5,-4.5000004 0,-2.4852814 3.357865,-4.5 7.5,-4.5 4.142136,0 7.5,2.0147186 7.5,4.5 z" rx="7.5" ry="4.5" transform="matrix(1,0,0,0.38855855,-0.99999923,21.926323)"/></g><rect id="rect4932" width="41.815" height="27.408" x="42.8" y="37.01" rx="2.847" ry="2.847" transform="matrix(1,0,-0.47943731,0.87757613,0,986.3622)" style="fill:url(#linearGradient4049);fill-opacity:1;stroke:url(#linearGradient4051);stroke-width:1.66792929;stroke-linejoin:bevel;stroke-miterlimit:4;stroke-opacity:1;stroke-dasharray:none"/></g></g></g></g></svg>