<svg xmlns="http://www.w3.org/2000/svg" xmlns:svg="http://www.w3.org/2000/svg" xmlns:xlink="http://www.w3.org/1999/xlink" id="svg2" width="75" height="66" version="1.1"><defs id="defs4"><linearGradient id="linearGradient3957"><stop id="stop3959" offset="0" style="stop-color:#fff;stop-opacity:1"/><stop id="stop3961" offset="1" style="stop-color:#fff;stop-opacity:.86666667"/></linearGradient><linearGradient id="linearGradient4978" x1="88.22" x2="163.22" y1="1032.267" y2="1032.267" gradientTransform="translate(-88.220116,-999.2669)" gradientUnits="userSpaceOnUse" xlink:href="#linearGradient4972-7"/><linearGradient id="linearGradient4972-7"><stop style="stop-color:#b8ccf1;stop-opacity:.10196079" id="stop4974-8" offset="0"/><stop style="stop-color:#6e97e2;stop-opacity:.10196079" id="stop4976-1" offset="1"/></linearGradient><linearGradient id="linearGradient4970" x1="118.386" x2="163.22" y1="1032.184" y2="1032.267" gradientTransform="translate(-88.220117,-999.2669)" gradientUnits="userSpaceOnUse" xlink:href="#linearGradient4964-3"/><linearGradient id="linearGradient4964-3"><stop style="stop-color:#fff;stop-opacity:.349" id="stop4966-1" offset="0"/><stop style="stop-color:#91ade6;stop-opacity:1" id="stop4968-1" offset="1"/></linearGradient><linearGradient id="linearGradient4962" x1="88.22" x2="163.22" y1="1042.797" y2="1042.797" gradientTransform="translate(-88.220116,-999.2669)" gradientUnits="userSpaceOnUse" xlink:href="#linearGradient4956-2"/><linearGradient id="linearGradient4956-2"><stop style="stop-color:#fcfdfe;stop-opacity:.25641027" id="stop4958-5" offset="0"/><stop style="stop-color:#98aae7;stop-opacity:.40392157" id="stop4960-6" offset="1"/></linearGradient><filter id="filter4285-9-8" width="1.202" height="1.201" x="-.1" y="-.101" style="color-interpolation-filters:sRGB"><feGaussianBlur id="feGaussianBlur4287-9-5" stdDeviation=".1"/></filter><linearGradient id="linearGradient5961"><stop style="stop-color:#f7e26b;stop-opacity:1" id="stop5963" offset="0"/><stop id="stop5965" offset=".174" style="stop-color:#f7e26b;stop-opacity:1"/><stop id="stop5967" offset=".347" style="stop-color:#fcf89d;stop-opacity:1"/><stop id="stop5969" offset=".5" style="stop-color:#fcf89d;stop-opacity:1"/><stop style="stop-color:#f6e567;stop-opacity:1" id="stop5971" offset=".638"/><stop id="stop5973" offset=".819" style="stop-color:#f1c32f;stop-opacity:1"/><stop style="stop-color:#f1c32f;stop-opacity:1" id="stop5975" offset="1"/></linearGradient><linearGradient id="linearGradient4721-1"><stop id="stop4723-2" offset="0" style="stop-color:#b5803b;stop-opacity:1"/><stop id="stop4725-1" offset="1" style="stop-color:#c99d19;stop-opacity:1"/></linearGradient><linearGradient id="linearGradient3003" x1="-41.5" x2="-17.5" y1="26.049" y2="12.049" gradientTransform="matrix(0.5,0,0,-0.5,50.5,1027.8623)" gradientUnits="userSpaceOnUse" xlink:href="#linearGradient3865"/><linearGradient id="linearGradient4456-3"><stop style="stop-color:#bbb;stop-opacity:.65882355" id="stop4458-5" offset="0"/><stop style="stop-color:#bbb;stop-opacity:.36862746" id="stop4460-9" offset="1"/></linearGradient><filter id="filter4606-1" width="1.126" height="1.218" x="-.063" y="-.109" color-interpolation-filters="sRGB"><feGaussianBlur id="feGaussianBlur4608-8" stdDeviation="1.541"/></filter><linearGradient id="linearGradient4097" x1="55.579" x2="53.631" y1="1039.362" y2="992.406" gradientTransform="matrix(1,0,-0.72750163,1,733.40264,2.0004)" gradientUnits="userSpaceOnUse" xlink:href="#linearGradient4456-3"/><linearGradient id="linearGradient4029-7"><stop style="stop-color:#ffd461;stop-opacity:1" id="stop4031" offset="0"/><stop style="stop-color:#fff;stop-opacity:1" id="stop4033" offset="1"/></linearGradient><linearGradient id="linearGradient3950"><stop style="stop-color:#e3a300;stop-opacity:1" id="stop3952" offset="0"/><stop style="stop-color:#f1ae00;stop-opacity:1" id="stop3954" offset="1"/></linearGradient><linearGradient id="linearGradient3957-2"><stop id="stop3959-2" offset="0" style="stop-color:#fff;stop-opacity:1"/><stop id="stop3961-1" offset="1" style="stop-color:#fff;stop-opacity:.86666667"/></linearGradient><linearGradient id="linearGradient4015" x1="673.61" x2="696.684" y1="460.616" y2="460.616" gradientTransform="matrix(0.72898671,0,0,0.58708388,-436.01764,746.71644)" gradientUnits="userSpaceOnUse" xlink:href="#linearGradient5961"/><linearGradient id="linearGradient4017" x1="690.186" x2="690.186" y1="484.134" y2="438.441" gradientTransform="matrix(0.7012576,0,0,0.57573917,-416.90318,751.92581)" gradientUnits="userSpaceOnUse" xlink:href="#linearGradient4721-1"/><linearGradient id="linearGradient4183" x1="80.969" x2="83" y1="-8.281" y2="-4" gradientTransform="matrix(0.5,0,0,0.5,8.515625,1002.5029)" gradientUnits="userSpaceOnUse" xlink:href="#linearGradient3957-2"/><linearGradient id="linearGradient4186" x1="80.125" x2="83" y1="-8" y2="-4" gradientTransform="matrix(0.5,0,0,0.5,-0.0625,996.3622)" gradientUnits="userSpaceOnUse" xlink:href="#linearGradient3957"/><radialGradient id="radialGradient4189" cx="-11.93" cy="12.162" r="8" fx="-11.93" fy="12.162" gradientTransform="matrix(2.5401977,-3.0924142,3.5,2.8749998,24.799091,934.94085)" gradientUnits="userSpaceOnUse" xlink:href="#linearGradient4029-7"/><linearGradient id="linearGradient4191" x1="-16.531" x2="-1.531" y1="5.578" y2="5.578" gradientTransform="matrix(2,0,0,2,55.5625,988.6118)" gradientUnits="userSpaceOnUse" xlink:href="#linearGradient3950"/><radialGradient id="radialGradient4092" cx="4.031" cy="7.469" r="1" fx="4.031" fy="7.469" gradientTransform="matrix(0.98347052,-0.19769183,0.12700027,0.44519625,-0.88189907,4.9406357)" gradientUnits="userSpaceOnUse" xlink:href="#linearGradient3809-5"/><linearGradient id="linearGradient3809-5"><stop style="stop-color:#fff;stop-opacity:1" id="stop3811-7" offset="0"/><stop style="stop-color:#fff;stop-opacity:.49803922" id="stop3813-3" offset="1"/></linearGradient><linearGradient id="linearGradient3865"><stop style="stop-color:#fff;stop-opacity:1" id="stop3867" offset="0"/><stop style="stop-color:#f2b4b4;stop-opacity:1" id="stop3869" offset="1"/></linearGradient></defs><metadata id="metadata7"/><g id="layer2" style="display:inline"><path id="rect4113-1" d="M 75,0 75,66 1e-6,66 C 1e-6,41.2048 50.00969,0 75,0 Z" style="display:inline;fill:url(#linearGradient4978);fill-opacity:1;stroke:none"/><path id="rect4113-1-0" d="M 75,21.0607 75,66 1e-6,66 C 10.625001,47.804 43.509694,25.4357 75,21.0607 Z" style="display:inline;opacity:.40400002;fill:url(#linearGradient4962);fill-opacity:1;stroke:none"/><path id="rect4113-1-7" d="M 75,4.0000001e-7 75,66 30.000003,66 C 30.000003,46.1545 47.70944,9.2500004 75,4e-7 Z" style="display:inline;opacity:.18399999;fill:url(#linearGradient4970);fill-opacity:1;stroke:none"/></g><g id="layer1" transform="translate(0,-986.3622)" style="display:inline"><path style="font-size:13.58917427px;font-style:normal;font-weight:400;line-height:125%;letter-spacing:0;word-spacing:0;fill:url(#linearGradient4097);fill-opacity:1;stroke:none;display:inline;filter:url(#filter4606-1);font-family:Sans" id="rect10961-8-3-6-1-4" d="m 65.056746,994.40641 -32.213167,46.95619 27.324925,0 32.213167,-46.95619 z" transform="matrix(0.61482327,0,0.04696729,0.18740873,-39.902976,853.20176)"/><g id="g4010" transform="matrix(0.79997818,0,0,0.81926571,-13.315947,206.58251)"><path style="fill:url(#linearGradient4015);fill-opacity:1;stroke:none;display:inline" id="path3868-1" d="m 63.363047,1003.4604 c -5.760205,0 -10.368542,1.4042 -10.368542,3.1561 l 0,21.0401 c 0,1.7519 4.608337,3.1559 10.368542,3.1559 5.760206,0 10.450187,-1.404 10.450187,-3.1559 l 0,-21.0401 c 0,-1.7519 -4.689981,-3.1561 -10.450187,-3.1561 z"/><ellipse style="fill:none;stroke:#c99d19;stroke-width:.33706576;stroke-miterlimit:4;stroke-opacity:1;stroke-dasharray:none;display:inline" id="path3868" cx="23.628" cy="1044.436" d="m 26.128192,1044.4362 c 0,0.5523 -1.119287,1 -2.499999,1 -1.380712,0 -2.5,-0.4477 -2.5,-1 0,-0.5523 1.119288,-1.0001 2.5,-1.0001 1.380712,0 2.499999,0.4478 2.499999,1.0001 z" rx="2.5" ry="1" transform="matrix(4.0053658,0,0,3.3529387,-31.118177,-2494.8691)"/><path style="fill:none;stroke:url(#linearGradient4017);stroke-width:1.23523176;stroke-miterlimit:4;stroke-opacity:1;stroke-dasharray:none;display:inline" id="path3868-1-4" d="m 63.482102,1003.7085 c -5.541095,0 -9.974141,1.377 -9.974141,3.0952 l 0,20.6332 c 0,1.7182 4.433046,3.0953 9.974141,3.0953 5.541104,0 10.052686,-1.3771 10.052686,-3.0953 l 0,-20.6332 c 0,-1.7182 -4.511582,-3.0952 -10.052686,-3.0952 z"/></g><path style="fill:url(#linearGradient3003);fill-opacity:1;stroke:#d20502;stroke-width:1;stroke-linecap:butt;stroke-linejoin:miter;stroke-miterlimit:4;stroke-opacity:1;stroke-dasharray:none;display:inline" id="path3873" d="m 37.5,1011.8622 -6,6 c 1,0 3,0 4,0 l 2e-4,9 c 0.6666,0 3.3333,0 4,0 l -2e-4,-9 4,0 z"/><path style="opacity:.9;fill:#fff;fill-opacity:.81584156;stroke:none;display:inline;filter:url(#filter4285-9-8)" id="path4252-6-0" d="m 2.2999628,1043.3702 1.9823895,-2.1047 -1.6734053,-2.5419 2.1987064,2.0209 2.4513363,-1.6427 -2.0383649,2.1623 1.7419712,2.4882 -2.2030799,-2.0431 z" transform="matrix(-1.0949024,1.965477,-1.7018666,-1.4025203,1809.0613,2484.0258)"/><g id="g4193"><path id="path4126" d="m 36.625,989.5492 c -3.30084,0 -6.004532,2.021 -6.3125,4.5626 C 28.946496,995.0256 28,996.901 28,999.0492 c 0,0.2696 0.03404,0.4908 0.0625,0.75 -0.27097,-0.05 -0.527762,-0.062 -0.8125,-0.062 -2.626566,0 -4.75,2.154 -4.75,4.875 0,2.7208 2.123434,4.9374 4.75,4.9374 0.516994,0 0.971486,-0.092 1.4375,-0.25 1.968532,0.4422 4.401108,0.6876 7.0625,0.6876 3.097014,0 5.903052,-0.3572 8,-0.9376 0.822276,0.4886 1.761878,0.8126 2.75,0.8126 3.318594,0 6,-3.1 6,-6.9376 0,-3.8376 -2.681406,-7 -6,-7 -0.5531,0 -1.116356,0.15 -1.625,0.3126 -0.09916,-0.7912 -0.831102,-1.4434 -1.9375,-1.875 -0.16286,-2.6536 -2.909912,-4.8126 -6.3125,-4.8126 z" style="fill:url(#radialGradient4189);fill-opacity:1;stroke:url(#linearGradient4191);stroke-width:1;stroke-linejoin:round;stroke-miterlimit:4;stroke-dasharray:none;display:inline"/><path id="path3947" d="m 37.4375,990.3622 c 0,0 1.21875,0 1.96875,0.25 0.75,0.25 1.662703,0.97072 2.09375,1.53125 0.572147,0.74402 0.9375,2.71875 0.9375,2.71875 0,0 -0.675584,-0.0766 -1,0 -0.362708,0.0856 -1,0.5 -1,0.5 0,0 0.109375,-1.32812 -0.07813,-1.95312 -0.1875,-0.625 -0.595118,-1.30206 -1,-1.6875 C 38.703363,991.09705 37.4375,990.3622 37.4375,990.3622 z" style="fill:url(#linearGradient4186);fill-opacity:1;stroke:none"/><path id="path3947-1" d="m 46.015625,996.50283 c 0,0 1.21875,0 1.96875,0.25 0.75,0.25 1.662705,0.97071 2.09375,1.53125 0.57215,0.74402 0.9375,2.71882 0.9375,2.71882 0,0 -0.675585,-0.077 -1,0 -0.36271,0.086 -1,0.5 -1,0.5 0,0 0.109375,-1.3282 -0.07813,-1.9532 -0.1875,-0.625 -0.595118,-1.30205 -1,-1.6875 -0.656012,-0.62452 -1.921875,-1.35937 -1.921875,-1.35937 z" style="fill:url(#linearGradient4183);fill-opacity:1;stroke:none;display:inline"/></g></g></svg>