<svg xmlns="http://www.w3.org/2000/svg" xmlns:svg="http://www.w3.org/2000/svg" xmlns:xlink="http://www.w3.org/1999/xlink" id="svg2" width="16" height="16" version="1.1"><defs id="defs4"><linearGradient id="linearGradient5591-4"><stop style="stop-color:#e0e566;stop-opacity:1" id="stop5593-0" offset="0"/><stop style="stop-color:#82c448;stop-opacity:1" id="stop5595-5" offset="1"/></linearGradient><linearGradient id="linearGradient5583-2"><stop style="stop-color:#426e4a;stop-opacity:1" id="stop5585-3" offset="0"/><stop style="stop-color:#669f71;stop-opacity:1" id="stop5587-3" offset="1"/></linearGradient><linearGradient id="linearGradient5618" x1="2.031" x2="2.031" y1="6.94" y2="9.144" gradientTransform="matrix(1.9375158,0,0,2.0245922,-12.812547,1026.6328)" gradientUnits="userSpaceOnUse" xlink:href="#linearGradient5591-4"/><linearGradient id="linearGradient5620" x1="2.031" x2="2.031" y1="9.144" y2="4.672" gradientTransform="matrix(1.9375158,0,0,2.0245922,-12.812547,1026.6328)" gradientUnits="userSpaceOnUse" xlink:href="#linearGradient5583-2"/><linearGradient id="linearGradient3762" x1="2.031" x2="2.031" y1="6.94" y2="9.144" gradientTransform="matrix(1.4531368,0,0,1.5184441,7.1405897,1034.5652)" gradientUnits="userSpaceOnUse" xlink:href="#linearGradient5591-4"/><linearGradient id="linearGradient3764" x1="2.031" x2="2.031" y1="9.144" y2="4.672" gradientTransform="matrix(1.4531368,0,0,1.5184441,7.1405897,1034.5652)" gradientUnits="userSpaceOnUse" xlink:href="#linearGradient5583-2"/><linearGradient id="linearGradient3772" x1="2.031" x2="2.031" y1="6.94" y2="9.144" gradientTransform="matrix(1.4531368,0,0,1.5184441,2.1405897,1029.5652)" gradientUnits="userSpaceOnUse" xlink:href="#linearGradient5591-4"/><linearGradient id="linearGradient3774" x1="2.031" x2="2.031" y1="9.144" y2="4.672" gradientTransform="matrix(1.4531368,0,0,1.5184441,2.1405897,1029.5652)" gradientUnits="userSpaceOnUse" xlink:href="#linearGradient5583-2"/></defs><metadata id="metadata7"/><g id="layer1" transform="translate(0,-1036.3622)" style="display:inline"><path style="fill:url(#linearGradient3772);fill-opacity:1;stroke:url(#linearGradient3774);stroke-width:1;stroke-linecap:butt;stroke-linejoin:miter;stroke-miterlimit:4;stroke-opacity:1;stroke-dasharray:none;display:inline" id="path3770" d="m 3.5,1036.8622 3,0 0,3 3,0 0,3 -3,0 0,3 -3,0 0,-3 -3,0 0,-3 3,0 z"/><path id="path3760" d="m 8.5,1041.8622 3,0 0,3 3,0 0,3 -3,0 0,3 -3,0 0,-3 -3,0 0,-3 3,0 z" style="fill:url(#linearGradient3762);fill-opacity:1;stroke:url(#linearGradient3764);stroke-width:1;stroke-linecap:butt;stroke-linejoin:miter;stroke-miterlimit:4;stroke-opacity:1;stroke-dasharray:none;display:inline"/></g></svg>