<svg xmlns="http://www.w3.org/2000/svg" xmlns:svg="http://www.w3.org/2000/svg" xmlns:xlink="http://www.w3.org/1999/xlink" id="svg2" width="16" height="16" version="1.1"><defs id="defs4"><linearGradient id="x-bg-3"><stop style="stop-color:#df2c33;stop-opacity:1" id="x-bg-stop0" offset="0"/><stop style="stop-color:#f5817d;stop-opacity:1" id="x-bg-stop1" offset="1"/></linearGradient><linearGradient id="x-stroke-6"><stop style="stop-color:#c51325;stop-opacity:1" id="x-stroke-stop0" offset="0"/><stop style="stop-color:#ca5d49;stop-opacity:1" id="x-stroke-stop1" offset="1"/></linearGradient><linearGradient id="x-stroke" x1="8.657" x2="8.657" y1="1050.739" y2="1037.7" gradientTransform="translate(1.962068e-6,-2.1458883e-5)" gradientUnits="userSpaceOnUse" xlink:href="#x-stroke-6"/><linearGradient id="x-bg" x1="4.753" x2="4.753" y1="1051.047" y2="1038.581" gradientTransform="translate(1.962068e-6,-2.1458883e-5)" gradientUnits="userSpaceOnUse" xlink:href="#x-bg-3"/></defs><metadata id="metadata7"/><g id="layer1" transform="translate(0,-1036.3622)" style="display:inline"><path style="fill:url(#x-bg);fill-opacity:1;stroke:url(#x-stroke);stroke-width:.98060334;stroke-linecap:round;stroke-linejoin:miter;stroke-miterlimit:4;stroke-opacity:1;stroke-dasharray:none;stroke-dashoffset:0" id="x" d="m 13.419292,1038.6553 c -0.468185,-0.4682 -1.221974,-0.4682 -1.690135,-10e-5 l -3.1127968,3.1129 -3.1127723,-3.1128 c -0.4681138,-0.4682 -1.221974,-0.4682 -1.690134,0 l -0.8600555,0.8601 c -0.4681391,0.468 -0.4681272,1.2218 3.66e-5,1.6901 l 3.1127223,3.1128 -3.1127269,3.1127 c -0.4682099,0.4682 -0.468198,1.222 -1.34e-5,1.6902 l 0.8601016,0.8601 c 0.4681344,0.4681 1.2219244,0.4681 1.6901337,0 l 3.1127774,-3.1128 3.1344053,3.1344 c 0.468135,0.4682 1.221925,0.4682 1.690135,0 l 0.860055,-0.86 c 0.46816,-0.4682 0.463458,-1.2173 -3.7e-5,-1.6902 l -3.134406,-3.1344 3.112777,-3.1127 c 0.468181,-0.4683 0.468169,-1.2221 3.4e-5,-1.6902 z"><title id="title3202">x</title></path></g></svg>