<svg xmlns="http://www.w3.org/2000/svg" xmlns:svg="http://www.w3.org/2000/svg" xmlns:xlink="http://www.w3.org/1999/xlink" id="svg2" width="16" height="16" version="1.1"><defs id="defs4"><linearGradient id="linearGradient5103"><stop style="stop-color:#fefdef;stop-opacity:1" id="stop5105" offset="0"/><stop style="stop-color:#fce69e;stop-opacity:1" id="stop5107" offset="1"/></linearGradient><linearGradient id="linearGradient4922"><stop style="stop-color:#77849a;stop-opacity:1" id="stop4924" offset="0"/><stop style="stop-color:#38445d;stop-opacity:1" id="stop4926" offset="1"/></linearGradient><linearGradient id="linearGradient4878"><stop style="stop-color:#4e8fbd;stop-opacity:1" id="stop4880" offset="0"/><stop style="stop-color:#4d5a5d;stop-opacity:1" id="stop4882" offset="1"/></linearGradient><linearGradient id="linearGradient4884" x1="0" x2="8" y1="13.5" y2="13.5" gradientUnits="userSpaceOnUse" xlink:href="#linearGradient4878"/><linearGradient id="linearGradient4878-7"><stop style="stop-color:#4e8fbd;stop-opacity:1" id="stop4880-4" offset="0"/><stop style="stop-color:#4d5a5d;stop-opacity:1" id="stop4882-0" offset="1"/></linearGradient><linearGradient id="linearGradient4901" x1="0" x2="8" y1="13.5" y2="13.5" gradientTransform="translate(0,1026.3622)" gradientUnits="userSpaceOnUse" xlink:href="#linearGradient4878-7"/><linearGradient id="linearGradient4929" x1="10" x2="10" y1="1" y2="6" gradientTransform="translate(0,1036.3622)" gradientUnits="userSpaceOnUse" xlink:href="#linearGradient4922"/><linearGradient id="linearGradient4922-8"><stop style="stop-color:#77849a;stop-opacity:1" id="stop4924-8" offset="0"/><stop style="stop-color:#38445d;stop-opacity:1" id="stop4926-2" offset="1"/></linearGradient><linearGradient id="linearGradient4946" x1="10" x2="10" y1="1" y2="6" gradientTransform="translate(0,-1053.3622)" gradientUnits="userSpaceOnUse" xlink:href="#linearGradient4922-8"/><linearGradient id="linearGradient5109" x1="11.906" x2="11.906" y1="1042.362" y2="1047.268" gradientUnits="userSpaceOnUse" xlink:href="#linearGradient5103"/><filter id="filter4764" color-interpolation-filters="sRGB"><feGaussianBlur id="feGaussianBlur4766" stdDeviation=".125"/></filter></defs><metadata id="metadata7"/><g id="layer1" transform="translate(0,-1036.3622)" style="display:inline"><path style="fill:url(#linearGradient4884);stroke:none;fill-opacity:1;opacity:.5" id="path4108" d="m 0,13 0,1 5,0 0,2 L 7.9998932,13.5 5,11 5,13 z" transform="translate(0,1036.3622)"/><path style="fill:url(#linearGradient4901);fill-opacity:1;stroke:none;display:inline;opacity:.3" id="path4108-9" d="m 0,1039.3622 0,1 5,0 0,2 2.9998932,-2.5 -2.9998932,-2.5 0,2 z"/><rect style="fill:url(#linearGradient4929);fill-opacity:1;stroke:none;opacity:.5" id="rect4920" width="1" height="5" x="9" y="1037.362"/><rect style="fill:url(#linearGradient4946);fill-opacity:1;stroke:none;display:inline;opacity:.5" id="rect4920-4" width="1" height="5" x="9" y="-1052.362" transform="scale(1,-1)"/><path id="path4744" d="m 22.25,1045.6747 0,-6 4,0 0,1 -3,0 0,1 2,0 0,1 -2,0 0,3 z" style="font-size:7.60321283px;font-style:normal;font-variant:normal;font-weight:400;font-stretch:normal;text-align:start;line-height:125%;letter-spacing:0;word-spacing:0;writing-mode:lr-tb;text-anchor:start;fill:#fff;fill-opacity:1;stroke:none;font-family:Arial;-inkscape-font-specification:Arial"/><path id="path4744-9" d="m 22.382582,1045.8073 0,-6 4,0 0,1 -3,0 0,1 2,0 0,1 -2,0 0,3 z" style="font-size:7.60321283px;font-style:normal;font-variant:normal;font-weight:400;font-stretch:normal;text-align:start;line-height:125%;letter-spacing:0;word-spacing:0;writing-mode:lr-tb;text-anchor:start;opacity:.5;fill:#fff;fill-opacity:1;stroke:none;display:inline;filter:url(#filter4764);font-family:Arial;-inkscape-font-specification:Arial"/><g id="g3039" transform="matrix(1.0000319,0,0,1,-15.438502,1.6875)"><path style="font-size:7.60321283px;font-style:normal;font-variant:normal;font-weight:400;font-stretch:normal;text-align:start;line-height:125%;letter-spacing:0;word-spacing:0;writing-mode:lr-tb;text-anchor:start;fill:#000f6f;fill-opacity:1;stroke:#6f99c7;stroke-width:1px;stroke-linecap:round;stroke-linejoin:miter;stroke-opacity:1;display:inline;font-family:Arial;-inkscape-font-specification:Arial" id="path4792-9" d="m 16.9375,1035.6747 14,14"/><path style="font-size:7.60321283px;font-style:normal;font-variant:normal;font-weight:400;font-stretch:normal;text-align:start;line-height:125%;letter-spacing:0;word-spacing:0;writing-mode:lr-tb;text-anchor:start;fill:#000f6f;fill-opacity:1;stroke:#000f6f;stroke-width:1px;stroke-linecap:round;stroke-linejoin:miter;stroke-opacity:1;font-family:Arial;-inkscape-font-specification:Arial" id="path4792" d="m 16.25,1035.6747 14,14"/></g><path style="fill:url(#linearGradient5109);fill-opacity:1;stroke:none;display:inline" id="path4108-1" d="m 5,1044.3622 0,1 7,0 0,2 2.999893,-2.5 -2.999893,-2.5 0,2 z"/><path style="fill:#b57a13;fill-opacity:1;stroke:none;display:inline;opacity:1" id="path4108-1-6" d="m 11,1041.3622 0,2 -5,0 -1,0 c -0.9918497,0.9918 -0.9863244,2.0137 0,3 l 1,0 5,0 0,2 c 0,0.6519 0.740915,0.6375 1.5,0 l 3.9375,-3.5 -3.9375,-3.5 c -0.760225,-0.7602 -1.5,-0.5203 -1.5,0 z m 1,1 3,2.5 -3,2.5 0,-2 -6.4375,0 c -0.2762136,-0.2099 -0.2774437,-0.7282 0,-1 l 6.4375,0 z"/></g></svg>