<svg xmlns="http://www.w3.org/2000/svg" xmlns:svg="http://www.w3.org/2000/svg" xmlns:xlink="http://www.w3.org/1999/xlink" id="svg2" width="16" height="16" version="1.1"><defs id="defs4"><linearGradient id="linearGradient16147"><stop style="stop-color:#a66b10;stop-opacity:1" id="stop16149" offset="0"/><stop style="stop-color:#bd8416;stop-opacity:1" id="stop16151" offset="1"/></linearGradient><linearGradient id="linearGradient5097"><stop style="stop-color:#778cb4;stop-opacity:1" id="stop5099" offset="0"/><stop style="stop-color:#677da9;stop-opacity:1" id="stop5101" offset="1"/></linearGradient><linearGradient id="linearGradient5089"><stop style="stop-color:#f9fafc;stop-opacity:1" id="stop5091" offset="0"/><stop style="stop-color:#e0eaf7;stop-opacity:1" id="stop5093" offset="1"/></linearGradient><linearGradient id="linearGradient4315"><stop style="stop-color:#c7b571;stop-opacity:1" id="stop4317" offset="0"/><stop style="stop-color:#9a998f;stop-opacity:1" id="stop4319" offset="1"/></linearGradient><linearGradient id="linearGradient4060" x1="8.014" x2="8.014" y1="1036.662" y2="1050.071" gradientTransform="translate(0.99967,2.000063)" gradientUnits="userSpaceOnUse" xlink:href="#linearGradient4315"/><linearGradient id="linearGradient5095" x1="14" x2="14" y1="1039.362" y2="1051.362" gradientUnits="userSpaceOnUse" xlink:href="#linearGradient5089"/><linearGradient id="linearGradient5103" x1="11" x2="14" y1="1044.862" y2="1044.862" gradientUnits="userSpaceOnUse" xlink:href="#linearGradient5097"/><linearGradient id="linearGradient5109-2-1" x1="12.178" x2="12.178" y1="1047.331" y2="1042.331" gradientUnits="userSpaceOnUse" xlink:href="#linearGradient5103-6-0"/><linearGradient id="linearGradient5103-6-0"><stop style="stop-color:#fefdef;stop-opacity:1" id="stop5105-40-0" offset="0"/><stop id="stop7550-3-3" offset=".4" style="stop-color:#fef5d4;stop-opacity:1"/><stop id="stop7548-4-6" offset=".6" style="stop-color:#fbe08e;stop-opacity:1"/><stop style="stop-color:#fbdd83;stop-opacity:1" id="stop5107-10-1" offset="1"/></linearGradient><linearGradient id="linearGradient16112" x1="12.403" x2="12.403" y1="1061.015" y2="1068.189" gradientTransform="translate(0,-20)" gradientUnits="userSpaceOnUse" xlink:href="#linearGradient16147"/></defs><metadata id="metadata7"/><g id="layer1" transform="translate(0,-1036.3622)" style="display:inline"><path style="fill:url(#linearGradient5095);fill-opacity:1;stroke:url(#linearGradient4060);stroke-width:1;stroke-linecap:butt;stroke-linejoin:miter;stroke-miterlimit:4;stroke-opacity:1;stroke-dashoffset:0;display:inline" id="rect3997-9" d="m 4.9700418,1037.8621 10.5299582,0 0,14.0018 -10.5299582,0"/><path style="fill:#a9b7d2;fill-opacity:1;stroke:none;display:inline" id="rect4816-1-1-4" d="m 7,1049.3621 0,0.091 0,0.9091 7,0 0,-0.9091 0,-0.091 z"/><path style="fill:#a9b7d2;fill-opacity:1;stroke:none;display:inline" id="rect4816-1-1-4-8" d="m 12,1047.3621 0,0.091 0,0.9091 2,0 0,-0.9091 0,-0.091 z"/><path style="fill:#c1c6d9;fill-opacity:1;stroke:none;display:inline" id="rect4816-1-1-4-8-5" d="m 12,1041.3621 0,0.091 0,0.9091 2,0 0,-0.9091 0,-0.091 z"/><path style="fill:#c1c6d9;fill-opacity:1;stroke:none;display:inline" id="rect4816-1-1-4-8-5-5" d="m 7,1039.3621 0,0.091 0,0.9091 7,0 0,-0.9091 0,-0.091 z"/><path style="fill:#286296;fill-opacity:1;stroke:none;display:inline" id="rect4816-1-1-4-8-5-5-4" d="m 11,1043.3621 0,0.091 0,0.9091 3,0 0,-0.9091 0,-0.091 z"/><path style="fill:#286296;fill-opacity:1;stroke:none;display:inline" id="rect4816-1-1-4-8-5-5-4-1" d="m 11,1045.3621 0,0.091 0,0.9091 3,0 0,-0.9091 0,-0.091 z"/><path style="fill:url(#linearGradient5103);fill-opacity:1;stroke:none;display:inline" id="rect4816-1-1-4-8-5-5-4-1-6" d="m 11,1044.3622 0,0.091 0,0.9091 3,0 0,-0.9091 0,-0.091 z"/><path style="fill:#a9b7d2;fill-opacity:1;stroke:none;display:inline" id="rect4816-1-1-4-8-2" d="m 9,1047.3621 0,0.091 0,0.9091 2,0 0,-0.9091 0,-0.091 z"/><path style="fill:#c1c6d9;fill-opacity:1;stroke:none;display:inline" id="rect4816-1-1-4-8-5-3" d="m 9,1041.3621 0,0.091 0,0.9091 2,0 0,-0.9091 0,-0.091 z"/><g id="layer1-7-8" transform="matrix(1,0,0,-1,-5.178074,2089.6931)" style="display:inline"><path style="fill:url(#linearGradient5109-2-1);fill-opacity:1;stroke:none;display:inline" id="path4108-1-2" d="m 5.6629126,1043.3309 0,2.9844 5.5870874,0 0,1.5313 3.781143,-2.9844 -3.781143,-3.0469 0,1.5156 z"/><path style="fill:url(#linearGradient16112);fill-opacity:1;stroke:none;display:inline" id="path4108-1-6-4" d="m 10.25,1040.8153 0,1.5156 -3.4103107,0 -1,0 c -0.99185,0.9918 -0.986324,3.9981 0,4.9844 l 1,0 3.4103107,0 0,1.5313 c 0,0.6519 0.740915,0.6375 1.5,0 l 4.71875,-3.9844 -4.71875,-4.0469 c -0.760225,-0.7602 -1.5,-0.5203 -1.5,0 z m 1,1 3.78125,3.0469 -3.78125,2.9844 0,-1.5313 -4.8478107,0 c -0.276214,-0.2099 -0.277444,-2.7126 0,-2.9844 l 4.8478107,0 z"/></g></g></svg>