<svg xmlns="http://www.w3.org/2000/svg" xmlns:svg="http://www.w3.org/2000/svg" xmlns:xlink="http://www.w3.org/1999/xlink" id="svg2" width="16" height="16" version="1.1"><defs id="defs4"><linearGradient id="linearGradient4810"><stop id="stop4812" offset="0" style="stop-color:#bfb688;stop-opacity:1"/><stop id="stop4814" offset="1" style="stop-color:#8694ae;stop-opacity:1"/></linearGradient><linearGradient id="linearGradient5065" x1="6" x2="11" y1="1050.862" y2="1050.862" gradientTransform="translate(2,-2.000037)" gradientUnits="userSpaceOnUse" xlink:href="#linearGradient5057"/><linearGradient id="linearGradient5057"><stop style="stop-color:#677da9;stop-opacity:1" id="stop5059" offset="0"/><stop style="stop-color:#b4bbd1;stop-opacity:1" id="stop5061" offset="1"/></linearGradient><linearGradient id="linearGradient5063" x1="8" x2="11" y1="1046.862" y2="1046.862" gradientTransform="translate(2,-2.000037)" gradientUnits="userSpaceOnUse" xlink:href="#linearGradient5067"/><linearGradient id="linearGradient5067"><stop id="stop5069" offset="0" style="stop-color:#677da9;stop-opacity:1"/><stop id="stop5071" offset="1" style="stop-color:#8998bb;stop-opacity:1"/></linearGradient><radialGradient id="radialGradient5038" cx="3.513" cy="12.464" r="2.173" fx="3.513" fy="12.464" gradientTransform="matrix(0.43809804,0,0,0.47690359,1.974207,6.5201176)" gradientUnits="userSpaceOnUse" xlink:href="#linearGradient4962-2"/><linearGradient id="linearGradient4962-2"><stop style="stop-color:#7cb87d;stop-opacity:1" id="stop4964-2" offset="0"/><stop style="stop-color:#a8ceb7;stop-opacity:1" id="stop4966-1" offset="1"/></linearGradient><linearGradient id="linearGradient5062" x1="-13" x2="-15" y1="1047.362" y2="1047.362" gradientTransform="translate(18,-4.000037)" gradientUnits="userSpaceOnUse" xlink:href="#linearGradient4910-4"/><linearGradient id="linearGradient4910-4"><stop style="stop-color:#fff;stop-opacity:0" id="stop4912-8" offset="0"/><stop style="stop-color:#d1eeff;stop-opacity:1" id="stop4914-8" offset="1"/></linearGradient><linearGradient id="linearGradient4975-2" x1="-11" x2="-11" y1="1042.362" y2="1044.362" gradientTransform="translate(18,-4.000037)" gradientUnits="userSpaceOnUse" xlink:href="#linearGradient4994-4"/><linearGradient id="linearGradient4994-4"><stop id="stop4996-5" offset="0" style="stop-color:#d1eeff;stop-opacity:1"/><stop id="stop4998-5" offset="1" style="stop-color:#fff;stop-opacity:0"/></linearGradient><linearGradient id="linearGradient4121" x1="8.014" x2="8.014" y1="1036.662" y2="1050.071" gradientTransform="translate(0,2.000063)" gradientUnits="userSpaceOnUse" xlink:href="#linearGradient4810"/><linearGradient id="linearGradient5057-7"><stop style="stop-color:#677da9;stop-opacity:1" id="stop5059-1" offset="0"/><stop style="stop-color:#b4bbd1;stop-opacity:1" id="stop5061-1" offset="1"/></linearGradient><radialGradient id="radialGradient5038-5" cx="3.513" cy="12.464" r="2.173" fx="3.513" fy="12.464" gradientTransform="matrix(0.43809804,0,0,0.47690359,1.974207,6.5201176)" gradientUnits="userSpaceOnUse" xlink:href="#linearGradient4962-2-2"/><linearGradient id="linearGradient4962-2-2"><stop style="stop-color:#7cb87d;stop-opacity:1" id="stop4964-2-7" offset="0"/><stop style="stop-color:#a8ceb7;stop-opacity:1" id="stop4966-1-6" offset="1"/></linearGradient><linearGradient id="linearGradient4190" x1="6" x2="11" y1="1050.862" y2="1050.862" gradientTransform="translate(2,-10.0001)" gradientUnits="userSpaceOnUse" xlink:href="#linearGradient5057-7"/><linearGradient id="linearGradient4058" x1="6" x2="11" y1="1050.862" y2="1050.862" gradientTransform="translate(2,-6.0000216)" gradientUnits="userSpaceOnUse" xlink:href="#linearGradient5057-4"/><linearGradient id="linearGradient5057-4"><stop style="stop-color:#677da9;stop-opacity:1" id="stop5059-0" offset="0"/><stop style="stop-color:#b4bbd1;stop-opacity:1" id="stop5061-9" offset="1"/></linearGradient><radialGradient id="radialGradient5038-5-1" cx="3.513" cy="12.464" r="2.173" fx="3.513" fy="12.464" gradientTransform="matrix(0.43809804,0,0,0.47690359,1.974207,6.5201176)" gradientUnits="userSpaceOnUse" xlink:href="#linearGradient4962-2-2-7"/><linearGradient id="linearGradient4962-2-2-7"><stop style="stop-color:#7cb87d;stop-opacity:1" id="stop4964-2-7-4" offset="0"/><stop style="stop-color:#a8ceb7;stop-opacity:1" id="stop4966-1-6-0" offset="1"/></linearGradient><linearGradient id="linearGradient4190-9" x1="6" x2="11" y1="1050.862" y2="1050.862" gradientTransform="translate(2,-10.000122)" gradientUnits="userSpaceOnUse" xlink:href="#linearGradient5057-7-4"/><linearGradient id="linearGradient5057-7-4"><stop style="stop-color:#677da9;stop-opacity:1" id="stop5059-1-8" offset="0"/><stop style="stop-color:#b4bbd1;stop-opacity:1" id="stop5061-1-8" offset="1"/></linearGradient><linearGradient id="linearGradient4975-2-2" x1="-11" x2="-11" y1="1042.362" y2="1044.362" gradientTransform="translate(18,-4.0000216)" gradientUnits="userSpaceOnUse" xlink:href="#linearGradient4994-4-4"/><linearGradient id="linearGradient4994-4-4"><stop id="stop4996-5-5" offset="0" style="stop-color:#d1eeff;stop-opacity:1"/><stop id="stop4998-5-5" offset="1" style="stop-color:#fff;stop-opacity:0"/></linearGradient><linearGradient id="linearGradient5062-1" x1="-13" x2="-15" y1="1047.362" y2="1047.362" gradientTransform="translate(18,-4.0000216)" gradientUnits="userSpaceOnUse" xlink:href="#linearGradient4910-4-7"/><linearGradient id="linearGradient4910-4-7"><stop style="stop-color:#fff;stop-opacity:0" id="stop4912-8-1" offset="0"/><stop style="stop-color:#d1eeff;stop-opacity:1" id="stop4914-8-1" offset="1"/></linearGradient><radialGradient id="radialGradient5038-52" cx="3.513" cy="12.464" r="2.173" fx="3.513" fy="12.464" gradientTransform="matrix(0.43809804,0,0,0.47690359,1.974207,6.5201176)" gradientUnits="userSpaceOnUse" xlink:href="#linearGradient4962-2-7"/><linearGradient id="linearGradient4962-2-7"><stop style="stop-color:#7cb87d;stop-opacity:1" id="stop4964-2-6" offset="0"/><stop style="stop-color:#a8ceb7;stop-opacity:1" id="stop4966-1-1" offset="1"/></linearGradient><linearGradient id="linearGradient5065-4" x1="6" x2="11" y1="1050.862" y2="1050.862" gradientTransform="translate(2,-2.0000216)" gradientUnits="userSpaceOnUse" xlink:href="#linearGradient5057-2"/><linearGradient id="linearGradient5057-2"><stop style="stop-color:#677da9;stop-opacity:1" id="stop5059-3" offset="0"/><stop style="stop-color:#b4bbd1;stop-opacity:1" id="stop5061-2" offset="1"/></linearGradient><radialGradient id="radialGradient4968-2" cx="3.513" cy="12.464" r="2.173" fx="3.513" fy="12.464" gradientTransform="matrix(0.43809804,0,0,0.47690359,1.974207,6.5201176)" gradientUnits="userSpaceOnUse" xlink:href="#linearGradient4962-1"/><linearGradient id="linearGradient4962-1"><stop style="stop-color:#7cb87d;stop-opacity:1" id="stop4964-6" offset="0"/><stop style="stop-color:#a8ceb7;stop-opacity:1" id="stop4966-8" offset="1"/></linearGradient><linearGradient id="linearGradient4810-7"><stop id="stop4812-6" offset="0" style="stop-color:#bfb688;stop-opacity:1"/><stop id="stop4814-1" offset="1" style="stop-color:#8694ae;stop-opacity:1"/></linearGradient><linearGradient id="linearGradient4132" x1="8.014" x2="8.014" y1="1036.662" y2="1050.071" gradientTransform="translate(0,2.0000784)" gradientUnits="userSpaceOnUse" xlink:href="#linearGradient4810-7"/><linearGradient id="linearGradient4834" x1="4.788" x2="6.617" y1="4.487" y2="2.694" gradientUnits="userSpaceOnUse" xlink:href="#linearGradient4828"/><linearGradient id="linearGradient4828"><stop style="stop-color:#3979bd;stop-opacity:1" id="stop4830" offset="0"/><stop style="stop-color:#9abbdf;stop-opacity:1" id="stop4832" offset="1"/></linearGradient><linearGradient id="linearGradient4851" x1="4.788" x2="6.617" y1="4.487" y2="2.694" gradientUnits="userSpaceOnUse" xlink:href="#linearGradient4828-8"/><linearGradient id="linearGradient4828-8"><stop style="stop-color:#3979bd;stop-opacity:1" id="stop4830-8" offset="0"/><stop style="stop-color:#9abbdf;stop-opacity:1" id="stop4832-2" offset="1"/></linearGradient><linearGradient id="linearGradient4148" x1="12.032" x2="14.872" y1="1038.347" y2="1041.308" gradientTransform="translate(-2.0043468,4.9932789)" gradientUnits="userSpaceOnUse" xlink:href="#linearGradient4818"/><linearGradient id="linearGradient4818"><stop style="stop-color:#eb9186;stop-opacity:1" id="stop4820" offset="0"/><stop style="stop-color:#e06b5e;stop-opacity:1" id="stop4822" offset="1"/></linearGradient><linearGradient id="linearGradient4975-2-23" x1="-11" x2="-11" y1="1042.362" y2="1044.362" gradientTransform="translate(24.000001,-4.0000211)" gradientUnits="userSpaceOnUse" xlink:href="#linearGradient4994-4-3"/><linearGradient id="linearGradient4994-4-3"><stop id="stop4996-5-4" offset="0" style="stop-color:#d1eeff;stop-opacity:1"/><stop id="stop4998-5-1" offset="1" style="stop-color:#fff;stop-opacity:0"/></linearGradient><linearGradient id="linearGradient5062-13" x1="-13" x2="-15" y1="1047.362" y2="1047.362" gradientTransform="translate(24.000001,-4.0000211)" gradientUnits="userSpaceOnUse" xlink:href="#linearGradient4910-4-8"/><linearGradient id="linearGradient4910-4-8"><stop style="stop-color:#fff;stop-opacity:0" id="stop4912-8-7" offset="0"/><stop style="stop-color:#d1eeff;stop-opacity:1" id="stop4914-8-4" offset="1"/></linearGradient><linearGradient id="linearGradient4810-77"><stop id="stop4812-9" offset="0" style="stop-color:#bfb688;stop-opacity:1"/><stop id="stop4814-3" offset="1" style="stop-color:#8694ae;stop-opacity:1"/></linearGradient><linearGradient id="linearGradient5043" x1="8.014" x2="8.014" y1="1036.662" y2="1050.071" gradientTransform="translate(-0.99999834,2.0000789)" gradientUnits="userSpaceOnUse" xlink:href="#linearGradient4810-77"/></defs><metadata id="metadata7"/><g id="layer1" transform="translate(0,-1036.3622)" style="display:inline"><rect style="fill:#f4fcff;fill-opacity:1;stroke:url(#linearGradient4132);stroke-width:1;stroke-linecap:butt;stroke-linejoin:miter;stroke-miterlimit:4;stroke-opacity:1;stroke-dasharray:none;stroke-dashoffset:0;display:inline" id="rect3997-9-8" width="12" height="14.002" x="2.501" y="1037.862"/><rect style="fill:#f4fcff;fill-opacity:1;stroke:url(#linearGradient4121);stroke-width:1;stroke-linecap:butt;stroke-linejoin:miter;stroke-miterlimit:4;stroke-opacity:1;stroke-dasharray:none;stroke-dashoffset:0;display:inline" id="rect3997-9" width="12" height="14.002" x="2.501" y="1037.862"/><path style="fill:url(#linearGradient5065);fill-opacity:1;stroke:none;display:inline" id="rect4816-1-1-4" d="m 8,1048.3622 0,0.091 0,0.9091 5,0 0,-0.9091 0,-0.091 z"/><path style="fill:url(#linearGradient5063);fill-opacity:1;stroke:none;display:inline" id="rect4816-1-1-4-2" d="m 10,1044.3622 0,0.091 0,0.9091 3,0 0,-0.9091 0,-0.091 z"/><path style="fill:url(#radialGradient5038);fill-opacity:1;stroke:#379860;stroke-width:1.34009874;stroke-miterlimit:4;stroke-opacity:1;stroke-dasharray:none;display:inline" id="path4959-6" d="m 5.0160387,12.464466 c 0,0.829864 -0.6727378,1.502602 -1.5026019,1.502602 -0.8298641,0 -1.5026019,-0.672738 -1.5026019,-1.502602 0,-0.829864 0.6727378,-1.502602 1.5026019,-1.502602 0.8298641,0 1.5026019,0.672738 1.5026019,1.502602 z" transform="matrix(0.68773292,0,0,0.68773292,3.0805578,1040.2821)"/><path style="fill:url(#linearGradient5062);fill-opacity:1;stroke:none;display:inline" id="rect4853-82-7" d="m 4,1039.3622 0,12 -1,0 0,-13 z"/><path style="fill:url(#linearGradient4975-2);fill-opacity:1;stroke:none;display:inline" id="rect4853-82-0" d="m 4,1039.3622 10,0 0,-1 -11,0 z"/><path style="fill:url(#linearGradient4190);fill-opacity:1;stroke:none;display:inline" id="rect4816-1-1-4-1" d="m 8,1040.3622 0,0.091 0,0.9091 5,0 0,-0.9091 0,-0.091 z"/><path style="fill:url(#radialGradient5038-5);fill-opacity:1;stroke:#379860;stroke-width:1.34009874;stroke-miterlimit:4;stroke-opacity:1;stroke-dasharray:none;display:inline" id="path4959-6-4" d="m 5.0160387,12.464466 c 0,0.829864 -0.6727378,1.502602 -1.5026019,1.502602 -0.8298641,0 -1.5026019,-0.672738 -1.5026019,-1.502602 0,-0.829864 0.6727378,-1.502602 1.5026019,-1.502602 0.8298641,0 1.5026019,0.672738 1.5026019,1.502602 z" transform="matrix(0.68773292,0,0,0.68773292,3.0805578,1032.2821)"/><path style="fill:url(#radialGradient4968-2);fill-opacity:1;stroke:#379860;stroke-width:1.34009874;stroke-miterlimit:4;stroke-opacity:1;stroke-dasharray:none;display:inline" id="path4959-9" d="m 5.0160387,12.464466 c 0,0.829864 -0.6727378,1.502602 -1.5026019,1.502602 -0.8298641,0 -1.5026019,-0.672738 -1.5026019,-1.502602 0,-0.829864 0.6727378,-1.502602 1.5026019,-1.502602 0.8298641,0 1.5026019,0.672738 1.5026019,1.502602 z" transform="matrix(0.68773292,0,0,0.68773292,3.0805578,1036.2821)"/><path style="fill:url(#linearGradient5065-4);fill-opacity:1;stroke:none;display:inline" id="rect4816-1-1-4-27" d="m 8,1048.3622 0,0.091 0,0.9091 5,0 0,-0.9091 0,-0.091 z"/><path style="fill:url(#radialGradient5038-52);fill-opacity:1;stroke:#379860;stroke-width:1.34009874;stroke-miterlimit:4;stroke-opacity:1;stroke-dasharray:none;display:inline" id="path4959-6-9" d="m 5.0160387,12.464466 c 0,0.829864 -0.6727378,1.502602 -1.5026019,1.502602 -0.8298641,0 -1.5026019,-0.672738 -1.5026019,-1.502602 0,-0.829864 0.6727378,-1.502602 1.5026019,-1.502602 0.8298641,0 1.5026019,0.672738 1.5026019,1.502602 z" transform="matrix(0.68773292,0,0,0.68773292,3.0805578,1040.2821)"/><path style="fill:url(#linearGradient5062-1);fill-opacity:1;stroke:none;display:inline" id="rect4853-82-7-5" d="m 4,1039.3622 0,12 -1,0 0,-13 z"/><path style="fill:url(#linearGradient4975-2-2);fill-opacity:1;stroke:none;display:inline" id="rect4853-82-0-4" d="m 4,1039.3622 10,0 0,-1 -11,0 z"/><path style="fill:url(#linearGradient4190-9);fill-opacity:1;stroke:none;display:inline" id="rect4816-1-1-4-1-3" d="m 8,1040.3622 0,0.091 0,0.9091 5,0 0,-0.9091 0,-0.091 z"/><path style="fill:url(#radialGradient5038-5-1);fill-opacity:1;stroke:#379860;stroke-width:1.34009874;stroke-miterlimit:4;stroke-opacity:1;stroke-dasharray:none;display:inline" id="path4959-6-4-1" d="m 5.0160387,12.464466 c 0,0.829864 -0.6727378,1.502602 -1.5026019,1.502602 -0.8298641,0 -1.5026019,-0.672738 -1.5026019,-1.502602 0,-0.829864 0.6727378,-1.502602 1.5026019,-1.502602 0.8298641,0 1.5026019,0.672738 1.5026019,1.502602 z" transform="matrix(0.68773292,0,0,0.68773292,3.0805578,1032.2821)"/><path style="fill:url(#linearGradient4058);fill-opacity:1;stroke:none;display:inline" id="rect4816-1-1-4-4" d="m 8,1044.3622 0,0.091 0,0.9091 5,0 0,-0.9091 0,-0.091 z"/><rect style="fill:#f4fcff;fill-opacity:1;stroke:url(#linearGradient5043);stroke-width:1;stroke-linecap:butt;stroke-linejoin:miter;stroke-miterlimit:4;stroke-opacity:1;stroke-dasharray:none;stroke-dashoffset:0;display:inline" id="rect3997-9-1" width="6.033" height="14.002" x="8.483" y="1037.862"/><path style="fill:url(#linearGradient5062-13);fill-opacity:1;stroke:none;display:inline" id="rect4853-82-7-9" d="m 10.000001,1039.3622 0,12 -0.9999993,0 0,-13 z"/><path style="fill:url(#linearGradient4975-2-23);fill-opacity:1;stroke:none;display:inline" id="rect4853-82-0-8" d="m 10.000001,1039.3622 4,0 0,-1 -4.9999993,0 z"/><rect style="fill:url(#linearGradient4148);fill-opacity:1;stroke:none;display:inline" id="rect4816" width="3.016" height="2.994" x="9.984" y="1043.368"/><path style="fill:url(#linearGradient4851);fill-opacity:1;stroke:none;display:inline" id="path4826-4" d="M 6.6634934,2.7073805 6.2673522,4.1857998 5.8712109,5.664219 4.7889329,4.581941 3.7066549,3.499663 5.1850742,3.1035218 z" transform="matrix(0.69344277,-0.80123508,0.69016627,0.80041974,5.0194,1050.5327)"/><path style="fill:url(#linearGradient4834);fill-opacity:1;stroke:none;display:inline" id="path4826" d="M 6.6634934,2.7073805 6.2673522,4.1857998 5.8712109,5.664219 4.7889329,4.581941 3.7066549,3.499663 5.1850742,3.1035218 z" transform="matrix(0.69996579,-0.81479642,0.71417637,0.79858371,4.9096621,1042.5853)"/></g></svg>