<svg xmlns="http://www.w3.org/2000/svg" xmlns:svg="http://www.w3.org/2000/svg" xmlns:xlink="http://www.w3.org/1999/xlink" id="svg2" width="16" height="16" version="1.1"><defs id="defs4"><linearGradient id="linearGradient5062-9-5" x1="-12" x2="-15" y1="1047.362" y2="1047.362" gradientTransform="matrix(1,0,0,1.1111111,17,-118.81802)" gradientUnits="userSpaceOnUse" xlink:href="#blue_gradient_left"/><linearGradient id="blue_gradient_left"><stop id="blue_gradient_left_stop_0" offset="0" style="stop-color:#fff;stop-opacity:0"/><stop id="blue_gradient_left_stop_1" offset="1" style="stop-color:#c3e9ff;stop-opacity:1"/></linearGradient><linearGradient id="linearGradient4975-2-1-1" x1="-11" x2="-11" y1="1042.362" y2="1045.362" gradientTransform="matrix(1.3333333,0,0,1,22,-3)" gradientUnits="userSpaceOnUse" xlink:href="#blue_gradient_top"/><linearGradient id="blue_gradient_top"><stop style="stop-color:#c3e9ff;stop-opacity:1" id="blue_gradient_top_stop_0" offset="0"/><stop style="stop-color:#fff;stop-opacity:0" id="blue_gradient_top_stop_1" offset="1"/></linearGradient></defs><metadata id="metadata7"/><g style="display:inline" id="layer1" transform="translate(0,-1036.3622)"><path style="font-size:10px;font-style:normal;font-variant:normal;font-weight:700;font-stretch:normal;text-align:start;line-height:85.00000238%;letter-spacing:0;word-spacing:0;writing-mode:lr-tb;text-anchor:start;fill:#355883;fill-opacity:1;stroke:none;font-family:Sans;-inkscape-font-specification:Sans Bold" id="path3809" d="m 6.4423828,1036.8016 0,1.543 c -0.4003962,-0.179 -0.7910208,-0.3141 -1.171875,-0.4053 -0.3808638,-0.091 -0.740564,-0.1367 -1.0791016,-0.1367 -0.449222,0 -0.7812529,0.062 -0.9960937,0.1856 -0.2148463,0.1237 -0.322268,0.3157 -0.3222656,0.5761 -2.4e-6,0.1953 0.071612,0.3483 0.2148437,0.459 0.1464816,0.1074 0.4101532,0.2002 0.7910157,0.2783 l 0.8007812,0.1612 c 0.8105418,0.1627 1.3867131,0.4101 1.7285156,0.7422 0.3417906,0.332 0.5126889,0.804 0.5126953,1.416 -6.4e-6,0.804 -0.239264,1.403 -0.7177734,1.7968 -0.4752657,0.3907 -1.202804,0.586 -2.1826172,0.586 -0.4622427,0 -0.9261094,-0.044 -1.3916015,-0.1319 -0.4654966,-0.088 -0.9309909,-0.2181 -1.3964844,-0.3906 l 0,-1.5869 c 0.4654935,0.2474 0.9147118,0.4346 1.3476562,0.5615 0.4361954,0.1237 0.8561168,0.1856 1.2597657,0.1856 0.4101524,0 0.7242797,-0.068 0.9423828,-0.2051 0.2180944,-0.1367 0.3271437,-0.332 0.3271484,-0.5859 -4.7e-6,-0.2279 -0.074874,-0.4037 -0.2246094,-0.5274 -0.1464886,-0.1237 -0.4410847,-0.2344 -0.883789,-0.332 L 3.2734375,1040.83 c -0.7291688,-0.1563 -1.2630224,-0.4053 -1.6015625,-0.7471 -0.3352873,-0.3418 -0.5029304,-0.8024 -0.5029297,-1.3819 -7e-7,-0.7259 0.2343741,-1.2841 0.703125,-1.6748 0.4687481,-0.3906 1.1425756,-0.5859 2.0214844,-0.5859 0.4003868,0 0.8121702,0.031 1.2353515,0.093 0.423172,0.059 0.8609971,0.1481 1.3134766,0.2685"/><path style="font-size:10px;font-style:normal;font-variant:normal;font-weight:700;font-stretch:normal;text-align:start;line-height:85.00000238%;letter-spacing:0;word-spacing:0;writing-mode:lr-tb;text-anchor:start;fill:#355883;fill-opacity:1;stroke:none;font-family:Sans;-inkscape-font-specification:Sans Bold" id="path3811" d="m 8.5761719,1036.5721 1.8798831,0 0,2.7784 2.773437,0 0,-2.7784 1.879883,0 0,7.2901 -1.879883,0 0,-3.0908 -2.773437,0 0,3.0908 -1.8798831,0 0,-7.2901"/><path style="font-size:10px;font-style:normal;font-variant:normal;font-weight:700;font-stretch:normal;text-align:start;line-height:85.00000238%;letter-spacing:0;word-spacing:0;writing-mode:lr-tb;text-anchor:start;fill:#355883;fill-opacity:1;stroke:none;font-family:Sans;-inkscape-font-specification:Sans Bold" id="path3813" d="m 5.7929687,1051.0341 -2.9394531,0 -0.4638672,1.3281 -1.8896484,0 2.7001953,-7.2901 2.2412109,0 2.7001954,7.2901 -1.8896485,0 -0.4589844,-1.3281 m -2.4707031,-1.3526 1.9970703,0 -0.9960937,-2.9004 -1.0009766,2.9004"/><path style="font-size:10px;font-style:normal;font-variant:normal;font-weight:700;font-stretch:normal;text-align:start;line-height:85.00000238%;letter-spacing:0;word-spacing:0;writing-mode:lr-tb;text-anchor:start;fill:#355883;fill-opacity:1;stroke:none;font-family:Sans;-inkscape-font-specification:Sans Bold" id="path3815" d="m 9.3574219,1051.0634 1.6601561,0 0,-4.712 -1.7041014,0.3516 0,-1.2793 1.6943364,-0.3516 1.787109,0 0,5.9913 1.660156,0 0,1.2988 -5.0976561,0 0,-1.2988"/></g></svg>