<svg xmlns="http://www.w3.org/2000/svg" xmlns:svg="http://www.w3.org/2000/svg" xmlns:xlink="http://www.w3.org/1999/xlink" id="svg2" width="16" height="16" version="1.1" viewBox="0 0 16 16" style="fill:#000"><metadata id="metadata12"/><defs id="defs10"><radialGradient id="radialGradient6174" cx="10.152" cy="1045.854" r="5.008" fx="10.152" fy="1045.854" gradientTransform="matrix(-0.04400863,-1.6558063,1.1452248,-0.03043823,-1162.7367,54.412022)" gradientUnits="userSpaceOnUse" xlink:href="#linearGradient6168"/><linearGradient id="linearGradient6168"><stop style="stop-color:#fff891;stop-opacity:1" id="stop6170" offset="0"/><stop style="stop-color:#4090ce;stop-opacity:1" id="stop6172" offset="1"/></linearGradient><linearGradient id="linearGradient6182" x1="3.036" x2="7.823" y1="1045.755" y2="1037.463" gradientTransform="translate(26.490719,-1036.4924)" gradientUnits="userSpaceOnUse" xlink:href="#linearGradient6176"/><linearGradient id="linearGradient6176"><stop style="stop-color:#166b9b;stop-opacity:1" id="stop6178" offset="0"/><stop style="stop-color:#169b6e;stop-opacity:1" id="stop6180" offset="1"/></linearGradient><linearGradient id="linearGradient6198" x1="19.589" x2="19.589" y1="1048.307" y2="1039.07" gradientUnits="userSpaceOnUse" xlink:href="#linearGradient6176"/><linearGradient id="linearGradient6200" x1="22.737" x2="22.737" y1="1046.089" y2="1038.983" gradientUnits="userSpaceOnUse" xlink:href="#linearGradient6176"/><radialGradient id="radialGradient6343" cx="8.04" cy="1038.712" r="6.088" fx="8.04" fy="1038.712" gradientTransform="matrix(0.96462225,1.3001557e-8,0,0.36634733,26.778462,-378.30949)" gradientUnits="userSpaceOnUse" xlink:href="#linearGradient6168"/></defs><g id="layer1" style="display:inline"><rect style="display:inline;fill:#166b9b;fill-opacity:1;stroke:none" id="rect6283" width="3.875" height="3.875" x="32.597" y="-.13"/><path id="path5339-5" d="m 30.026253,2.9209222 c 0,0 0,5.7561004 0,9.5900998 0,1.189 1.635185,1.9888 2.96101,1.9888 1.757376,4e-4 2.13047,0 3.093592,0 1.325826,0 2.96101,-0.7998 2.96101,-1.9887 0,-3.8339994 0,-9.5901998 0,-9.5901998" style="display:inline;fill:url(#radialGradient6174);fill-opacity:1;stroke:url(#linearGradient6182);stroke-width:1px;stroke-linecap:butt;stroke-linejoin:miter;stroke-opacity:1"/><g style="display:inline;fill:#000" id="g6194" transform="translate(13.487183,-1036.4924)"><path id="path5361" d="m 19.531251,1051.0185 0,-11.1683" style="fill:none;stroke:url(#linearGradient6198);stroke-width:1px;stroke-linecap:butt;stroke-linejoin:miter;stroke-opacity:1"/><path id="path5361-0" d="m 22.562501,1051.0185 0,-11.1683" style="display:inline;fill:none;stroke:url(#linearGradient6200);stroke-width:1px;stroke-linecap:butt;stroke-linejoin:miter;stroke-opacity:1"/></g><path style="display:inline;fill:url(#radialGradient6343);fill-opacity:1;stroke:#166b9b;stroke-width:.80000001;stroke-miterlimit:4;stroke-dasharray:none;stroke-opacity:1" id="rect6322" d="m 30.034059,1.2982222 c -0.657875,0 -1.1875,0.5296 -1.1875,1.1875 l 0,0.6562 11.375,0 0,-0.6562 c 0,-0.6579 -0.529625,-1.1875 -1.1875,-1.1875 l -9,0 z"/></g><g id="layer2" style="display:inline"><path id="path4144" d="m 3.5,13.5 c 0,0.864286 1.4250001,2 2.25,2 l 4.5,0 c 0.824999,0 2.25,-1.135714 2.25,-2 l 0,-9 -9,0 z" style="fill:#b8d0ea;fill-opacity:1;stroke:#6883a7;stroke-width:1;stroke-opacity:1"/><path id="path4" d="M 14,2 11,2 10.4,1 5.6,1 5,2 2,2 2,2.9996667 14,3 Z" style="fill:#6883a7;fill-opacity:1"/><path style="fill:none;fill-rule:evenodd;stroke:#6883a7;stroke-width:1px;stroke-linecap:butt;stroke-linejoin:miter;stroke-opacity:1" id="path5058" d="m 6.5,4 0,11"/><path style="display:inline;fill:none;fill-rule:evenodd;stroke:#6883a7;stroke-width:1px;stroke-linecap:butt;stroke-linejoin:miter;stroke-opacity:1" id="path5058-1" d="m 9.5,4 0,11"/></g></svg>