<svg xmlns="http://www.w3.org/2000/svg" xmlns:svg="http://www.w3.org/2000/svg" xmlns:xlink="http://www.w3.org/1999/xlink" id="svg2" width="16" height="16" version="1.1"><defs id="defs4"><linearGradient id="linearGradient6176"><stop style="stop-color:#166b9b;stop-opacity:1" id="stop6178" offset="0"/><stop style="stop-color:#169b6e;stop-opacity:1" id="stop6180" offset="1"/></linearGradient><linearGradient id="linearGradient6168"><stop style="stop-color:#fff891;stop-opacity:1" id="stop6170" offset="0"/><stop style="stop-color:#4090ce;stop-opacity:1" id="stop6172" offset="1"/></linearGradient><radialGradient id="radialGradient6174" cx="10.152" cy="1045.854" r="5.008" fx="10.152" fy="1045.854" gradientTransform="matrix(-0.04400863,-1.6558063,1.1452248,-0.03043823,-1189.2275,1090.9044)" gradientUnits="userSpaceOnUse" xlink:href="#linearGradient6168"/><linearGradient id="linearGradient6182" x1="3.036" x2="7.823" y1="1045.755" y2="1037.463" gradientUnits="userSpaceOnUse" xlink:href="#linearGradient6176"/><linearGradient id="linearGradient6198" x1="19.589" x2="19.589" y1="1048.307" y2="1039.07" gradientUnits="userSpaceOnUse" xlink:href="#linearGradient6176"/><linearGradient id="linearGradient6200" x1="22.737" x2="22.737" y1="1046.089" y2="1038.983" gradientUnits="userSpaceOnUse" xlink:href="#linearGradient6176"/><linearGradient id="linearGradient6168-4"><stop style="stop-color:#fff891;stop-opacity:1" id="stop6170-0" offset="0"/><stop style="stop-color:#4090ce;stop-opacity:1" id="stop6172-1" offset="1"/></linearGradient><radialGradient id="radialGradient6343" cx="8.04" cy="1038.712" r="6.088" fx="8.04" fy="1038.712" gradientTransform="matrix(0.96462225,1.3001557e-8,0,0.36634733,0.28444522,658.18289)" gradientUnits="userSpaceOnUse" xlink:href="#linearGradient6168-4"/></defs><metadata id="metadata7"/><g id="layer1" transform="translate(0,-1036.3622)" style="display:inline"><rect style="fill:#166b9b;fill-opacity:1;stroke:none;display:inline" id="rect6283" width="3.875" height="3.875" x="6.125" y="1036.362"/><path id="path5339-5" d="m 3.5355341,1039.4133 c 0,0 0,5.7561 0,9.5901 0,1.189 1.6351845,1.9888 2.9610099,1.9888 1.7573765,4e-4 2.1304696,0 3.0935923,0 1.3258257,0 2.9610097,-0.7998 2.9610097,-1.9887 0,-3.834 0,-9.5902 0,-9.5902" style="fill:url(#radialGradient6174);fill-opacity:1;stroke:url(#linearGradient6182);stroke-width:1px;stroke-linecap:butt;stroke-linejoin:miter;stroke-opacity:1;display:inline"/><g id="g6194" transform="translate(-13.037282,0)"><path id="path5361" d="m 19.531251,1051.0185 0,-11.1683" style="fill:none;stroke:url(#linearGradient6198);stroke-width:1px;stroke-linecap:butt;stroke-linejoin:miter;stroke-opacity:1"/><path id="path5361-0" d="m 22.562501,1051.0185 0,-11.1683" style="fill:none;stroke:url(#linearGradient6200);stroke-width:1px;stroke-linecap:butt;stroke-linejoin:miter;stroke-opacity:1;display:inline"/></g><path style="fill:url(#radialGradient6343);fill-opacity:1;stroke:#166b9b;stroke-width:.80000000999999998;stroke-miterlimit:4;stroke-opacity:1;stroke-dasharray:none" id="rect6322" d="m 3.5400417,1037.7906 c -0.6578751,0 -1.1875,0.5296 -1.1875,1.1875 l 0,0.6562 11.3750003,0 0,-0.6562 c 0,-0.6579 -0.529625,-1.1875 -1.1875,-1.1875 l -9.0000003,0 z"/></g></svg>