<svg xmlns="http://www.w3.org/2000/svg" xmlns:svg="http://www.w3.org/2000/svg" xmlns:xlink="http://www.w3.org/1999/xlink" id="svg2" width="16" height="16" version="1.1"><defs id="defs4"><linearGradient id="linearGradient4772"><stop style="stop-color:#757c8a;stop-opacity:1" id="stop4774" offset="0"/><stop style="stop-color:#c9c0c0;stop-opacity:1" id="stop4776" offset="1"/></linearGradient><linearGradient id="linearGradient4830"><stop style="stop-color:#2e49b0;stop-opacity:1" id="stop4832" offset="0"/><stop id="stop4836" offset=".5" style="stop-color:#565f9e;stop-opacity:1"/><stop style="stop-color:#8591c8;stop-opacity:0" id="stop4834" offset="1"/></linearGradient><linearGradient id="linearGradient4762"><stop style="stop-color:#93b6eb;stop-opacity:1" id="stop4764" offset="0"/><stop style="stop-color:#b0dffc;stop-opacity:1" id="stop4766" offset="1"/></linearGradient><linearGradient id="linearGradient3967"><stop id="stop3969" offset="0" style="stop-color:#84909f;stop-opacity:1"/><stop id="stop3971" offset="1" style="stop-color:#757c8a;stop-opacity:1"/></linearGradient><linearGradient id="linearGradient3955"><stop id="stop3957" offset="0" style="stop-color:#c38536;stop-opacity:0"/><stop style="stop-color:#f2dc91;stop-opacity:1" id="stop3959" offset=".154"/><stop style="stop-color:#fbdc8b;stop-opacity:1" id="stop3961" offset=".5"/><stop id="stop3963" offset=".75" style="stop-color:#e6bd7a;stop-opacity:1"/><stop id="stop3965" offset="1" style="stop-color:#ba772f;stop-opacity:0"/></linearGradient><linearGradient id="linearGradient3939" x1="529.219" x2="531.093" y1="366.789" y2="371.179" gradientTransform="matrix(1.0083772,0,0,1.0008794,-64.381654,-1.8945096)" gradientUnits="userSpaceOnUse" xlink:href="#linearGradient3967"/><mask id="mask4917" maskUnits="userSpaceOnUse"><path style="fill:#fff;fill-opacity:1;stroke:#fff;stroke-width:2;stroke-linecap:round;stroke-linejoin:round;stroke-miterlimit:4;stroke-opacity:1;stroke-dashoffset:0;display:inline" id="path4919" d="m 462.77563,373.22885 29.11636,0 c 1.45425,0 2.625,1.17075 2.625,2.625 l 0,18.76896 c 0,1.45425 -1.17412,2.52598 -2.625,2.625 l -29.11636,1.98708 c -1.45088,0.099 -2.625,-1.17075 -2.625,-2.625 l 0,-20.75604 c 0,-1.45425 1.17075,-2.625 2.625,-2.625 z"/></mask><linearGradient id="linearGradient4779" x1="392.468" x2="446.225" y1="356.287" y2="356.287" gradientTransform="translate(-4.5515291,1.7926844)" gradientUnits="userSpaceOnUse" xlink:href="#linearGradient4772"/><linearGradient id="linearGradient5950" x1="548.459" x2="548.459" y1="398.988" y2="373.771" gradientTransform="matrix(1.0878914,0,0,0.98905213,-75.10269,7.4725386)" gradientUnits="userSpaceOnUse" xlink:href="#linearGradient4830"/><linearGradient id="linearGradient5952" x1="523.008" x2="543.914" y1="373.229" y2="373.229" gradientTransform="matrix(1.0781548,0,0,0.96113654,-101.24019,14.473428)" gradientUnits="userSpaceOnUse" xlink:href="#linearGradient3955"/><linearGradient id="linearGradient5954" x1="538.006" x2="538.006" y1="396.223" y2="374.212" gradientTransform="matrix(1.0882211,0,0,0.98185357,-165.55019,6.7348144)" gradientUnits="userSpaceOnUse" xlink:href="#linearGradient4762"/><linearGradient id="linearGradient3124" x1="548.459" x2="548.459" y1="398.988" y2="373.771" gradientTransform="matrix(2.575112,0,0,2.3452164,-974.74443,-511.35191)" gradientUnits="userSpaceOnUse" xlink:href="#linearGradient4830"/><linearGradient id="linearGradient3128" x1="523.008" x2="543.914" y1="373.229" y2="373.229" gradientTransform="matrix(1.2760853,0,0,1.1375845,-271.66598,-66.31413)" gradientUnits="userSpaceOnUse" xlink:href="#linearGradient3955"/><linearGradient id="linearGradient3131" x1="538.006" x2="538.006" y1="396.223" y2="374.212" gradientTransform="matrix(1.2879996,0,0,1.1621048,-127.64237,-99.776879)" gradientUnits="userSpaceOnUse" xlink:href="#linearGradient4762"/><linearGradient id="linearGradient3134" x1="529.219" x2="531.093" y1="366.789" y2="371.179" gradientTransform="matrix(1.1934977,0,0,1.1846234,-228.04085,-85.686937)" gradientUnits="userSpaceOnUse" xlink:href="#linearGradient3967"/><linearGradient id="linearGradient3141" x1="392.468" x2="446.225" y1="356.287" y2="356.287" gradientTransform="translate(-4.5515291,1.7926844)" gradientUnits="userSpaceOnUse" xlink:href="#linearGradient4772"/><linearGradient id="linearGradient3143" x1="529.219" x2="531.093" y1="366.789" y2="371.179" gradientTransform="matrix(1.1934977,0,0,1.1846234,-228.04085,-85.686937)" gradientUnits="userSpaceOnUse" xlink:href="#linearGradient3967"/><linearGradient id="linearGradient3145" x1="523.008" x2="543.914" y1="373.229" y2="373.229" gradientTransform="matrix(1.2760853,0,0,1.1375845,-271.66598,-66.31413)" gradientUnits="userSpaceOnUse" xlink:href="#linearGradient3955"/><linearGradient id="linearGradient3918" x1="523.008" x2="543.914" y1="373.229" y2="373.229" gradientTransform="matrix(2.5585957,0,0,2.1955707,-966.23253,-462.92902)" gradientUnits="userSpaceOnUse" xlink:href="#linearGradient3955"/><linearGradient id="linearGradient3921" x1="529.219" x2="531.093" y1="366.789" y2="371.179" gradientTransform="matrix(2.3869954,0,0,2.3692468,-875.28481,-1247.4052)" gradientUnits="userSpaceOnUse" xlink:href="#linearGradient3967"/><linearGradient id="linearGradient3924" x1="392.468" x2="446.225" y1="356.287" y2="356.287" gradientTransform="matrix(2,0,0,2,-428.30617,-356.28533)" gradientUnits="userSpaceOnUse" xlink:href="#linearGradient4772"/><linearGradient id="linearGradient3967-0"><stop id="stop3969-6" offset="0" style="stop-color:#84909f;stop-opacity:1"/><stop id="stop3971-5" offset="1" style="stop-color:#757c8a;stop-opacity:1"/></linearGradient><linearGradient id="linearGradient3941" x1="529.219" x2="531.093" y1="366.789" y2="371.179" gradientTransform="matrix(5.7340893,0,0,3.880209,-2643.6442,-1848.6073)" gradientUnits="userSpaceOnUse" xlink:href="#linearGradient3967-0"/><linearGradient id="linearGradient3966" x1="410.387" x2="410.387" y1="-420.795" y2="-363.454" gradientTransform="matrix(1.074444,0,0,1.1017842,-30.5509,39.912135)" gradientUnits="userSpaceOnUse" xlink:href="#linearGradient4762"/><linearGradient id="linearGradient3987" x1="392.468" x2="446.225" y1="356.287" y2="356.287" gradientTransform="matrix(2,0,0,2,-428.30617,-356.28533)" gradientUnits="userSpaceOnUse" xlink:href="#linearGradient4772"/><linearGradient id="linearGradient3989" x1="529.219" x2="531.093" y1="366.789" y2="371.179" gradientTransform="matrix(2.3869954,0,0,2.3692468,-875.28481,-1247.4052)" gradientUnits="userSpaceOnUse" xlink:href="#linearGradient3967"/><linearGradient id="linearGradient3991" x1="523.008" x2="543.914" y1="373.229" y2="373.229" gradientTransform="matrix(2.5585957,0,0,2.1955707,-966.23253,-462.92902)" gradientUnits="userSpaceOnUse" xlink:href="#linearGradient3955"/><linearGradient id="linearGradient3993" x1="410.387" x2="410.387" y1="-420.795" y2="-363.454" gradientTransform="matrix(1.074444,0,0,1.1017842,-30.5509,39.912135)" gradientUnits="userSpaceOnUse" xlink:href="#linearGradient4762"/><linearGradient id="linearGradient3995" x1="529.219" x2="531.093" y1="366.789" y2="371.179" gradientTransform="matrix(5.7340893,0,0,3.880209,-2643.6442,-1848.6073)" gradientUnits="userSpaceOnUse" xlink:href="#linearGradient3967-0"/><linearGradient id="linearGradient3997" x1="548.459" x2="548.459" y1="398.988" y2="373.771" gradientTransform="matrix(2.575112,0,0,2.3452164,-974.74443,-511.35191)" gradientUnits="userSpaceOnUse" xlink:href="#linearGradient4830"/><linearGradient id="linearGradient4000" x1="548.459" x2="548.459" y1="398.988" y2="373.771" gradientTransform="matrix(1.287556,0,0,1.1726082,-201.54297,-81.116324)" gradientUnits="userSpaceOnUse" xlink:href="#linearGradient4830"/><linearGradient id="linearGradient4003" x1="410.387" x2="410.387" y1="-420.795" y2="-363.454" gradientTransform="matrix(0.537222,0,0,0.5508921,270.55379,-154.60356)" gradientUnits="userSpaceOnUse" xlink:href="#linearGradient4762"/><linearGradient id="linearGradient4005" x1="529.219" x2="531.093" y1="366.789" y2="371.179" gradientTransform="matrix(2.8670447,0,0,1.9401045,-1035.9929,-1098.8633)" gradientUnits="userSpaceOnUse" xlink:href="#linearGradient3967-0"/><linearGradient id="linearGradient4008" x1="523.008" x2="543.914" y1="373.229" y2="373.229" gradientTransform="matrix(1.2792978,0,0,1.0977854,-197.28702,-53.32107)" gradientUnits="userSpaceOnUse" xlink:href="#linearGradient3955"/><linearGradient id="linearGradient4011" x1="529.219" x2="531.093" y1="366.789" y2="371.179" gradientTransform="matrix(1.1934977,0,0,1.1846234,-150.02132,-801.84604)" gradientUnits="userSpaceOnUse" xlink:href="#linearGradient3967"/><linearGradient id="linearGradient4014" x1="392.468" x2="446.225" y1="356.287" y2="356.287" gradientTransform="translate(71.676155,7.75e-4)" gradientUnits="userSpaceOnUse" xlink:href="#linearGradient4772"/><linearGradient id="linearGradient4090" x1="-16" x2="-16" y1="1059.362" y2="1051.362" gradientTransform="matrix(0.92307692,0,0,1,23.269231,-8)" gradientUnits="userSpaceOnUse" xlink:href="#linearGradient3901"/><linearGradient id="linearGradient3901"><stop style="stop-color:#e9f8ff;stop-opacity:1" id="stop3903" offset="0"/><stop style="stop-color:#fff;stop-opacity:1" id="stop3905" offset="1"/></linearGradient><linearGradient id="linearGradient4092" x1="-16" x2="-16" y1="1059.362" y2="1051.362" gradientTransform="matrix(0.92307692,0,0,1,23.269231,-8)" gradientUnits="userSpaceOnUse" xlink:href="#linearGradient3893"/><linearGradient id="linearGradient3893"><stop style="stop-color:#95a1b6;stop-opacity:1" id="stop3895" offset="0"/><stop style="stop-color:#c5bc99;stop-opacity:1" id="stop3897" offset="1"/></linearGradient></defs><metadata id="metadata7"/><g id="layer1" transform="translate(0,-1036.3622)" style="display:inline"><g style="display:inline" id="g13862" transform="matrix(0.27903303,0,0,0.27903303,-129.51159,939.94639)"><g id="g3825" transform="translate(-48.227376,50.075274)"><path style="font-size:8px;font-style:normal;font-variant:normal;font-weight:700;font-stretch:normal;text-align:start;line-height:125%;letter-spacing:0;word-spacing:0;writing-mode:lr-tb;text-anchor:start;fill:#333;fill-opacity:1;stroke:none;font-family:Helvetica CY;-inkscape-font-specification:Helvetica CY Bold" id="path3048" d="m 538.85823,334.56007 -2.12788,0 -0.41998,-2.51986 c -1.37193,2.11855 -3.10317,3.17782 -5.19371,3.17782 -2.6412,0 -4.69442,-1.22726 -6.15967,-3.6818 -1.2226,-2.05321 -1.8339,-4.50308 -1.8339,-7.3496 0,-2.83716 0.64863,-5.27769 1.94589,-7.3216 1.50259,-2.37052 3.57447,-3.55578 6.21567,-3.55581 2.48252,3e-5 4.35841,0.76532 5.62769,2.29588 0.81194,0.97996 1.37191,2.00191 1.67991,3.06583 0.0747,0.27067 0.16331,0.81664 0.26599,1.63791 l -3.20582,0 c -0.28001,-1.08259 -0.76531,-1.95521 -1.45593,-2.61785 -0.75597,-0.73728 -1.66592,-1.10593 -2.72985,-1.10594 -1.74525,10e-6 -3.01918,0.88663 -3.8218,2.65985 -0.58797,1.30661 -0.88195,2.99118 -0.88195,5.05373 0,1.85724 0.33132,3.50915 0.99395,4.95573 0.84928,1.85723 2.07654,2.78585 3.6818,2.78585 1.32525,0 2.48718,-0.74663 3.48581,-2.23988 0.59729,-0.88662 0.92394,-1.85256 0.97995,-2.89784 l -3.89179,0 0,-3.26183 6.84562,0 0,10.91941"/><path style="font-size:8px;font-style:normal;font-variant:normal;font-weight:700;font-stretch:normal;text-align:start;line-height:125%;letter-spacing:0;word-spacing:0;writing-mode:lr-tb;text-anchor:start;fill:#c20000;fill-opacity:1;stroke:none;font-family:Helvetica CY;-inkscape-font-specification:Helvetica CY Bold" id="path3050" d="m 545.46587,334.56007 -3.5278,0 0,-20.90086 3.5278,0 0,20.90086"/><path style="font-size:8px;font-style:normal;font-variant:normal;font-weight:700;font-stretch:normal;text-align:start;line-height:125%;letter-spacing:0;word-spacing:0;writing-mode:lr-tb;text-anchor:start;fill:green;fill-opacity:1;stroke:none;font-family:Helvetica CY;-inkscape-font-specification:Helvetica CY Bold" id="path3052" d="m 561.06103,316.96303 -4.99773,0 0,17.59704 -3.52781,0 0,-17.59704 -5.17972,0 0,-3.30382 13.70526,0 0,3.30382"/></g><g style="display:inline" id="g3036" transform="matrix(3.5838051,0,0,3.5838051,528.65279,-3411.5903)"><rect id="rect3123" width="12" height="7" x="2.5" y="1043.862" style="fill:url(#linearGradient4090);fill-opacity:1;stroke:url(#linearGradient4092);stroke-width:1;stroke-linejoin:miter;stroke-miterlimit:4;stroke-opacity:1;stroke-dasharray:none"/><path style="font-size:8px;font-style:normal;font-variant:normal;font-weight:700;font-stretch:normal;text-align:start;line-height:125%;letter-spacing:0;word-spacing:0;writing-mode:lr-tb;text-anchor:start;fill:#000;fill-opacity:1;stroke:none;font-family:Helvetica CY;-inkscape-font-specification:Helvetica CY Bold" id="path3048-7" d="m 6.873,1049.3587 -0.388518,0 -0.1183567,-0.41 c -0.2921596,0.3617 -0.5249243,0.4135 -0.9066253,0.4135 -0.482243,0 -0.85713,-0.2241 -1.124662,-0.6722 C 4.111614,1048.3151 4,1047.8678 4,1047.3481 c 0,-0.518 0.11843,-0.9636 0.35529,-1.3367 0.274351,-0.4328 0.652645,-0.6492 1.134887,-0.6492 0.453271,0 0.770779,0.1647 1.027531,0.4192 0.1565814,0.1872 0.274056,0.3449 0.355292,0.5808 0.01364,0.05 -0.01874,-0.15 0,0 l -0.8063333,0 c -0.067787,-0.131 -0.018737,-0.054 -0.1198377,-0.1667 -0.113028,-0.1013 -0.1875043,-0.1269 -0.3817623,-0.1269 -0.318656,0 -0.501257,0.1452 -0.622803,0.4023 -0.107354,0.2385 -0.1526977,0.5211 -0.1526977,0.8976 0,0.3392 0.043823,0.6074 0.1648133,0.8716 0.155066,0.339 0.279145,0.4336 0.572242,0.4336 0.24197,0 0.3874544,-0.1197 0.5531217,-0.334 0.109057,-0.1618 0.1603647,-0.2216 0.1705917,-0.4207 l -0.6189154,0.01 -0.00842,-0.5651 1.25,0"/><path style="font-size:8px;font-style:normal;font-variant:normal;font-weight:700;font-stretch:normal;text-align:start;line-height:125%;letter-spacing:0;word-spacing:0;writing-mode:lr-tb;text-anchor:start;fill:#c20000;fill-opacity:1;stroke:none;font-family:Helvetica CY;-inkscape-font-specification:Helvetica CY Bold" id="path3050-9" d="m 8.9,1049.3622 -0.8,0 0,-4 0.8,0 0,4"/><path style="font-size:8px;font-style:normal;font-variant:normal;font-weight:700;font-stretch:normal;text-align:start;line-height:125%;letter-spacing:0;word-spacing:0;writing-mode:lr-tb;text-anchor:start;fill:green;fill-opacity:1;stroke:none;font-family:Helvetica CY;-inkscape-font-specification:Helvetica CY Bold" id="path3052-3" d="m 13.378454,1046.1622 -1.478681,0 4.54e-4,3.2 -0.799813,0 -8.28e-4,-3.2 -1.115586,0 3.75e-4,-0.8 3,0 -4.53e-4,0.8"/></g></g></g></svg>