<svg xmlns="http://www.w3.org/2000/svg" xmlns:svg="http://www.w3.org/2000/svg" xmlns:xlink="http://www.w3.org/1999/xlink" id="svg2" width="16" height="16" version="1.1"><defs id="defs4"><linearGradient id="linearGradient4029-5"><stop style="stop-color:#ffd461;stop-opacity:1" id="stop4031-5" offset="0"/><stop id="stop3909" offset="1" style="stop-color:#fff;stop-opacity:1"/></linearGradient><linearGradient id="linearGradient3031" x1="-17" x2="-17" y1="9" y2="-7" gradientTransform="matrix(0.5,0,0,0.46875,-0.987397,1056.1593)" gradientUnits="userSpaceOnUse" xlink:href="#linearGradient4029-5"/><linearGradient id="linearGradient3959" x1="-22" x2="-22" y1="24" y2="12" gradientTransform="matrix(0.5,0,0,0.5,-14,1046.8622)" gradientUnits="userSpaceOnUse" xlink:href="#linearGradient4029-5"/></defs><metadata id="metadata7"/><g id="layer1" transform="translate(0,-1036.3622)" style="display:inline"><g id="g3969" transform="translate(37,-16)"><path id="path3165" d="m -25.5,1052.8622 0,2 -2,0 0,2 2,0 0,2 2,0 0,-2 2,0 0,-2 -2,0 0,-2 z" style="fill:url(#linearGradient3959);fill-opacity:1;stroke:#ac7e1e;stroke-width:1px;stroke-linecap:butt;stroke-linejoin:bevel;stroke-opacity:1"/><rect id="rect3961" width="1" height="1" x="-24" y="18" transform="translate(0,1036.3622)" style="fill:#ac7e1e;fill-opacity:1;stroke:none"/><rect id="rect3963" width="1" height="1" x="-26" y="18" transform="translate(0,1036.3622)" style="fill:#ac7e1e;fill-opacity:1;stroke:none"/><rect id="rect3965" width="1" height="1" x="-26" y="20" transform="translate(0,1036.3622)" style="fill:#ac7e1e;fill-opacity:1;stroke:none"/><rect id="rect3967" width="1" height="1" x="-24" y="20" transform="translate(0,1036.3622)" style="fill:#ac7e1e;fill-opacity:1;stroke:none"/></g></g></svg>